<?xml version="1.0" encoding="UTF-8" standalone="no"?>
<!-- Created with Inkscape (http://www.inkscape.org/) -->

<svg
   width="100mm"
   height="100mm"
   viewBox="0 0 100 100"
   version="1.1"
   id="svg1"
   inkscape:version="1.3.2 (091e20e, 2023-11-25, custom)"
   sodipodi:docname="logo.svg"
   xmlns:inkscape="http://www.inkscape.org/namespaces/inkscape"
   xmlns:sodipodi="http://sodipodi.sourceforge.net/DTD/sodipodi-0.dtd"
   xmlns:xlink="http://www.w3.org/1999/xlink"
   xmlns="http://www.w3.org/2000/svg"
   xmlns:svg="http://www.w3.org/2000/svg">
  <sodipodi:namedview
     id="namedview1"
     pagecolor="#ffffff"
     bordercolor="#000000"
     borderopacity="0.25"
     inkscape:showpageshadow="2"
     inkscape:pageopacity="0.0"
     inkscape:pagecheckerboard="0"
     inkscape:deskcolor="#d1d1d1"
     inkscape:document-units="mm"
     inkscape:zoom="3.0009779"
     inkscape:cx="176.27588"
     inkscape:cy="193.10372"
     inkscape:window-width="2560"
     inkscape:window-height="1369"
     inkscape:window-x="2552"
     inkscape:window-y="-8"
     inkscape:window-maximized="1"
     inkscape:current-layer="layer1" />
  <defs
     id="defs1">
    <linearGradient
       id="linearGradient301"
       inkscape:collect="always">
      <stop
         style="stop-color:#0000ff;stop-opacity:1;"
         offset="0"
         id="stop301" />
      <stop
         style="stop-color:#00d1ff;stop-opacity:1;"
         offset="1"
         id="stop302" />
    </linearGradient>
    <inkscape:path-effect
       effect="skeletal"
       id="path-effect4"
       is_visible="true"
       lpeversion="1"
       pattern="M 0,4.9921383 C 0,2.236478 2.236478,0 4.9921383,0 c 2.7556604,0 4.9921384,2.236478 4.9921384,4.9921383 0,2.7556604 -2.236478,4.9921384 -4.9921384,4.9921384 C 2.236478,9.9842767 0,7.7477987 0,4.9921383 Z"
       copytype="single_stretched"
       prop_scale="0.92796017"
       scale_y_rel="false"
       spacing="0"
       normal_offset="0"
       tang_offset="0"
       prop_units="false"
       vertical_pattern="false"
       hide_knot="false"
       fuse_tolerance="0" />
    <linearGradient
       inkscape:collect="always"
       xlink:href="#linearGradient301"
       id="linearGradient300"
       x1="37.911255"
       y1="49.372795"
       x2="36.588768"
       y2="44.523682"
       gradientUnits="userSpaceOnUse" />
    <linearGradient
       inkscape:collect="always"
       xlink:href="#linearGradient301"
       id="linearGradient305"
       x1="58.453861"
       y1="56.955044"
       x2="57.219543"
       y2="52.370426"
       gradientUnits="userSpaceOnUse" />
  </defs>
  <g
     inkscape:label="Ebene 1"
     inkscape:groupmode="layer"
     id="layer1">
    <text
       xml:space="preserve"
       style="font-style:normal;font-variant:normal;font-weight:900;font-stretch:normal;font-size:13.5819px;line-height:1;font-family:Arial;-inkscape-font-specification:'Arial, Heavy';font-variant-ligatures:normal;font-variant-caps:normal;font-variant-numeric:normal;font-variant-east-asian:normal;letter-spacing:0.396875px;word-spacing:5.29167px;fill:#00ffff;stroke:none;stroke-width:0.499999;stroke-linecap:round;stroke-linejoin:round;paint-order:markers stroke fill"
       x="146.24141"
       y="-51.261051"
       id="text1"><tspan
         sodipodi:role="line"
         style="font-style:normal;font-variant:normal;font-weight:900;font-stretch:normal;font-size:13.5819px;font-family:Arial;-inkscape-font-specification:'Arial, Heavy';font-variant-ligatures:normal;font-variant-caps:normal;font-variant-numeric:normal;font-variant-east-asian:normal;fill:#00ffff;stroke:none;stroke-width:0.5"
         x="146.24141"
         y="-51.261051"
         id="tspan2">WASSER</tspan></text>
    <text
       xml:space="preserve"
       style="font-style:normal;font-variant:normal;font-weight:900;font-stretch:normal;font-size:13.5819px;line-height:1;font-family:Arial;-inkscape-font-specification:'Arial, Heavy';font-variant-ligatures:normal;font-variant-caps:normal;font-variant-numeric:normal;font-variant-east-asian:normal;letter-spacing:0.396875px;word-spacing:5.29167px;fill:#00ffff;stroke:none;stroke-width:0.499999;stroke-linecap:round;stroke-linejoin:round;paint-order:markers stroke fill"
       x="146.24141"
       y="-20.837879"
       id="text4"><tspan
         sodipodi:role="line"
         style="font-style:normal;font-variant:normal;font-weight:900;font-stretch:normal;font-size:13.5819px;font-family:Arial;-inkscape-font-specification:'Arial, Heavy';font-variant-ligatures:normal;font-variant-caps:normal;font-variant-numeric:normal;font-variant-east-asian:normal;fill:#00ffff;stroke:none;stroke-width:0.5"
         x="146.24141"
         y="-20.837879"
         id="tspan4">SCHLACHT</tspan></text>
    <g
       id="g305"
       transform="translate(-0.01432842,0.00759314)">
      <path
         id="path143"
         style="font-size:13.5819px;line-height:1;font-family:Coiny;-inkscape-font-specification:'Coiny, Normal';letter-spacing:0.396875px;word-spacing:5.29167px;fill:#ff7f2a;stroke:none;stroke-width:0.5;stroke-linecap:round;stroke-linejoin:round;paint-order:markers stroke fill"
         d="m 59.605469,34.769531 c -0.771982,0.02499 -1.513107,0.36267 -2.136719,0.763672 -1.397882,-0.218308 -2.957469,0.548449 -3.480469,1.894531 -1.799102,-1.050076 -4.107135,-0.489392 -5.786369,0.537437 -0.774732,0.527754 -1.430031,1.247338 -1.836678,2.095376 -1.606902,-1.383194 -4.048766,-1.101271 -5.829859,-0.213526 -0.921226,0.433875 -1.704269,1.276301 -2.152563,2.102198 -1.78169,-1.242553 -4.255675,-0.841508 -6.029296,0.216797 -0.601603,0.385454 -1.142355,0.886785 -1.503907,1.507812 -1.147951,-0.955828 -2.955693,-0.823863 -4.072265,0.117188 -1.508054,-0.267994 -3.171022,0.35355 -4.06836,1.609375 -0.431027,-1.431667 -1.600575,-2.938987 -3.250759,-2.799794 -1.152301,0.03833 -2.342404,0.642365 -2.864475,1.704091 -1.389327,-0.60906 -3.200389,-0.126939 -4.060547,1.130859 -1.865074,-1.351608 -5.0215461,0.194468 -4.8294349,2.578513 -0.00247,1.860099 0.5534834,3.688104 1.2536457,5.392428 1.1721082,2.399182 4.0897952,4.019568 6.7182672,3.113312 0.668444,-0.201184 1.289409,-0.552769 1.816507,-1.008081 2.457961,0.495637 5.046118,-1.137811 5.865234,-3.466797 1.321279,1.818577 4.134801,1.843706 5.80664,0.541016 1.379978,0.142881 2.953511,-0.491323 3.523438,-1.824219 2.208476,1.024641 4.884166,0.209553 6.67265,-1.283222 0.347721,-0.21152 0.538628,-0.893707 0.835162,-0.921856 2.078684,1.163818 4.701645,0.451713 6.544846,-0.839783 0.553843,-0.432842 1.010953,-0.999753 1.287186,-1.648499 2.435656,1.58353 6.128051,0.784018 7.671875,-1.679687 1.693109,1.623169 5.071706,0.3766 5.199219,-1.998047 0.01527,-0.675416 -0.279444,-1.37473 -0.363282,-1.994141 1.666292,-0.418269 2.559691,-2.502195 1.708985,-4 -0.464615,-0.992036 -1.52424,-1.712458 -2.638672,-1.626953 z m 27.085937,3.867188 c -1.807602,0.215223 -3.742611,1.73714 -3.535097,3.708035 0.360852,0.67487 -0.296141,0.334266 -0.67584,0.17673 -0.856382,-0.289024 -1.790865,-0.09657 -2.601563,0.246094 -0.341003,-1.276646 -1.542429,-2.347581 -2.917968,-2.171875 -1.91166,0.0053 -3.628082,2.039129 -2.938948,3.917922 0.445904,0.819432 -0.498759,0.205893 -0.930193,0.279344 -2.251454,-0.04988 -4.724506,0.883344 -5.859375,2.935547 -1.113357,-1.23141 -3.119965,-1.131624 -4.34375,-0.123047 -1.519299,-0.282836 -3.170633,0.389337 -4.06836,1.646484 -0.24943,-1.222325 -0.905393,-2.602707 -2.279072,-2.813583 -1.950018,-0.492763 -4.359902,1.249138 -3.884288,3.366945 0.176573,0.618021 0.221591,0.928895 -0.490577,0.624486 -0.736519,-0.114976 -1.506272,0.0145 -2.170281,0.351449 -0.27179,-1.579251 -2.034229,-2.557468 -3.539063,-2.091797 -1.781076,0.342086 -2.951315,2.419935 -2.232422,4.107422 0.09593,0.404479 -0.784572,-0.133092 -1.119718,-0.0071 -2.166095,-0.01167 -4.536167,0.885748 -5.657625,2.825429 0.118805,-1.771226 -1.735064,-2.863127 -3.28711,-3.041015 -2.522466,-0.259489 -5.448153,0.536421 -6.855468,2.796875 -1.096059,1.703442 -0.358367,4.052943 1.279296,5.117187 -1.134688,1.071954 -0.760856,3.078481 0.570313,3.81836 2.170147,1.334616 5.026565,1.098336 7.25,0.0098 1.036437,-0.517939 2.013639,-1.391913 2.373047,-2.470703 2.461779,1.829173 6.407228,0.973957 7.929687,-1.638672 1.297515,1.250387 3.638239,0.917084 4.605469,-0.570312 1.49554,0.731546 3.576433,0.07641 4.314453,-1.429688 1.572605,1.092605 4.107169,0.27554 4.611328,-1.613281 1.486388,1.080117 3.648133,0.889272 5.06836,-0.207031 1.49094,0.22456 3.333001,-0.665196 3.65625,-2.28125 2.504754,1.432996 6.131644,0.635342 7.595703,-1.91211 1.272445,1.231885 3.693126,0.97418 4.583984,-0.570312 1.707971,0.873204 4.299162,-0.148414 4.554688,-2.164063 2.174442,2.079575 6.376301,0.415237 6.570312,-2.578125 0.215588,-1.059032 -0.09467,-2.330091 -1.001953,-2.943359 0.482247,-1.422081 -0.671366,-3.179038 -2.203125,-3.171875 -0.252193,-1.10749 -1.109904,-2.251939 -2.371094,-2.128906 z m -35.625,1.888672 c 0.06081,0.724914 -0.182458,0.252446 0,0 z m -11.777344,3.980468 c -0.215222,0.692402 -1.436515,0.216355 -0.546748,-0.07048 0.259005,-0.0525 0.58733,-0.446162 0.546748,0.07048 z m -6.935546,2.908203 c 0.08881,0.471297 -1.225175,0.839066 -0.872616,-0.04156 0.218256,-0.04968 0.598817,0.0368 0.872616,0.04156 z m 43.841796,1.263672 c 0.328693,0.874337 -1.082621,0.567664 -0.778721,0.09147 0.310827,-0.297236 0.428601,-0.481715 0.778721,-0.09147 z m -29.865234,7.988282 c 0.33439,0.824768 -0.821246,0.593485 -0.829035,0.188409 0.305724,-0.209213 0.507682,-0.634152 0.829035,-0.188409 z m -9.40625,0.300781 c -0.05269,2.8e-5 0.04858,-0.07683 0,0 z" />
      <path
         style="font-size:13.5819px;line-height:1;font-family:Coiny;-inkscape-font-specification:'Coiny, Normal';letter-spacing:0.396875px;word-spacing:5.29167px;fill:url(#linearGradient300);fill-opacity:1;stroke:#000000;stroke-width:1;stroke-linecap:round;stroke-linejoin:round;stroke-dasharray:none;paint-order:markers stroke fill"
         d="m 18.584874,51.817864 q 0.511645,-0.137095 0.560791,-0.740827 0.04563,-0.616849 -0.291834,-1.876284 l -0.834999,-3.221212 q -0.186308,-0.695313 0.04418,-1.094538 0.240096,-0.415859 1.027243,-0.626774 0.485407,-0.130064 0.81621,-0.04997 0.343923,0.07658 0.676862,0.479503 0.33294,0.402925 0.62257,1.16898 0.28963,0.766055 0.63764,2.064846 0.2074,0.774028 0.255487,1.478255 0.04809,0.704226 -0.04136,1.262512 -0.08945,0.558285 -0.29533,1.049344 -0.196282,0.474424 -0.467074,0.828203 -0.270792,0.353779 -0.602033,0.639388 -0.334755,0.272491 -0.680999,0.449632 -0.336639,0.160508 -0.677736,0.251905 -1.18072,0.316373 -2.338784,-0.174803 -0.737176,1.027126 -1.931015,1.347014 -0.511645,0.137095 -1.061958,0.12988 -0.553828,-0.02034 -1.190139,-0.243544 -0.623191,-0.226725 -1.174009,-0.655636 -0.554333,-0.442029 -1.048722,-1.237585 -0.484785,-0.812191 -0.7695206,-1.874839 -0.4604981,-1.718602 -0.538591,-2.639766 -0.064974,-0.924679 0.1786379,-1.327419 0.2567308,-0.406254 0.8995667,-0.578502 0.537884,-0.144125 0.894925,-0.07106 0.353527,0.05994 0.562053,0.313411 0.208527,0.253468 0.331561,0.712638 l 0.870841,3.197546 q 0.337464,1.259434 0.685407,1.770827 0.347943,0.511393 0.925183,0.356722 0.288621,-0.07734 0.369656,-0.352147 0.07752,-0.287931 -0.01413,-0.839875 -0.374434,-0.715211 -0.80681,-2.328861 -0.242552,-0.905218 -0.34732,-1.453647 -0.104768,-0.54843 -0.131511,-0.963094 -0.02674,-0.414665 0.111226,-0.634427 0.137969,-0.219762 0.343418,-0.345117 0.215053,-0.141988 0.621745,-0.250961 0.236144,-0.06327 0.410207,-0.09586 0.187182,-0.0361 0.362188,-0.01268 0.175006,0.02341 0.294019,0.04777 0.119015,0.02436 0.249516,0.144058 0.130501,0.119703 0.2111,0.210595 0.0806,0.09089 0.18323,0.31649 0.115751,0.222083 0.178083,0.402236 0.07194,0.163518 0.166849,0.517733 0.104515,0.337582 0.174821,0.599964 0.07991,0.245747 0.206458,0.718036 0.442922,1.653007 0.483289,2.485852 0.179026,0.458226 0.383095,0.642584 0.204069,0.184357 0.505809,0.103506 z m 8.394886,0.04254 q -1.03641,0.277705 -1.94358,-0.379125 -0.910685,-0.669948 -1.304393,-2.139288 -0.40074,-1.495579 0.03281,-2.553837 0.443157,-1.074893 1.492685,-1.356113 1.062648,-0.284736 2.168236,0.220501 0.178453,-0.750867 0.965599,-0.961783 0.708432,-0.189823 1.186372,0.01958 0.474424,0.196281 0.695885,1.022785 l 0.913966,3.410968 q 0.210915,0.787147 -0.0327,1.189887 -0.247126,0.38962 -1.07363,0.611081 -0.865861,0.232007 -1.271427,-0.179579 -0.688467,0.789098 -1.829829,1.094925 z m 0.599557,-4.899215 q -0.324967,-0.320694 -0.679182,-0.225783 -0.341098,0.0914 -0.417423,0.646168 -0.07633,0.55477 0.09592,1.197606 0.161701,0.603479 0.485037,1.023038 0.323336,0.419559 0.677551,0.324647 0.367335,-0.09843 0.495448,-0.512402 z m 6.98232,-4.022242 q 1.220077,-0.326918 2.167041,-0.04634 0.946965,0.28058 1.105151,0.870941 0.0457,0.170547 -0.05994,0.353525 -0.105643,0.182978 -0.328667,0.242738 -0.196787,0.05273 -0.468084,-0.01519 -0.274811,-0.08104 -0.5269,-0.182221 -0.252089,-0.101184 -0.628338,-0.140979 -0.37625,-0.03979 -0.756704,0.06215 -0.511645,0.137095 -0.427279,0.451953 0.05976,0.223025 0.357294,0.283911 0.297535,0.06089 0.834729,0.07162 0.550313,0.0072 0.847847,0.0681 1.085876,0.116809 1.57273,0.464432 0.483338,0.334504 0.676677,1.056055 0.09491,0.354215 -0.007,0.76116 -0.105391,0.393826 -0.414598,0.814142 -0.312723,0.407197 -0.942186,0.786777 -0.619861,0.362946 -1.485723,0.594953 -1.692365,0.453468 -2.739388,-0.09558 -0.508634,-0.271482 -0.617607,-0.678174 -0.06679,-0.249263 0.05197,-0.435755 0.13188,-0.190009 0.43362,-0.27086 0.301739,-0.08085 0.999188,0.05567 0.693933,0.123404 1.218698,-0.01721 0.721551,-0.193339 0.626639,-0.547555 -0.04921,-0.183668 -0.457789,-0.186678 -0.412092,-0.01613 -1.070874,-0.0083 -0.658781,0.0078 -1.08939,-0.129929 -0.644031,-0.09459 -0.978602,-0.398652 -0.324967,-0.320695 -0.469092,-0.858579 -0.246068,-0.918337 0.465122,-1.727585 0.720793,-0.825881 2.111419,-1.198499 z m 7.756295,-2.078292 q 1.220077,-0.326919 2.167041,-0.04634 0.946964,0.28058 1.105151,0.870941 0.0457,0.170547 -0.05995,0.353526 -0.105642,0.182978 -0.328667,0.242737 -0.196786,0.05273 -0.468083,-0.01519 -0.274812,-0.08104 -0.5269,-0.182221 -0.252089,-0.101184 -0.628338,-0.140979 -0.376249,-0.03979 -0.756703,0.06215 -0.511646,0.137095 -0.42728,0.451953 0.05976,0.223026 0.357294,0.283912 0.297535,0.06089 0.834729,0.07161 0.550313,0.0072 0.847848,0.0681 1.085875,0.11681 1.572728,0.464433 0.48334,0.334504 0.676678,1.056054 0.09491,0.354216 -0.007,0.761162 -0.105389,0.393825 -0.414596,0.814141 -0.312723,0.407197 -0.942188,0.786777 -0.619861,0.362946 -1.485722,0.594953 -1.692365,0.453468 -2.739388,-0.09558 -0.508635,-0.271481 -0.617608,-0.678174 -0.06679,-0.249263 0.05197,-0.435755 0.131881,-0.190009 0.43362,-0.27086 0.30174,-0.08085 0.999188,0.05567 0.693934,0.123404 1.218698,-0.01721 0.721552,-0.193339 0.62664,-0.547555 -0.04921,-0.183668 -0.45779,-0.186678 -0.412091,-0.01613 -1.070873,-0.0083 -0.658781,0.0078 -1.08939,-0.129929 -0.644031,-0.09459 -0.978602,-0.398652 -0.324967,-0.320695 -0.469092,-0.858579 -0.246068,-0.918337 0.465121,-1.727585 0.720795,-0.825882 2.11142,-1.198498 z m 9.872339,4.244613 q -1.600531,0.428861 -2.871521,-0.116423 -1.25787,-0.548799 -1.641033,-1.978782 -0.4148,-1.548054 0.369453,-2.714343 0.793857,-1.182923 2.420627,-1.618815 1.534935,-0.411285 2.391008,-0.05011 0.865676,0.344544 1.118774,1.28912 0.04921,0.183668 0.04243,0.368278 0.0063,0.181095 -0.05291,0.379764 -0.04965,0.182036 -0.181532,0.372045 -0.122277,0.173374 -0.300546,0.34769 -0.181783,0.161197 -0.452827,0.304128 -0.274558,0.129814 -0.602537,0.217695 l -1.846279,0.508769 q 0.243679,0.384659 0.651566,0.542525 0.404371,0.144747 0.929136,0.0041 0.564122,-0.151156 1.115813,-0.453653 0.231687,-0.132386 0.48164,-0.354031 0.263072,-0.225161 0.394263,-0.260313 0.223024,-0.05976 0.376249,0.03979 0.166343,0.09604 0.219072,0.292825 0.06327,0.236145 -0.05523,0.633485 -0.122025,0.384222 -0.411082,0.827261 -0.279454,0.426405 -0.832777,0.827765 -0.553324,0.401362 -1.261756,0.591186 z M 50.292809,41.59224 q 0.901704,-0.25567 0.980418,-0.276762 0.196787,-0.05273 0.225346,-0.313479 0.0199,-0.188124 -0.06095,-0.489864 -0.221461,-0.826504 -0.719987,-0.692924 -0.183667,0.04921 -0.314606,0.295214 -0.11782,0.242484 -0.150584,0.644972 -0.03628,0.389369 0.04037,0.832844 z m 8.9023,0.04719 q 0.210915,0.787146 -0.0327,1.189887 -0.247127,0.38962 -1.08675,0.614596 -0.774028,0.2074 -1.14444,-0.07299 -0.373928,-0.293515 -0.595389,-1.120019 l -0.864753,-3.2273 q -0.119519,-0.44605 -0.04997,-0.81621 0.06603,-0.383281 0.318559,-0.647798 0.252526,-0.264519 0.659218,-0.373492 0.997052,-0.267159 1.466581,0.225716 0.606238,-0.781126 1.314669,-0.97095 1.377507,-0.369102 1.729033,0.942809 0.14061,0.524764 -0.07325,0.933593 -0.213859,0.408829 -0.699266,0.538893 -0.28862,0.07734 -0.503925,0.0085 -0.202185,-0.07237 -0.391252,-0.148262 -0.175948,-0.0794 -0.372734,-0.02668 -0.28862,0.07734 -0.380202,0.312789 z"
         id="text2"
         aria-label="Wasser" />
      <path
         style="font-size:13.5819px;line-height:1;font-family:Coiny;-inkscape-font-specification:'Coiny, Normal';letter-spacing:0.396875px;word-spacing:5.29167px;fill:url(#linearGradient305);fill-opacity:1;stroke:#000000;stroke-width:1;stroke-linecap:round;stroke-linejoin:round;stroke-dasharray:none;paint-order:markers stroke fill"
         d="m 31.55592,54.316852 q 1.561173,-0.418315 2.835426,-0.07076 1.274252,0.347555 1.467591,1.069105 0.05273,0.196787 -4.34e-4,0.365702 -0.04356,0.152283 -0.157176,0.253031 -0.10401,0.08412 -0.248321,0.122784 -0.236143,0.06328 -0.771707,-0.04632 -0.539077,-0.122714 -1.179593,-0.204186 -0.64403,-0.09459 -1.129437,0.03547 -0.774028,0.2074 -0.605295,0.837117 0.05273,0.196787 0.220014,0.348816 0.176889,0.135397 0.505119,0.258362 0.324715,0.109848 0.625765,0.183853 0.30105,0.074 0.827009,0.200234 0.522443,0.11311 0.886516,0.212412 1.164842,0.306565 1.712144,0.722357 0.547303,0.415791 0.730096,1.097985 0.727658,2.715655 -2.932573,3.696411 -0.721551,0.193339 -1.442413,0.231822 -0.707742,0.03497 -1.282661,-0.06408 -0.561802,-0.102564 -1.032711,-0.285727 -0.457789,-0.186677 -0.735426,-0.435688 -0.277638,-0.249011 -0.347943,-0.511393 -0.07734,-0.288621 0.0536,-0.534621 0.140542,-0.262635 0.507878,-0.361062 0.275501,-0.07382 1.419941,-8.24e-4 1.140925,0.05988 1.783762,-0.112371 0.59036,-0.158187 0.481387,-0.564879 -0.03164,-0.118072 -0.108723,-0.195844 -0.06748,-0.09441 -0.210157,-0.154604 -0.133076,-0.07683 -0.298478,-0.116877 -0.155797,-0.05668 -0.440213,-0.121083 -0.271296,-0.06792 -0.555712,-0.132318 -0.271296,-0.06792 -0.721113,-0.172364 -0.449818,-0.104448 -0.873397,-0.215927 -0.559228,-0.145437 -1.022416,-0.457217 -0.450069,-0.315296 -0.712956,-0.666686 -0.266403,-0.364509 -0.3578,-0.705607 -0.295281,-1.102004 0.502344,-2.060961 0.797624,-0.958957 2.608061,-1.444062 z m 10.474674,1.664724 q -0.08085,-0.30174 -0.421949,-0.210343 -0.249263,0.06679 -0.372228,0.39502 -0.122967,0.32823 -0.115432,0.776163 0.004,0.434814 0.123539,0.880864 0.175763,0.655956 0.678309,0.957191 0.515665,0.297719 1.197858,0.114926 0.669075,-0.179278 1.112299,-0.466772 0.182725,-0.105207 0.419559,-0.323336 0.249953,-0.221646 0.368025,-0.253283 0.183666,-0.04921 0.319316,-0.01526 0.135648,0.03396 0.199611,0.115246 0.07708,0.07777 0.105208,0.182725 0.04921,0.183668 -0.01167,0.481202 -0.04777,0.29402 -0.232813,0.652946 -0.185047,0.358924 -0.472472,0.7031 -0.277823,0.32754 -0.747285,0.622064 -0.469462,0.294524 -1.033584,0.44568 -1.626769,0.435892 -2.908304,-0.148749 -1.285051,-0.597759 -1.692821,-2.119576 -0.260128,-0.970814 0.01882,-1.818914 0.288554,-0.864735 1.029749,-1.457046 0.737681,-0.60543 1.826566,-0.897196 1.03641,-0.277705 1.772274,-0.20772 0.745468,0.05335 1.143062,0.382707 0.397593,0.329357 0.548749,0.893478 0.06679,0.249263 0.03214,0.539767 -0.02153,0.286988 -0.161128,0.605615 -0.126482,0.315111 -0.474357,0.591118 -0.35139,0.262887 -0.876155,0.403497 -0.236143,0.06328 -0.400602,0.07922 -0.15134,0.01243 -0.34298,-0.02059 -0.182036,-0.04965 -0.31348,-0.225346 -0.131442,-0.175695 -0.212293,-0.477434 -0.0703,-0.262382 -0.0769,-0.654323 0.003,-0.408576 -0.02863,-0.526648 z m 8.837351,-0.877494 q -0.200369,-0.747789 -0.777611,-0.593117 -0.104952,0.02812 -0.189756,0.07896 -0.07168,0.04733 -0.139853,0.107779 -0.05505,0.05694 -0.09955,0.153225 -0.0349,0.07966 -0.06277,0.185551 -0.01827,0.08926 -0.01287,0.214363 0.01852,0.121586 0.05719,0.265896 l 0.386678,1.443102 q 0.288251,1.075767 0.05707,1.629848 -0.221578,0.537446 -0.93001,0.72727 -0.73467,0.196854 -1.18474,-0.118442 -0.453585,-0.328415 -0.734805,-1.377943 l -1.523733,-5.581711 q -0.217946,-0.813384 0.07369,-1.299296 0.291631,-0.485912 0.947587,-0.661674 0.695313,-0.186309 1.126864,0.0074 0.431551,0.193709 0.667073,1.072688 l 0.509712,1.902272 q 0.812628,-0.85049 2.203253,-1.223107 0.629717,-0.168732 1.098054,0.0573 0.46482,0.212916 0.834795,0.859015 0.369976,0.6461 0.672288,1.774342 0.154671,0.577241 0.240925,1.004082 0.09937,0.423326 0.154921,0.788089 0.05204,0.351644 0.03308,0.595759 -0.01895,0.244116 -0.08172,0.429667 -0.06277,0.185552 -0.208712,0.323084 -0.136338,0.120896 -0.322578,0.212983 -0.18624,0.09209 -0.461742,0.165911 -0.734669,0.196854 -1.132953,0.02235 -0.388678,-0.191136 -0.536319,-0.742139 z m 7.760889,-0.434385 q 0.284735,1.062648 0.05355,1.616729 -0.231182,0.55408 -0.965852,0.750935 -0.73467,0.196854 -1.18474,-0.118442 -0.453585,-0.328415 -0.734806,-1.377943 l -1.509671,-5.529234 q -0.0914,-0.341097 -0.09611,-0.621056 0.0084,-0.283473 0.07727,-0.498778 0.08198,-0.21882 0.234007,-0.386105 0.15203,-0.167286 0.347874,-0.276007 0.208963,-0.112238 0.458227,-0.179028 0.721551,-0.193339 1.153102,3.7e-4 0.444671,0.190192 0.680193,1.069173 z m 4.490528,1.004346 q -1.03641,0.277705 -1.943579,-0.379124 -0.910685,-0.669949 -1.304393,-2.139288 -0.40074,-1.495579 0.03281,-2.553837 0.443157,-1.074893 1.492684,-1.356113 1.062648,-0.284735 2.168236,0.220501 0.178454,-0.750867 0.9656,-0.961783 0.708432,-0.189823 1.186371,0.01958 0.474424,0.196282 0.695885,1.022786 l 0.913966,3.410968 q 0.210915,0.787147 -0.0327,1.189886 -0.247127,0.389621 -1.07363,0.611082 -0.865862,0.232007 -1.271428,-0.179579 -0.688466,0.789097 -1.829829,1.094924 z m 0.599558,-4.899214 q -0.324967,-0.320694 -0.679183,-0.225782 -0.341097,0.0914 -0.417423,0.646166 -0.07633,0.55477 0.09592,1.197607 0.161701,0.603479 0.485037,1.023038 0.323336,0.419559 0.677552,0.324648 0.367335,-0.09843 0.495448,-0.512404 z m 8.169264,-2.79357 q -0.08085,-0.30174 -0.421947,-0.210343 -0.249263,0.06679 -0.37223,0.39502 -0.122966,0.32823 -0.115432,0.776163 0.004,0.434814 0.123539,0.880864 0.175763,0.655956 0.678309,0.95719 0.515666,0.29772 1.197859,0.114927 0.669075,-0.179278 1.112299,-0.466772 0.182725,-0.105208 0.419558,-0.323336 0.249953,-0.221646 0.368025,-0.253284 0.183668,-0.04921 0.319316,-0.01525 0.135648,0.03396 0.199613,0.115246 0.07708,0.07777 0.105207,0.182724 0.04921,0.183668 -0.01167,0.481203 -0.04777,0.294019 -0.232814,0.652945 -0.185046,0.358925 -0.472472,0.7031 -0.277822,0.327541 -0.747284,0.622064 -0.469463,0.294525 -1.033584,0.445681 -1.62677,0.435891 -2.908305,-0.148749 -1.285051,-0.59776 -1.69282,-2.119577 -0.260129,-0.970813 0.01882,-1.818914 0.288553,-0.864734 1.029749,-1.457045 0.73768,-0.60543 1.826566,-0.897197 1.03641,-0.277705 1.772274,-0.20772 0.745468,0.05335 1.143061,0.382708 0.397593,0.329357 0.548749,0.893478 0.06679,0.249263 0.03214,0.539767 -0.02152,0.286988 -0.161129,0.605615 -0.126481,0.315111 -0.474356,0.591117 -0.35139,0.262887 -0.876154,0.403497 -0.236144,0.06328 -0.400603,0.07922 -0.15134,0.01243 -0.342981,-0.02059 -0.182036,-0.04965 -0.31348,-0.225346 -0.131442,-0.175695 -0.212293,-0.477435 -0.0703,-0.262382 -0.0769,-0.654323 0.003,-0.408576 -0.02863,-0.526648 z m 8.837349,-0.877493 q -0.200369,-0.747789 -0.777609,-0.593118 -0.104953,0.02812 -0.189758,0.07896 -0.07168,0.04733 -0.139853,0.107779 -0.05505,0.05694 -0.09955,0.153225 -0.0349,0.07966 -0.06277,0.185551 -0.01826,0.08926 -0.01287,0.214363 0.01852,0.121586 0.05719,0.265897 l 0.386678,1.443102 q 0.288251,1.075767 0.05707,1.629848 -0.221578,0.537446 -0.93001,0.727269 -0.73467,0.196855 -1.18474,-0.118441 -0.453585,-0.328415 -0.734806,-1.377944 l -1.523732,-5.58171 q -0.217946,-0.813385 0.07368,-1.299297 0.291631,-0.485911 0.947586,-0.661674 0.695312,-0.186308 1.126864,0.0074 0.431552,0.193709 0.667074,1.072689 l 0.509712,1.902271 q 0.812626,-0.850489 2.203252,-1.223106 0.629717,-0.168732 1.098053,0.0573 0.46482,0.212915 0.834796,0.859015 0.369976,0.646099 0.672288,1.774342 0.154671,0.57724 0.240924,1.004082 0.09937,0.423326 0.154922,0.788089 0.05204,0.351644 0.03308,0.595759 -0.01895,0.244115 -0.08173,0.429667 -0.06277,0.185552 -0.208711,0.323084 -0.136338,0.120896 -0.322579,0.212983 -0.186239,0.09209 -0.46174,0.165911 -0.734671,0.196854 -1.132953,0.02235 -0.38868,-0.191135 -0.53632,-0.742137 z m 5.151765,-0.621117 -0.4148,-1.548055 q -0.331492,0.07476 -0.552887,0.03566 -0.224908,-0.05222 -0.358924,-0.185047 -0.120897,-0.136338 -0.184171,-0.372482 -0.20037,-0.747789 0.687272,-1.055937 L 84.72687,42.136709 q -0.13358,-0.498526 0.482514,-1.085438 0.612578,-0.600031 1.32101,-0.789855 0.432931,-0.116004 0.630911,0.09811 0.197981,0.21411 0.331561,0.712636 l 0.417371,1.505182 0.354217,-0.09491 q 0.72155,-0.193339 1.036662,-0.06686 0.324715,0.109848 0.458294,0.608374 0.05624,0.209905 0.0162,0.375307 -0.04005,0.165401 -0.202623,0.293329 -0.149458,0.124412 -0.388175,0.23056 -0.242233,0.09303 -0.609568,0.191452 l -0.236145,0.06327 0.386678,1.443102 q 0.05625,0.209907 0.108029,0.350701 0.06139,0.124162 0.121841,0.19233 0.06045,0.06817 0.133074,0.07683 0.08574,0.0051 0.190698,-0.02298 0.157428,-0.04218 0.23426,-0.175258 0.07332,-0.146194 0.09064,-0.291446 0.02693,-0.161887 0.09064,-0.291447 0.07331,-0.146194 0.204507,-0.181346 0.301739,-0.08085 0.497837,0.02128 0.209216,0.09861 0.26546,0.308518 0.09491,0.354216 0.05957,0.799576 -0.02222,0.441845 -0.182658,0.892604 -0.16044,0.450759 -0.565939,0.826572 -0.392378,0.372296 -0.969619,0.526968 -1.298792,0.34801 -2.012438,-0.16382 -0.713646,-0.51183 -1.114385,-2.007409 z"
         id="text3"
         aria-label="Schlacht" />
    </g>
  </g>
</svg>
