<?xml version="1.0" encoding="UTF-8" standalone="no"?>
<!-- Created with Inkscape (http://www.inkscape.org/) -->

<svg
   width="99.650002mm"
   height="57.092316mm"
   viewBox="0 0 99.650002 57.092316"
   version="1.1"
   id="svg1"
   inkscape:version="1.3.2 (091e20e, 2023-11-25, custom)"
   sodipodi:docname="karte.svg"
   xmlns:inkscape="http://www.inkscape.org/namespaces/inkscape"
   xmlns:sodipodi="http://sodipodi.sourceforge.net/DTD/sodipodi-0.dtd"
   xmlns="http://www.w3.org/2000/svg"
   xmlns:svg="http://www.w3.org/2000/svg">
  <sodipodi:namedview
     id="namedview1"
     pagecolor="#ffffff"
     bordercolor="#000000"
     borderopacity="0.25"
     inkscape:showpageshadow="2"
     inkscape:pageopacity="0.0"
     inkscape:pagecheckerboard="0"
     inkscape:deskcolor="#d1d1d1"
     inkscape:document-units="mm"
     inkscape:zoom="1.5004889"
     inkscape:cx="211.5977"
     inkscape:cy="131.62377"
     inkscape:window-width="2560"
     inkscape:window-height="1369"
     inkscape:window-x="-8"
     inkscape:window-y="-8"
     inkscape:window-maximized="1"
     inkscape:current-layer="layer1" />
  <defs
     id="defs1" />
  <g
     inkscape:label="Ebene 1"
     inkscape:groupmode="layer"
     id="layer1"
     transform="translate(-5.6023583,-7.0292478)">
    <g
       id="g2">
      <rect
         style="fill:none;stroke:#000000;stroke-width:0.5;stroke-linecap:round;stroke-linejoin:round;stroke-dasharray:none;stroke-opacity:1;paint-order:markers stroke fill"
         id="rect1"
         width="99.147385"
         height="56.487877"
         x="5.8523583"
         y="7.2792478" />
      <rect
         style="fill:none;stroke:#000000;stroke-width:0.499999;stroke-linecap:round;stroke-linejoin:round;stroke-dasharray:none;stroke-opacity:1;paint-order:markers stroke fill"
         id="rect25"
         width="99.147385"
         height="10.229691"
         x="5.8523583"
         y="7.2792478" />
      <rect
         style="fill:none;stroke:#000000;stroke-width:0.5;stroke-linecap:round;stroke-linejoin:round;stroke-dasharray:none;stroke-opacity:1;paint-order:markers stroke fill"
         id="rect29"
         width="33.049526"
         height="24.5"
         x="5.8523583"
         y="39.371563" />
      <rect
         style="fill:none;stroke:#000000;stroke-width:0.5;stroke-linecap:round;stroke-linejoin:round;stroke-dasharray:none;stroke-opacity:1;paint-order:markers stroke fill"
         id="rect30"
         width="33.049526"
         height="24.5"
         x="38.902596"
         y="39.371563" />
      <rect
         style="fill:none;stroke:#000000;stroke-width:0.5;stroke-linecap:round;stroke-linejoin:round;stroke-dasharray:none;stroke-opacity:1;paint-order:markers stroke fill"
         id="rect31"
         width="33.049526"
         height="24.5"
         x="71.952835"
         y="39.371563" />
      <g
         id="g10">
        <g
           id="g3"
           transform="translate(66.201457)">
          <path
             style="fill:#00b7ff;fill-opacity:1;stroke:#000000;stroke-width:0.465;stroke-linejoin:round;stroke-dasharray:none;stroke-opacity:1"
             d="m 19.713277,32.966565 c -0.792809,-0.719801 -0.923777,-2.45548 -0.757014,-3.095229 0.166764,-0.639751 0.263508,-1.046014 0.779652,-1.786244 0.516143,-0.740231 1.138712,-1.295244 1.43552,-2.020252 0.296807,-0.725011 0.427709,-2.948946 0.0137,-3.501724 0.04868,0 0.813329,0.7169 1.467136,1.533277 0.653819,0.81638 1.382647,1.974671 2.013026,2.921217 0.630379,0.946542 0.987189,2.003044 1.081818,3.179957 0.09469,1.176913 -0.296507,2.123301 -0.973665,2.768998 -0.677169,0.645691 -1.363006,0.954746 -2.186975,0.992552 l -0.682349,-0.0034 c -0.837984,-0.0076 -1.398021,-0.269408 -2.190819,-0.989202 z"
             id="path2"
             sodipodi:nodetypes="zzzzczzzzcczz"
             inkscape:connector-curvature="0" />
          <circle
             style="fill:#ffffff;fill-opacity:1;stroke:none;stroke-width:1;stroke-linecap:round;stroke-linejoin:round;paint-order:markers stroke fill"
             id="circle2"
             cx="23.228531"
             cy="31.614969"
             r="0.9698227" />
          <circle
             style="fill:#ffffff;fill-opacity:1;stroke:none;stroke-width:0.999998;stroke-linecap:round;stroke-linejoin:round;paint-order:markers stroke fill"
             id="circle3"
             cx="24.252985"
             cy="29.765924"
             r="0.52899414" />
        </g>
        <g
           id="g1">
          <path
             style="fill:#00b7ff;fill-opacity:1;stroke:#000000;stroke-width:0.465;stroke-linejoin:round;stroke-dasharray:none;stroke-opacity:1"
             d="m 19.713277,32.966565 c -0.792809,-0.719801 -0.923777,-2.45548 -0.757014,-3.095229 0.166764,-0.639751 0.263508,-1.046014 0.779652,-1.786244 0.516143,-0.740231 1.138712,-1.295244 1.43552,-2.020252 0.296807,-0.725011 0.427709,-2.948946 0.0137,-3.501724 0.04868,0 0.813329,0.7169 1.467136,1.533277 0.653819,0.81638 1.382647,1.974671 2.013026,2.921217 0.630379,0.946542 0.987189,2.003044 1.081818,3.179957 0.09469,1.176913 -0.296507,2.123301 -0.973665,2.768998 -0.677169,0.645691 -1.363006,0.954746 -2.186975,0.992552 l -0.682349,-0.0034 c -0.837984,-0.0076 -1.398021,-0.269408 -2.190819,-0.989202 z"
             id="path25"
             sodipodi:nodetypes="zzzzczzzzcczz"
             inkscape:connector-curvature="0" />
          <circle
             style="fill:#ffffff;fill-opacity:1;stroke:none;stroke-width:1;stroke-linecap:round;stroke-linejoin:round;paint-order:markers stroke fill"
             id="path1"
             cx="23.228531"
             cy="31.614969"
             r="0.9698227" />
          <circle
             style="fill:#ffffff;fill-opacity:1;stroke:none;stroke-width:0.999998;stroke-linecap:round;stroke-linejoin:round;paint-order:markers stroke fill"
             id="path1-2"
             cx="24.252985"
             cy="29.765924"
             r="0.52899414" />
        </g>
        <g
           id="g5"
           transform="translate(16.550364)">
          <path
             style="fill:#00b7ff;fill-opacity:1;stroke:#000000;stroke-width:0.465;stroke-linejoin:round;stroke-dasharray:none;stroke-opacity:1"
             d="m 19.713277,32.966565 c -0.792809,-0.719801 -0.923777,-2.45548 -0.757014,-3.095229 0.166764,-0.639751 0.263508,-1.046014 0.779652,-1.786244 0.516143,-0.740231 1.138712,-1.295244 1.43552,-2.020252 0.296807,-0.725011 0.427709,-2.948946 0.0137,-3.501724 0.04868,0 0.813329,0.7169 1.467136,1.533277 0.653819,0.81638 1.382647,1.974671 2.013026,2.921217 0.630379,0.946542 0.987189,2.003044 1.081818,3.179957 0.09469,1.176913 -0.296507,2.123301 -0.973665,2.768998 -0.677169,0.645691 -1.363006,0.954746 -2.186975,0.992552 l -0.682349,-0.0034 c -0.837984,-0.0076 -1.398021,-0.269408 -2.190819,-0.989202 z"
             id="path3"
             sodipodi:nodetypes="zzzzczzzzcczz"
             inkscape:connector-curvature="0" />
          <circle
             style="fill:#ffffff;fill-opacity:1;stroke:none;stroke-width:1;stroke-linecap:round;stroke-linejoin:round;paint-order:markers stroke fill"
             id="circle4"
             cx="23.228531"
             cy="31.614969"
             r="0.9698227" />
          <circle
             style="fill:#ffffff;fill-opacity:1;stroke:none;stroke-width:0.999998;stroke-linecap:round;stroke-linejoin:round;paint-order:markers stroke fill"
             id="circle5"
             cx="24.252985"
             cy="29.765924"
             r="0.52899414" />
        </g>
        <g
           id="g7"
           transform="translate(33.100729)">
          <path
             style="fill:#00b7ff;fill-opacity:1;stroke:#000000;stroke-width:0.465;stroke-linejoin:round;stroke-dasharray:none;stroke-opacity:1"
             d="m 19.713277,32.966565 c -0.792809,-0.719801 -0.923777,-2.45548 -0.757014,-3.095229 0.166764,-0.639751 0.263508,-1.046014 0.779652,-1.786244 0.516143,-0.740231 1.138712,-1.295244 1.43552,-2.020252 0.296807,-0.725011 0.427709,-2.948946 0.0137,-3.501724 0.04868,0 0.813329,0.7169 1.467136,1.533277 0.653819,0.81638 1.382647,1.974671 2.013026,2.921217 0.630379,0.946542 0.987189,2.003044 1.081818,3.179957 0.09469,1.176913 -0.296507,2.123301 -0.973665,2.768998 -0.677169,0.645691 -1.363006,0.954746 -2.186975,0.992552 l -0.682349,-0.0034 c -0.837984,-0.0076 -1.398021,-0.269408 -2.190819,-0.989202 z"
             id="path5"
             sodipodi:nodetypes="zzzzczzzzcczz"
             inkscape:connector-curvature="0" />
          <circle
             style="fill:#ffffff;fill-opacity:1;stroke:none;stroke-width:1;stroke-linecap:round;stroke-linejoin:round;paint-order:markers stroke fill"
             id="circle6"
             cx="23.228531"
             cy="31.614969"
             r="0.9698227" />
          <circle
             style="fill:#ffffff;fill-opacity:1;stroke:none;stroke-width:0.999998;stroke-linecap:round;stroke-linejoin:round;paint-order:markers stroke fill"
             id="circle7"
             cx="24.252985"
             cy="29.765924"
             r="0.52899414" />
        </g>
        <g
           id="g9"
           transform="translate(49.651093)">
          <path
             style="fill:#00b7ff;fill-opacity:1;stroke:#000000;stroke-width:0.465;stroke-linejoin:round;stroke-dasharray:none;stroke-opacity:1"
             d="m 19.713277,32.966565 c -0.792809,-0.719801 -0.923777,-2.45548 -0.757014,-3.095229 0.166764,-0.639751 0.263508,-1.046014 0.779652,-1.786244 0.516143,-0.740231 1.138712,-1.295244 1.43552,-2.020252 0.296807,-0.725011 0.427709,-2.948946 0.0137,-3.501724 0.04868,0 0.813329,0.7169 1.467136,1.533277 0.653819,0.81638 1.382647,1.974671 2.013026,2.921217 0.630379,0.946542 0.987189,2.003044 1.081818,3.179957 0.09469,1.176913 -0.296507,2.123301 -0.973665,2.768998 -0.677169,0.645691 -1.363006,0.954746 -2.186975,0.992552 l -0.682349,-0.0034 c -0.837984,-0.0076 -1.398021,-0.269408 -2.190819,-0.989202 z"
             id="path7"
             sodipodi:nodetypes="zzzzczzzzcczz"
             inkscape:connector-curvature="0" />
          <circle
             style="fill:#ffffff;fill-opacity:1;stroke:none;stroke-width:1;stroke-linecap:round;stroke-linejoin:round;paint-order:markers stroke fill"
             id="circle8"
             cx="23.228531"
             cy="31.614969"
             r="0.9698227" />
          <circle
             style="fill:#ffffff;fill-opacity:1;stroke:none;stroke-width:0.999998;stroke-linecap:round;stroke-linejoin:round;paint-order:markers stroke fill"
             id="circle9"
             cx="24.252985"
             cy="29.765924"
             r="0.52899414" />
        </g>
      </g>
      <g
         id="g13"
         transform="matrix(0.31369048,0,0,0.31369048,0.12876344,19.821404)">
        <circle
           style="fill:#000000;fill-opacity:1;stroke:none;stroke-width:1;stroke-linecap:round;stroke-linejoin:round;paint-order:markers stroke fill"
           id="path10"
           cx="34.615829"
           cy="-23.677198"
           r="12.717884" />
        <path
           style="fill:#ffffff;fill-opacity:1;stroke:none;stroke-width:0.999997;stroke-linecap:round;stroke-linejoin:round;paint-order:markers stroke fill"
           id="circle10"
           sodipodi:type="arc"
           sodipodi:cx="34.615829"
           sodipodi:cy="-23.677198"
           sodipodi:rx="8.8385935"
           sodipodi:ry="8.8385935"
           sodipodi:start="0.52359878"
           sodipodi:end="2.6179939"
           sodipodi:open="true"
           sodipodi:arc-type="chord"
           d="m 42.270276,-19.257902 a 8.8385935,8.8385935 0 0 1 -7.654447,4.419297 8.8385935,8.8385935 0 0 1 -7.654446,-4.419297 z" />
        <g
           id="g12"
           transform="translate(0.08816528)">
          <circle
             style="fill:#ffffff;fill-opacity:1;stroke:none;stroke-width:0.999998;stroke-linecap:round;stroke-linejoin:round;paint-order:markers stroke fill"
             id="circle11"
             cx="29.678551"
             cy="-27.027494"
             r="1.961668" />
          <circle
             style="fill:#ffffff;fill-opacity:1;stroke:none;stroke-width:0.999998;stroke-linecap:round;stroke-linejoin:round;paint-order:markers stroke fill"
             id="circle12"
             cx="39.376778"
             cy="-27.027494"
             r="1.961668" />
        </g>
      </g>
    </g>
  </g>
</svg>
