<?xml version="1.0" encoding="UTF-8" standalone="no"?>
<!-- Created with Inkscape (http://www.inkscape.org/) -->

<svg
   width="193.23138mm"
   height="88.900002mm"
   viewBox="0 0 193.23138 88.900002"
   version="1.1"
   id="svg1"
   xml:space="preserve"
   inkscape:version="1.4.3 (0d15f75, 2025-12-25)"
   sodipodi:docname="tappen.svg"
   xmlns:inkscape="http://www.inkscape.org/namespaces/inkscape"
   xmlns:sodipodi="http://sodipodi.sourceforge.net/DTD/sodipodi-0.dtd"
   xmlns="http://www.w3.org/2000/svg"
   xmlns:svg="http://www.w3.org/2000/svg"><sodipodi:namedview
     id="namedview1"
     pagecolor="#ffffff"
     bordercolor="#000000"
     borderopacity="0.25"
     inkscape:showpageshadow="2"
     inkscape:pageopacity="0.0"
     inkscape:pagecheckerboard="0"
     inkscape:deskcolor="#d1d1d1"
     inkscape:document-units="mm"
     inkscape:zoom="1.4979692"
     inkscape:cx="336.7893"
     inkscape:cy="156.54527"
     inkscape:window-width="2560"
     inkscape:window-height="1369"
     inkscape:window-x="2552"
     inkscape:window-y="-8"
     inkscape:window-maximized="1"
     inkscape:current-layer="layer1" /><defs
     id="defs1"><marker
       style="overflow:visible"
       id="RoundedArrow"
       refX="0"
       refY="0"
       orient="auto-start-reverse"
       inkscape:stockid="Rounded arrow"
       markerWidth="0.5"
       markerHeight="0.5"
       viewBox="0 0 1 1"
       inkscape:isstock="true"
       inkscape:collect="always"
       preserveAspectRatio="xMidYMid"
       markerUnits="strokeWidth"><path
         transform="scale(0.7)"
         d="m -0.21114562,-4.1055728 6.42229122,3.21114561 a 1,1 90 0 1 0,1.78885438 L -0.21114562,4.1055728 A 1.236068,1.236068 31.717474 0 1 -2,3 v -6 a 1.236068,1.236068 148.28253 0 1 1.78885438,-1.1055728 z"
         style="fill:context-stroke;fill-rule:evenodd;stroke:none"
         id="path8" /></marker></defs><g
     inkscape:label="Ebene 1"
     inkscape:groupmode="layer"
     id="layer1"
     transform="translate(-16.768616,-104.05)"><path
       id="path1"
       style="fill:none;stroke:#000000;stroke-width:4;stroke-linecap:round;stroke-linejoin:round;stroke-dasharray:none;marker-end:url(#RoundedArrow)"
       d="m 88.386326,134.43251 c 11.413218,0 20.665464,9.25225 20.665464,20.66548"
       sodipodi:nodetypes="cc" /><g
       id="g1"><g
         inkscape:label="Ebene 1"
         id="layer1-8"
         transform="translate(11.166256,97.020753)"><path
           style="fill:#c5eff0;fill-opacity:1;stroke:none;stroke-width:1.3;stroke-linecap:round;stroke-linejoin:round;stroke-dasharray:none;stroke-opacity:1;paint-order:stroke fill markers"
           d="m 50.36911,93.493777 h 13.345872 l 2.825376,-2.764559 -0.125089,-14.515919 c 0,0 -3.235254,4.229553 -3.70296,6.347931 -0.467706,2.118378 1.333829,4.076153 0.528994,5.642605 -0.804835,1.566452 -2.379712,2.021179 -4.231953,2.46864 -1.852242,0.447461 -4.982189,-1.125143 -6.524262,-0.352663 -1.542074,0.77248 -2.115978,3.173965 -2.115978,3.173965 z"
           id="path48"
           sodipodi:nodetypes="cccczzzzc" /><path
           style="fill:#c5eff0;fill-opacity:1;stroke:none;stroke-width:1.3;stroke-linecap:round;stroke-linejoin:round;stroke-dasharray:none;stroke-opacity:1;paint-order:stroke fill markers"
           d="M 24.14741,9.3820639 H 10.801539 L 7.9761625,12.146623 8.1012517,26.662542 c 0,0 3.2352533,-4.229553 3.7029593,-6.347931 0.467706,-2.118378 -1.333829,-4.076153 -0.528994,-5.642605 0.804835,-1.566452 2.379713,-2.021179 4.231954,-2.46864 1.852241,-0.447461 4.982189,1.125143 6.524262,0.352663 1.542073,-0.77248 2.115977,-3.1739651 2.115977,-3.1739651 z"
           id="path47"
           sodipodi:nodetypes="cccczzzzc" /><rect
           style="fill:none;stroke:#000000;stroke-width:0.0999999;stroke-linecap:round;stroke-linejoin:round;stroke-dasharray:none;stroke-opacity:1;paint-order:markers stroke fill"
           id="rect2"
           width="88.800003"
           height="63.399998"
           x="-95.87925"
           y="5.6523595"
           transform="rotate(-90)" /><path
           id="rect27"
           style="fill:#50b0ce;fill-opacity:1;stroke:none;stroke-width:0.1;stroke-dasharray:none;paint-order:stroke fill markers"
           d="m 12.776597,8.6167478 c -3.0951139,0 -5.5867387,2.4916252 -5.5867387,5.5867392 v 74.551522 c 0,3.095114 2.4916248,5.586739 5.5867387,5.586739 h 49.151522 c 3.095114,0 5.586739,-2.491625 5.586739,-5.586739 V 14.203487 c 0,-3.095114 -2.491625,-5.5867392 -5.586739,-5.5867392 z m 30.995008,1.3854452 c 1.905113,-0.038301 3.761129,0.444885 5.623946,0.772046 2.293175,0.481417 4.64823,0.209017 6.950997,-0.04599 1.711977,-0.170148 3.481182,-0.463689 5.170227,0.01757 1.759471,0.466594 3.310701,1.883862 3.697965,3.695381 0.228967,1.979292 -0.293573,3.930399 -0.544153,5.880262 -0.260648,2.171742 0.545516,4.277143 0.594796,6.436299 -0.196185,2.331058 -0.194994,4.675446 -0.06046,7.009908 0.09369,1.08324 0.174952,2.171262 0.118856,3.259233 -0.02798,1.028743 -0.224591,2.040281 -0.435633,3.044259 -0.307979,1.568461 -0.621898,3.18303 -0.379305,4.782653 0.401346,2.322252 0.950135,4.66209 0.765845,7.034713 -0.158238,2.112786 -0.241287,4.236328 -0.08733,6.352067 0.09997,1.137201 0.202278,2.277491 0.152962,3.420463 -0.0823,2.344011 -0.618519,4.674545 -0.389124,7.026445 0.246974,1.765979 0.08207,3.552247 -0.09767,5.315954 -0.28409,2.289335 -0.203566,4.606443 0.03049,6.89622 0.1056,1.330807 0.296489,2.652101 0.455786,3.977018 0.09694,1.006885 0.238416,2.030517 0.07028,3.037541 -0.246293,1.581624 -1.241078,3.10515 -2.746602,3.736723 -1.230852,0.466708 -2.555403,0.623498 -3.862813,0.689364 -2.025667,0.11178 -4.043979,-0.164049 -6.040975,-0.47284 -1.675701,-0.282818 -3.396082,-0.423237 -5.082894,-0.148828 -2.34021,0.33913 -4.690974,0.623849 -7.053833,0.742074 -3.431428,0.104329 -6.861235,-0.119439 -10.286711,-0.295073 -2.384766,-0.04394 -4.736008,-0.493807 -7.112227,-0.650606 -2.93411,-0.245245 -5.770801,0.87719 -8.699211,0.783415 C 12.140688,92.412876 9.8177247,90.608429 9.3654361,88.260465 9.1049751,86.471071 9.6366272,84.705574 9.9612654,82.961564 10.364558,81.199256 10.007184,79.389782 9.6599918,77.650777 9.0756452,75.230199 9.231441,72.715269 9.4713728,70.26053 9.8469486,67.286096 9.4955833,64.291429 9.2812035,61.319474 9.0106338,59.301899 9.3538154,57.271137 9.7679955,55.298136 10.173618,53.80622 10.325657,52.225369 10.042397,50.696867 9.6481422,49.0276 9.2946179,47.316813 9.4181461,45.591752 9.7233339,42.767122 9.3209336,39.932048 9.4150455,37.102348 9.6033128,34.888437 9.9869224,32.664645 9.7411238,30.438672 9.3777355,28.426653 9.4216623,26.358057 9.7297549,24.341886 10.17494,21.906893 9.9095777,19.42224 9.6553409,16.982129 9.4986418,16.008761 9.4609464,14.984417 9.8031355,14.043807 c 0.5460225,-1.548603 1.8530575,-2.8896 3.4974605,-3.211691 2.181646,-0.214451 4.325061,0.393618 6.493661,0.499195 2.185869,0.08468 4.277775,-0.672779 6.42338,-0.951363 2.547131,-0.306676 5.077841,0.279678 7.609872,0.467155 3.339491,0.240762 6.650115,-0.394145 9.944096,-0.84491 z" /><path
           style="fill:#d35f5f;fill-opacity:1;stroke:#367b9e;stroke-width:1.3;stroke-linecap:round;stroke-dasharray:none;stroke-opacity:1;paint-order:stroke fill markers"
           d="M 12.831214,26.355444 H 61.873501"
           id="path29" /><g
           id="g45"
           transform="matrix(0.97147952,0,0,0.96976363,-0.25223668,-0.74142761)"
           style="stroke-width:1.03027"><g
             id="g32"
             transform="translate(-17.544976,-5.2017768)"
             style="stroke-width:1.03027"><path
               id="path30"
               style="fill:#4cb9d4;stroke:none;stroke-width:1.33935;stroke-linecap:round;stroke-linejoin:round;paint-order:stroke fill markers"
               d="m 39.546157,47.982218 c 0,2.215512 -1.796028,4.01154 -4.01154,4.01154 -2.215512,0 -4.01154,-1.796028 -4.01154,-4.01154 0,-2.215512 2.304379,-5.286604 4.01154,-8.243494 1.818211,3.149233 4.01154,6.027982 4.01154,8.243494 z"
               sodipodi:nodetypes="ssscs" /><path
               id="ellipse32"
               style="fill:#2696c8;stroke-width:1.03027;stroke-linecap:round;stroke-linejoin:round;paint-order:stroke fill markers"
               transform="rotate(29.999999)"
               d="m 58.883419,24.036421 c 0,1.248372 -2.246286,3.244173 -2.860869,3.244172 -0.614583,0 1.104218,-1.17273 1.38504,-3.091677 0.242354,-1.656075 -0.969275,-3.347413 -0.354689,-3.347413 0.614583,-1e-6 1.830518,1.946546 1.830518,3.194918 z"
               sodipodi:nodetypes="sssss" /><path
               id="path31"
               style="fill:none;stroke:#2b779d;stroke-width:1.03027;stroke-linecap:round;stroke-linejoin:round;stroke-dasharray:none;paint-order:stroke fill markers"
               d="m 39.546157,47.982218 c 0,2.215512 -1.796028,4.01154 -4.01154,4.01154 -2.215512,0 -4.01154,-1.796028 -4.01154,-4.01154 0,-2.215512 2.304379,-5.286604 4.01154,-8.243494 1.818211,3.149233 4.01154,6.027982 4.01154,8.243494 z"
               sodipodi:nodetypes="ssscs" /><ellipse
               style="fill:#bde4e4;fill-opacity:1;stroke:none;stroke-width:1.03027;stroke-linecap:round;stroke-linejoin:round;stroke-dasharray:none;stroke-opacity:1;paint-order:stroke fill markers"
               id="path32"
               cx="52.328354"
               cy="23.029963"
               rx="0.66685969"
               ry="1.3545588"
               transform="rotate(30)" /></g><g
             id="g35"
             transform="translate(-7.1855052,-5.2017768)"
             style="stroke-width:1.03027"><path
               id="path33"
               style="fill:#4cb9d4;stroke:none;stroke-width:1.33935;stroke-linecap:round;stroke-linejoin:round;paint-order:stroke fill markers"
               d="m 39.546157,47.982218 c 0,2.215512 -1.796028,4.01154 -4.01154,4.01154 -2.215512,0 -4.01154,-1.796028 -4.01154,-4.01154 0,-2.215512 2.304379,-5.286604 4.01154,-8.243494 1.818211,3.149233 4.01154,6.027982 4.01154,8.243494 z"
               sodipodi:nodetypes="ssscs" /><path
               id="path34"
               style="fill:#2696c8;stroke-width:1.03027;stroke-linecap:round;stroke-linejoin:round;paint-order:stroke fill markers"
               transform="rotate(29.999999)"
               d="m 58.883419,24.036421 c 0,1.248372 -2.246286,3.244173 -2.860869,3.244172 -0.614583,0 1.104218,-1.17273 1.38504,-3.091677 0.242354,-1.656075 -0.969275,-3.347413 -0.354689,-3.347413 0.614583,-1e-6 1.830518,1.946546 1.830518,3.194918 z"
               sodipodi:nodetypes="sssss" /><path
               id="path35"
               style="fill:none;stroke:#2b779d;stroke-width:1.03027;stroke-linecap:round;stroke-linejoin:round;stroke-dasharray:none;paint-order:stroke fill markers"
               d="m 39.546157,47.982218 c 0,2.215512 -1.796028,4.01154 -4.01154,4.01154 -2.215512,0 -4.01154,-1.796028 -4.01154,-4.01154 0,-2.215512 2.304379,-5.286604 4.01154,-8.243494 1.818211,3.149233 4.01154,6.027982 4.01154,8.243494 z"
               sodipodi:nodetypes="ssscs" /><ellipse
               style="fill:#bde4e4;fill-opacity:1;stroke:none;stroke-width:1.03027;stroke-linecap:round;stroke-linejoin:round;stroke-dasharray:none;stroke-opacity:1;paint-order:stroke fill markers"
               id="ellipse35"
               cx="52.328354"
               cy="23.029963"
               rx="0.66685969"
               ry="1.3545588"
               transform="rotate(30)" /></g><g
             id="g38"
             transform="translate(3.1739655,-5.2017768)"
             style="stroke-width:1.03027"><path
               id="path36"
               style="fill:#4cb9d4;stroke:none;stroke-width:1.33935;stroke-linecap:round;stroke-linejoin:round;paint-order:stroke fill markers"
               d="m 39.546157,47.982218 c 0,2.215512 -1.796028,4.01154 -4.01154,4.01154 -2.215512,0 -4.01154,-1.796028 -4.01154,-4.01154 0,-2.215512 2.304379,-5.286604 4.01154,-8.243494 1.818211,3.149233 4.01154,6.027982 4.01154,8.243494 z"
               sodipodi:nodetypes="ssscs" /><path
               id="path37"
               style="fill:#2696c8;stroke-width:1.03027;stroke-linecap:round;stroke-linejoin:round;paint-order:stroke fill markers"
               transform="rotate(29.999999)"
               d="m 58.883419,24.036421 c 0,1.248372 -2.246286,3.244173 -2.860869,3.244172 -0.614583,0 1.104218,-1.17273 1.38504,-3.091677 0.242354,-1.656075 -0.969275,-3.347413 -0.354689,-3.347413 0.614583,-1e-6 1.830518,1.946546 1.830518,3.194918 z"
               sodipodi:nodetypes="sssss" /><path
               id="path38"
               style="fill:none;stroke:#2b779d;stroke-width:1.03027;stroke-linecap:round;stroke-linejoin:round;stroke-dasharray:none;paint-order:stroke fill markers"
               d="m 39.546157,47.982218 c 0,2.215512 -1.796028,4.01154 -4.01154,4.01154 -2.215512,0 -4.01154,-1.796028 -4.01154,-4.01154 0,-2.215512 2.304379,-5.286604 4.01154,-8.243494 1.818211,3.149233 4.01154,6.027982 4.01154,8.243494 z"
               sodipodi:nodetypes="ssscs" /><ellipse
               style="fill:#bde4e4;fill-opacity:1;stroke:none;stroke-width:1.03027;stroke-linecap:round;stroke-linejoin:round;stroke-dasharray:none;stroke-opacity:1;paint-order:stroke fill markers"
               id="ellipse38"
               cx="52.328354"
               cy="23.029963"
               rx="0.66685969"
               ry="1.3545588"
               transform="rotate(30)" /></g><g
             id="g41"
             transform="translate(13.533436,-5.2017768)"
             style="stroke-width:1.03027"><path
               id="path39"
               style="fill:#4cb9d4;stroke:none;stroke-width:1.33935;stroke-linecap:round;stroke-linejoin:round;paint-order:stroke fill markers"
               d="m 39.546157,47.982218 c 0,2.215512 -1.796028,4.01154 -4.01154,4.01154 -2.215512,0 -4.01154,-1.796028 -4.01154,-4.01154 0,-2.215512 2.304379,-5.286604 4.01154,-8.243494 1.818211,3.149233 4.01154,6.027982 4.01154,8.243494 z"
               sodipodi:nodetypes="ssscs" /><path
               id="path40"
               style="fill:#2696c8;stroke-width:1.03027;stroke-linecap:round;stroke-linejoin:round;paint-order:stroke fill markers"
               transform="rotate(29.999999)"
               d="m 58.883419,24.036421 c 0,1.248372 -2.246286,3.244173 -2.860869,3.244172 -0.614583,0 1.104218,-1.17273 1.38504,-3.091677 0.242354,-1.656075 -0.969275,-3.347413 -0.354689,-3.347413 0.614583,-1e-6 1.830518,1.946546 1.830518,3.194918 z"
               sodipodi:nodetypes="sssss" /><path
               id="path41"
               style="fill:none;stroke:#2b779d;stroke-width:1.03027;stroke-linecap:round;stroke-linejoin:round;stroke-dasharray:none;paint-order:stroke fill markers"
               d="m 39.546157,47.982218 c 0,2.215512 -1.796028,4.01154 -4.01154,4.01154 -2.215512,0 -4.01154,-1.796028 -4.01154,-4.01154 0,-2.215512 2.304379,-5.286604 4.01154,-8.243494 1.818211,3.149233 4.01154,6.027982 4.01154,8.243494 z"
               sodipodi:nodetypes="ssscs" /><ellipse
               style="fill:#bde4e4;fill-opacity:1;stroke:none;stroke-width:1.03027;stroke-linecap:round;stroke-linejoin:round;stroke-dasharray:none;stroke-opacity:1;paint-order:stroke fill markers"
               id="ellipse41"
               cx="52.328354"
               cy="23.029963"
               rx="0.66685969"
               ry="1.3545588"
               transform="rotate(30)" /></g><g
             id="g44"
             transform="translate(23.892907,-5.2017768)"
             style="stroke-width:1.03027"><path
               id="path42"
               style="fill:#4cb9d4;stroke:none;stroke-width:1.33935;stroke-linecap:round;stroke-linejoin:round;paint-order:stroke fill markers"
               d="m 39.546157,47.982218 c 0,2.215512 -1.796028,4.01154 -4.01154,4.01154 -2.215512,0 -4.01154,-1.796028 -4.01154,-4.01154 0,-2.215512 2.304379,-5.286604 4.01154,-8.243494 1.818211,3.149233 4.01154,6.027982 4.01154,8.243494 z"
               sodipodi:nodetypes="ssscs" /><path
               id="path43"
               style="fill:#2696c8;stroke-width:1.03027;stroke-linecap:round;stroke-linejoin:round;paint-order:stroke fill markers"
               transform="rotate(29.999999)"
               d="m 58.883419,24.036421 c 0,1.248372 -2.246286,3.244173 -2.860869,3.244172 -0.614583,0 1.104218,-1.17273 1.38504,-3.091677 0.242354,-1.656075 -0.969275,-3.347413 -0.354689,-3.347413 0.614583,-1e-6 1.830518,1.946546 1.830518,3.194918 z"
               sodipodi:nodetypes="sssss" /><path
               id="path44"
               style="fill:none;stroke:#2b779d;stroke-width:1.03027;stroke-linecap:round;stroke-linejoin:round;stroke-dasharray:none;paint-order:stroke fill markers"
               d="m 39.546157,47.982218 c 0,2.215512 -1.796028,4.01154 -4.01154,4.01154 -2.215512,0 -4.01154,-1.796028 -4.01154,-4.01154 0,-2.215512 2.304379,-5.286604 4.01154,-8.243494 1.818211,3.149233 4.01154,6.027982 4.01154,8.243494 z"
               sodipodi:nodetypes="ssscs" /><ellipse
               style="fill:#bde4e4;fill-opacity:1;stroke:none;stroke-width:1.03027;stroke-linecap:round;stroke-linejoin:round;stroke-dasharray:none;stroke-opacity:1;paint-order:stroke fill markers"
               id="ellipse44"
               cx="52.328354"
               cy="23.029963"
               rx="0.66685969"
               ry="1.3545588"
               transform="rotate(30)" /></g></g><g
           id="g55"
           transform="rotate(180,37.178938,69.024544)"><rect
             style="fill:none;fill-opacity:1;stroke:#367b9e;stroke-width:1.3;stroke-linecap:round;stroke-linejoin:round;stroke-dasharray:none;stroke-opacity:1;paint-order:stroke fill markers"
             id="rect49"
             width="15.869828"
             height="15.869828"
             x="18.721737"
             y="51.052475"
             ry="1.8702796"
             rx="1.8702796" /><rect
             style="fill:none;fill-opacity:1;stroke:#367b9e;stroke-width:1.3;stroke-linecap:round;stroke-linejoin:round;stroke-dasharray:none;stroke-opacity:1;paint-order:stroke fill markers"
             id="rect53"
             width="15.869828"
             height="15.869828"
             x="39.419472"
             y="51.052475"
             ry="1.8702796"
             rx="1.8702796" /><rect
             style="fill:none;fill-opacity:1;stroke:#367b9e;stroke-width:1.3;stroke-linecap:round;stroke-linejoin:round;stroke-dasharray:none;stroke-opacity:1;paint-order:stroke fill markers"
             id="rect54"
             width="15.869828"
             height="15.869828"
             x="18.721737"
             y="71.126785"
             ry="1.8702796"
             rx="1.8702796" /><rect
             style="fill:none;fill-opacity:1;stroke:#ffae00;stroke-width:1.3;stroke-linecap:round;stroke-linejoin:round;stroke-dasharray:none;stroke-opacity:1;paint-order:stroke fill markers"
             id="rect55"
             width="15.869828"
             height="15.869828"
             x="39.419472"
             y="71.126785"
             ry="1.8702796"
             rx="1.8702796" /></g></g><text
         xml:space="preserve"
         style="font-size:11.4043px;line-height:1;font-family:'Comic Sans MS';-inkscape-font-specification:'Comic Sans MS, Normal';text-align:center;letter-spacing:1.06915px;word-spacing:2.85106px;writing-mode:lr-tb;direction:ltr;text-anchor:middle;fill:#000000;stroke:none;stroke-width:3.99999;stroke-linecap:round;stroke-linejoin:round;stroke-dasharray:none"
         x="48.379402"
         y="121.04772"
         id="text1"><tspan
           sodipodi:role="line"
           id="tspan1"
           style="fill:#000000;stroke:none;stroke-width:3.99999"
           x="48.913979"
           y="121.04772">Oskar</tspan></text></g><g
       id="g27"
       transform="rotate(90,107.05931,207.04069)"><g
         inkscape:label="Ebene 1"
         id="g26"
         transform="translate(11.166256,97.020753)"><path
           style="fill:#c5eff0;fill-opacity:1;stroke:none;stroke-width:1.3;stroke-linecap:round;stroke-linejoin:round;stroke-dasharray:none;stroke-opacity:1;paint-order:stroke fill markers"
           d="m 50.36911,93.493777 h 13.345872 l 2.825376,-2.764559 -0.125089,-14.515919 c 0,0 -3.235254,4.229553 -3.70296,6.347931 -0.467706,2.118378 1.333829,4.076153 0.528994,5.642605 -0.804835,1.566452 -2.379712,2.021179 -4.231953,2.46864 -1.852242,0.447461 -4.982189,-1.125143 -6.524262,-0.352663 -1.542074,0.77248 -2.115978,3.173965 -2.115978,3.173965 z"
           id="path2"
           sodipodi:nodetypes="cccczzzzc" /><path
           style="fill:#c5eff0;fill-opacity:1;stroke:none;stroke-width:1.3;stroke-linecap:round;stroke-linejoin:round;stroke-dasharray:none;stroke-opacity:1;paint-order:stroke fill markers"
           d="M 24.14741,9.3820639 H 10.801539 L 7.9761625,12.146623 8.1012517,26.662542 c 0,0 3.2352533,-4.229553 3.7029593,-6.347931 0.467706,-2.118378 -1.333829,-4.076153 -0.528994,-5.642605 0.804835,-1.566452 2.379713,-2.021179 4.231954,-2.46864 1.852241,-0.447461 4.982189,1.125143 6.524262,0.352663 1.542073,-0.77248 2.115977,-3.1739651 2.115977,-3.1739651 z"
           id="path3"
           sodipodi:nodetypes="cccczzzzc" /><rect
           style="fill:none;stroke:#000000;stroke-width:0.0999999;stroke-linecap:round;stroke-linejoin:round;stroke-dasharray:none;stroke-opacity:1;paint-order:markers stroke fill"
           id="rect3"
           width="88.800003"
           height="63.399998"
           x="-95.87925"
           y="5.6523595"
           transform="rotate(-90)" /><path
           id="path4"
           style="fill:#50b0ce;fill-opacity:1;stroke:none;stroke-width:0.1;stroke-dasharray:none;paint-order:stroke fill markers"
           d="m 12.776597,8.6167478 c -3.0951139,0 -5.5867387,2.4916252 -5.5867387,5.5867392 v 74.551522 c 0,3.095114 2.4916248,5.586739 5.5867387,5.586739 h 49.151522 c 3.095114,0 5.586739,-2.491625 5.586739,-5.586739 V 14.203487 c 0,-3.095114 -2.491625,-5.5867392 -5.586739,-5.5867392 z m 30.995008,1.3854452 c 1.905113,-0.038301 3.761129,0.444885 5.623946,0.772046 2.293175,0.481417 4.64823,0.209017 6.950997,-0.04599 1.711977,-0.170148 3.481182,-0.463689 5.170227,0.01757 1.759471,0.466594 3.310701,1.883862 3.697965,3.695381 0.228967,1.979292 -0.293573,3.930399 -0.544153,5.880262 -0.260648,2.171742 0.545516,4.277143 0.594796,6.436299 -0.196185,2.331058 -0.194994,4.675446 -0.06046,7.009908 0.09369,1.08324 0.174952,2.171262 0.118856,3.259233 -0.02798,1.028743 -0.224591,2.040281 -0.435633,3.044259 -0.307979,1.568461 -0.621898,3.18303 -0.379305,4.782653 0.401346,2.322252 0.950135,4.66209 0.765845,7.034713 -0.158238,2.112786 -0.241287,4.236328 -0.08733,6.352067 0.09997,1.137201 0.202278,2.277491 0.152962,3.420463 -0.0823,2.344011 -0.618519,4.674545 -0.389124,7.026445 0.246974,1.765979 0.08207,3.552247 -0.09767,5.315954 -0.28409,2.289335 -0.203566,4.606443 0.03049,6.89622 0.1056,1.330807 0.296489,2.652101 0.455786,3.977018 0.09694,1.006885 0.238416,2.030517 0.07028,3.037541 -0.246293,1.581624 -1.241078,3.10515 -2.746602,3.736723 -1.230852,0.466708 -2.555403,0.623498 -3.862813,0.689364 -2.025667,0.11178 -4.043979,-0.164049 -6.040975,-0.47284 -1.675701,-0.282818 -3.396082,-0.423237 -5.082894,-0.148828 -2.34021,0.33913 -4.690974,0.623849 -7.053833,0.742074 -3.431428,0.104329 -6.861235,-0.119439 -10.286711,-0.295073 -2.384766,-0.04394 -4.736008,-0.493807 -7.112227,-0.650606 -2.93411,-0.245245 -5.770801,0.87719 -8.699211,0.783415 C 12.140688,92.412876 9.8177247,90.608429 9.3654361,88.260465 9.1049751,86.471071 9.6366272,84.705574 9.9612654,82.961564 10.364558,81.199256 10.007184,79.389782 9.6599918,77.650777 9.0756452,75.230199 9.231441,72.715269 9.4713728,70.26053 9.8469486,67.286096 9.4955833,64.291429 9.2812035,61.319474 9.0106338,59.301899 9.3538154,57.271137 9.7679955,55.298136 10.173618,53.80622 10.325657,52.225369 10.042397,50.696867 9.6481422,49.0276 9.2946179,47.316813 9.4181461,45.591752 9.7233339,42.767122 9.3209336,39.932048 9.4150455,37.102348 9.6033128,34.888437 9.9869224,32.664645 9.7411238,30.438672 9.3777355,28.426653 9.4216623,26.358057 9.7297549,24.341886 10.17494,21.906893 9.9095777,19.42224 9.6553409,16.982129 9.4986418,16.008761 9.4609464,14.984417 9.8031355,14.043807 c 0.5460225,-1.548603 1.8530575,-2.8896 3.4974605,-3.211691 2.181646,-0.214451 4.325061,0.393618 6.493661,0.499195 2.185869,0.08468 4.277775,-0.672779 6.42338,-0.951363 2.547131,-0.306676 5.077841,0.279678 7.609872,0.467155 3.339491,0.240762 6.650115,-0.394145 9.944096,-0.84491 z" /><path
           style="fill:#d35f5f;fill-opacity:1;stroke:#367b9e;stroke-width:1.3;stroke-linecap:round;stroke-dasharray:none;stroke-opacity:1;paint-order:stroke fill markers"
           d="M 12.831214,26.355444 H 61.873501"
           id="path5" /><g
           id="g22"
           transform="matrix(0.97147952,0,0,0.96976363,-0.25223668,-0.74142761)"
           style="stroke-width:1.03027"><g
             id="g9"
             transform="translate(-17.544976,-5.2017768)"
             style="stroke-width:1.03027"><path
               id="path6"
               style="fill:#4cb9d4;stroke:none;stroke-width:1.33935;stroke-linecap:round;stroke-linejoin:round;paint-order:stroke fill markers"
               d="m 39.546157,47.982218 c 0,2.215512 -1.796028,4.01154 -4.01154,4.01154 -2.215512,0 -4.01154,-1.796028 -4.01154,-4.01154 0,-2.215512 2.304379,-5.286604 4.01154,-8.243494 1.818211,3.149233 4.01154,6.027982 4.01154,8.243494 z"
               sodipodi:nodetypes="ssscs" /><path
               id="path7"
               style="fill:#2696c8;stroke-width:1.03027;stroke-linecap:round;stroke-linejoin:round;paint-order:stroke fill markers"
               transform="rotate(29.999999)"
               d="m 58.883419,24.036421 c 0,1.248372 -2.246286,3.244173 -2.860869,3.244172 -0.614583,0 1.104218,-1.17273 1.38504,-3.091677 0.242354,-1.656075 -0.969275,-3.347413 -0.354689,-3.347413 0.614583,-1e-6 1.830518,1.946546 1.830518,3.194918 z"
               sodipodi:nodetypes="sssss" /><path
               id="path9"
               style="fill:none;stroke:#2b779d;stroke-width:1.03027;stroke-linecap:round;stroke-linejoin:round;stroke-dasharray:none;paint-order:stroke fill markers"
               d="m 39.546157,47.982218 c 0,2.215512 -1.796028,4.01154 -4.01154,4.01154 -2.215512,0 -4.01154,-1.796028 -4.01154,-4.01154 0,-2.215512 2.304379,-5.286604 4.01154,-8.243494 1.818211,3.149233 4.01154,6.027982 4.01154,8.243494 z"
               sodipodi:nodetypes="ssscs" /><ellipse
               style="fill:#bde4e4;fill-opacity:1;stroke:none;stroke-width:1.03027;stroke-linecap:round;stroke-linejoin:round;stroke-dasharray:none;stroke-opacity:1;paint-order:stroke fill markers"
               id="ellipse9"
               cx="52.328354"
               cy="23.029963"
               rx="0.66685969"
               ry="1.3545588"
               transform="rotate(30)" /></g><g
             id="g12"
             transform="translate(-7.1855052,-5.2017768)"
             style="stroke-width:1.03027"><path
               id="path10"
               style="fill:#4cb9d4;stroke:none;stroke-width:1.33935;stroke-linecap:round;stroke-linejoin:round;paint-order:stroke fill markers"
               d="m 39.546157,47.982218 c 0,2.215512 -1.796028,4.01154 -4.01154,4.01154 -2.215512,0 -4.01154,-1.796028 -4.01154,-4.01154 0,-2.215512 2.304379,-5.286604 4.01154,-8.243494 1.818211,3.149233 4.01154,6.027982 4.01154,8.243494 z"
               sodipodi:nodetypes="ssscs" /><path
               id="path11"
               style="fill:#2696c8;stroke-width:1.03027;stroke-linecap:round;stroke-linejoin:round;paint-order:stroke fill markers"
               transform="rotate(29.999999)"
               d="m 58.883419,24.036421 c 0,1.248372 -2.246286,3.244173 -2.860869,3.244172 -0.614583,0 1.104218,-1.17273 1.38504,-3.091677 0.242354,-1.656075 -0.969275,-3.347413 -0.354689,-3.347413 0.614583,-1e-6 1.830518,1.946546 1.830518,3.194918 z"
               sodipodi:nodetypes="sssss" /><path
               id="path12"
               style="fill:none;stroke:#2b779d;stroke-width:1.03027;stroke-linecap:round;stroke-linejoin:round;stroke-dasharray:none;paint-order:stroke fill markers"
               d="m 39.546157,47.982218 c 0,2.215512 -1.796028,4.01154 -4.01154,4.01154 -2.215512,0 -4.01154,-1.796028 -4.01154,-4.01154 0,-2.215512 2.304379,-5.286604 4.01154,-8.243494 1.818211,3.149233 4.01154,6.027982 4.01154,8.243494 z"
               sodipodi:nodetypes="ssscs" /><ellipse
               style="fill:#bde4e4;fill-opacity:1;stroke:none;stroke-width:1.03027;stroke-linecap:round;stroke-linejoin:round;stroke-dasharray:none;stroke-opacity:1;paint-order:stroke fill markers"
               id="ellipse12"
               cx="52.328354"
               cy="23.029963"
               rx="0.66685969"
               ry="1.3545588"
               transform="rotate(30)" /></g><g
             id="g15"
             transform="translate(3.1739655,-5.2017768)"
             style="stroke-width:1.03027"><path
               id="path13"
               style="fill:#4cb9d4;stroke:none;stroke-width:1.33935;stroke-linecap:round;stroke-linejoin:round;paint-order:stroke fill markers"
               d="m 39.546157,47.982218 c 0,2.215512 -1.796028,4.01154 -4.01154,4.01154 -2.215512,0 -4.01154,-1.796028 -4.01154,-4.01154 0,-2.215512 2.304379,-5.286604 4.01154,-8.243494 1.818211,3.149233 4.01154,6.027982 4.01154,8.243494 z"
               sodipodi:nodetypes="ssscs" /><path
               id="path14"
               style="fill:#2696c8;stroke-width:1.03027;stroke-linecap:round;stroke-linejoin:round;paint-order:stroke fill markers"
               transform="rotate(29.999999)"
               d="m 58.883419,24.036421 c 0,1.248372 -2.246286,3.244173 -2.860869,3.244172 -0.614583,0 1.104218,-1.17273 1.38504,-3.091677 0.242354,-1.656075 -0.969275,-3.347413 -0.354689,-3.347413 0.614583,-1e-6 1.830518,1.946546 1.830518,3.194918 z"
               sodipodi:nodetypes="sssss" /><path
               id="path15"
               style="fill:none;stroke:#2b779d;stroke-width:1.03027;stroke-linecap:round;stroke-linejoin:round;stroke-dasharray:none;paint-order:stroke fill markers"
               d="m 39.546157,47.982218 c 0,2.215512 -1.796028,4.01154 -4.01154,4.01154 -2.215512,0 -4.01154,-1.796028 -4.01154,-4.01154 0,-2.215512 2.304379,-5.286604 4.01154,-8.243494 1.818211,3.149233 4.01154,6.027982 4.01154,8.243494 z"
               sodipodi:nodetypes="ssscs" /><ellipse
               style="fill:#bde4e4;fill-opacity:1;stroke:none;stroke-width:1.03027;stroke-linecap:round;stroke-linejoin:round;stroke-dasharray:none;stroke-opacity:1;paint-order:stroke fill markers"
               id="ellipse15"
               cx="52.328354"
               cy="23.029963"
               rx="0.66685969"
               ry="1.3545588"
               transform="rotate(30)" /></g><g
             id="g18"
             transform="translate(13.533436,-5.2017768)"
             style="stroke-width:1.03027"><path
               id="path16"
               style="fill:#4cb9d4;stroke:none;stroke-width:1.33935;stroke-linecap:round;stroke-linejoin:round;paint-order:stroke fill markers"
               d="m 39.546157,47.982218 c 0,2.215512 -1.796028,4.01154 -4.01154,4.01154 -2.215512,0 -4.01154,-1.796028 -4.01154,-4.01154 0,-2.215512 2.304379,-5.286604 4.01154,-8.243494 1.818211,3.149233 4.01154,6.027982 4.01154,8.243494 z"
               sodipodi:nodetypes="ssscs" /><path
               id="path17"
               style="fill:#2696c8;stroke-width:1.03027;stroke-linecap:round;stroke-linejoin:round;paint-order:stroke fill markers"
               transform="rotate(29.999999)"
               d="m 58.883419,24.036421 c 0,1.248372 -2.246286,3.244173 -2.860869,3.244172 -0.614583,0 1.104218,-1.17273 1.38504,-3.091677 0.242354,-1.656075 -0.969275,-3.347413 -0.354689,-3.347413 0.614583,-1e-6 1.830518,1.946546 1.830518,3.194918 z"
               sodipodi:nodetypes="sssss" /><path
               id="path18"
               style="fill:none;stroke:#2b779d;stroke-width:1.03027;stroke-linecap:round;stroke-linejoin:round;stroke-dasharray:none;paint-order:stroke fill markers"
               d="m 39.546157,47.982218 c 0,2.215512 -1.796028,4.01154 -4.01154,4.01154 -2.215512,0 -4.01154,-1.796028 -4.01154,-4.01154 0,-2.215512 2.304379,-5.286604 4.01154,-8.243494 1.818211,3.149233 4.01154,6.027982 4.01154,8.243494 z"
               sodipodi:nodetypes="ssscs" /><ellipse
               style="fill:#bde4e4;fill-opacity:1;stroke:none;stroke-width:1.03027;stroke-linecap:round;stroke-linejoin:round;stroke-dasharray:none;stroke-opacity:1;paint-order:stroke fill markers"
               id="ellipse18"
               cx="52.328354"
               cy="23.029963"
               rx="0.66685969"
               ry="1.3545588"
               transform="rotate(30)" /></g><g
             id="g21"
             transform="translate(23.892907,-5.2017768)"
             style="stroke-width:1.03027"><path
               id="path19"
               style="fill:#4cb9d4;stroke:none;stroke-width:1.33935;stroke-linecap:round;stroke-linejoin:round;paint-order:stroke fill markers"
               d="m 39.546157,47.982218 c 0,2.215512 -1.796028,4.01154 -4.01154,4.01154 -2.215512,0 -4.01154,-1.796028 -4.01154,-4.01154 0,-2.215512 2.304379,-5.286604 4.01154,-8.243494 1.818211,3.149233 4.01154,6.027982 4.01154,8.243494 z"
               sodipodi:nodetypes="ssscs" /><path
               id="path20"
               style="fill:#2696c8;stroke-width:1.03027;stroke-linecap:round;stroke-linejoin:round;paint-order:stroke fill markers"
               transform="rotate(29.999999)"
               d="m 58.883419,24.036421 c 0,1.248372 -2.246286,3.244173 -2.860869,3.244172 -0.614583,0 1.104218,-1.17273 1.38504,-3.091677 0.242354,-1.656075 -0.969275,-3.347413 -0.354689,-3.347413 0.614583,-1e-6 1.830518,1.946546 1.830518,3.194918 z"
               sodipodi:nodetypes="sssss" /><path
               id="path21"
               style="fill:none;stroke:#2b779d;stroke-width:1.03027;stroke-linecap:round;stroke-linejoin:round;stroke-dasharray:none;paint-order:stroke fill markers"
               d="m 39.546157,47.982218 c 0,2.215512 -1.796028,4.01154 -4.01154,4.01154 -2.215512,0 -4.01154,-1.796028 -4.01154,-4.01154 0,-2.215512 2.304379,-5.286604 4.01154,-8.243494 1.818211,3.149233 4.01154,6.027982 4.01154,8.243494 z"
               sodipodi:nodetypes="ssscs" /><ellipse
               style="fill:#bde4e4;fill-opacity:1;stroke:none;stroke-width:1.03027;stroke-linecap:round;stroke-linejoin:round;stroke-dasharray:none;stroke-opacity:1;paint-order:stroke fill markers"
               id="ellipse21"
               cx="52.328354"
               cy="23.029963"
               rx="0.66685969"
               ry="1.3545588"
               transform="rotate(30)" /></g></g><g
           id="g25"
           transform="rotate(180,37.178938,69.024544)"><rect
             style="fill:none;fill-opacity:1;stroke:#367b9e;stroke-width:1.3;stroke-linecap:round;stroke-linejoin:round;stroke-dasharray:none;stroke-opacity:1;paint-order:stroke fill markers"
             id="rect22"
             width="15.869828"
             height="15.869828"
             x="18.721737"
             y="51.052475"
             ry="1.8702796"
             rx="1.8702796" /><rect
             style="fill:none;fill-opacity:1;stroke:#367b9e;stroke-width:1.3;stroke-linecap:round;stroke-linejoin:round;stroke-dasharray:none;stroke-opacity:1;paint-order:stroke fill markers"
             id="rect23"
             width="15.869828"
             height="15.869828"
             x="39.419472"
             y="51.052475"
             ry="1.8702796"
             rx="1.8702796" /><rect
             style="fill:none;fill-opacity:1;stroke:#367b9e;stroke-width:1.3;stroke-linecap:round;stroke-linejoin:round;stroke-dasharray:none;stroke-opacity:1;paint-order:stroke fill markers"
             id="rect24"
             width="15.869828"
             height="15.869828"
             x="18.721737"
             y="71.126785"
             ry="1.8702796"
             rx="1.8702796" /><rect
             style="fill:none;fill-opacity:1;stroke:#ffae00;stroke-width:1.3;stroke-linecap:round;stroke-linejoin:round;stroke-dasharray:none;stroke-opacity:1;paint-order:stroke fill markers"
             id="rect25"
             width="15.869828"
             height="15.869828"
             x="39.419472"
             y="71.126785"
             ry="1.8702796"
             rx="1.8702796" /></g></g><text
         xml:space="preserve"
         style="font-size:11.4043px;line-height:1;font-family:'Comic Sans MS';-inkscape-font-specification:'Comic Sans MS, Normal';text-align:center;letter-spacing:1.06915px;word-spacing:2.85106px;writing-mode:lr-tb;direction:ltr;text-anchor:middle;fill:#000000;stroke:none;stroke-width:3.99999;stroke-linecap:round;stroke-linejoin:round;stroke-dasharray:none"
         x="48.379402"
         y="121.04772"
         id="text26"><tspan
           sodipodi:role="line"
           id="tspan26"
           style="fill:#000000;stroke:none;stroke-width:3.99999"
           x="48.913979"
           y="121.04772">Oskar</tspan></text></g></g></svg>
