<?xml version="1.0" encoding="UTF-8" standalone="no"?>
<!-- Created with Inkscape (http://www.inkscape.org/) -->

<svg
   width="15mm"
   height="15mm"
   viewBox="0 0 15 15"
   version="1.1"
   id="svg1"
   inkscape:version="1.4.3 (0d15f75, 2025-12-25)"
   sodipodi:docname="bonbon.svg"
   xml:space="preserve"
   xmlns:inkscape="http://www.inkscape.org/namespaces/inkscape"
   xmlns:sodipodi="http://sodipodi.sourceforge.net/DTD/sodipodi-0.dtd"
   xmlns="http://www.w3.org/2000/svg"
   xmlns:svg="http://www.w3.org/2000/svg"><sodipodi:namedview
     id="namedview1"
     pagecolor="#ffffff"
     bordercolor="#000000"
     borderopacity="0.25"
     inkscape:showpageshadow="2"
     inkscape:pageopacity="0.0"
     inkscape:pagecheckerboard="0"
     inkscape:deskcolor="#d1d1d1"
     inkscape:document-units="mm"
     inkscape:zoom="8.4737937"
     inkscape:cx="42.660939"
     inkscape:cy="30.623828"
     inkscape:window-width="2560"
     inkscape:window-height="1369"
     inkscape:window-x="2552"
     inkscape:window-y="-8"
     inkscape:window-maximized="1"
     inkscape:current-layer="layer1" /><defs
     id="defs1" /><g
     inkscape:label="Ebene 1"
     inkscape:groupmode="layer"
     id="layer1"><g
       id="g7"><path
         id="path1"
         style="fill:#ffffff;stroke-width:0.327624"
         d="M 11.018966,0.00103353 C 10.373612,-0.03152476 9.7762815,0.93148902 9.4872762,2.6758057 9.3984769,3.2117591 9.4192625,3.2016293 8.8857625,2.9703613 5.883578,1.6689317 1.9956162,5.5539284 2.9321208,8.9193522 3.0588977,9.3749369 3.1118146,9.3290926 2.3559285,9.4133789 0.24495241,9.6487667 -0.50853158,10.599423 0.68677979,11.519194 c 0.47603201,0.366298 0.51852481,0.441044 0.56585691,1.005623 0.064368,0.767776 0.3499955,1.033529 1.1110433,1.033529 0.4269258,0 0.5328332,0.08918 0.9322429,0.785481 0.094779,0.165229 0.2661563,0.379427 0.3808553,0.47594 0.7453064,0.627134 1.6286486,-0.432271 1.995227,-2.393135 0.1074198,-0.574603 0.079315,-0.554206 0.6123657,-0.449585 3.434619,0.674106 6.6695261,-2.4913051 5.8384031,-5.7128299 -0.177622,-0.6884809 -0.186009,-0.6615286 0.203605,-0.6630086 2.061414,-0.00781 3.296086,-1.378243 2.06344,-2.2908162 C 13.723857,2.8173609 13.690687,2.7723525 13.689087,2.372465 13.686125,1.6224996 13.402405,1.288336 12.68398,1.1875244 L 12.185819,1.1172445 11.904183,0.68264567 C 11.615407,0.23624335 11.312308,0.01583275 11.018966,0.00103353 Z"
         sodipodi:nodetypes="sscssssssssssccccccs" /><path
         style="fill:#a0a09a;stroke-width:0.327624"
         d="M 3.6766947,14.819717 C 3.5619957,14.723204 3.390605,14.509051 3.295826,14.343822 2.8964163,13.647524 2.7905246,13.558296 2.3635988,13.558296 c -0.7610478,0 -1.046781,-0.26578 -1.1111487,-1.033556 C 1.205118,11.960161 1.1630192,11.885282 0.68698714,11.518984 -0.50832423,10.599213 0.24495066,9.6489185 2.3559268,9.4135307 3.1118129,9.3292444 3.0587496,9.3747806 2.9319727,8.9191959 1.9954681,5.5537721 5.8835887,1.6688258 8.8857732,2.9702554 c 0.5335,0.231268 0.5127777,0.2414138 0.601577,-0.2945396 0.4203713,-2.53718785 1.4929408,-3.42167657 2.4170248,-1.99318915 l 0.281308,0.43485615 0.498188,0.069908 c 0.718425,0.1008116 1.002036,0.4352943 1.004998,1.1852597 0.0016,0.3998875 0.03518,0.4448408 0.701142,0.9378722 1.232646,0.9125732 -0.002,2.2831762 -2.063414,2.2909864 -0.389614,0.00148 -0.38124,-0.025778 -0.203618,0.6627029 0.831123,3.2215248 -2.4040476,6.387009 -5.8386666,5.712903 -0.5330511,-0.104621 -0.504954,-0.125239 -0.6123738,0.449364 -0.3665784,1.960864 -1.2499375,3.020472 -1.9952439,2.393338 z M 5.9503323,5.3441024 C 6.6564018,4.8361159 6.8972711,3.6820726 6.2683965,3.8201963 5.5734462,3.9728331 4.9528653,4.765862 5.346438,4.998351 c 0.1369938,0.080924 0.194043,0.1644037 0.194043,0.2839412 0,0.1549898 0.044625,0.2555585 0.1133979,0.2555585 0.014936,0 0.1483411,-0.087187 0.2964534,-0.1937483 z"
         id="path582" /><path
         style="fill:#dc9167;stroke-width:0.327624"
         d="M 3.6374378,14.689547 C 3.5546746,14.600244 3.3765473,14.338382 3.2415996,14.107632 2.8943985,13.513945 2.8374355,13.474389 2.3157512,13.464708 1.6219447,13.451832 1.3362151,13.16782 1.3362151,12.49106 c 0,-0.45899 -0.1380644,-0.703959 -0.57236306,-1.015551 -0.44435213,-0.318806 -0.5918954,-0.528876 -0.5918954,-0.842733 0,-0.490353 1.09371316,-1.0489672 2.20873626,-1.128114 C 3.0980032,9.4537459 3.1790004,9.3955094 3.0481843,9.0247371 2.0802658,6.2813639 4.4872606,3.0524018 7.611007,2.9037495 8.3171781,2.8701444 8.3772152,2.8774147 8.7752655,3.0447379 9.4500076,3.3283706 9.4714211,3.3281816 9.5156962,3.0381998 9.9397304,0.26113082 10.90536,-0.673794 11.860555,0.76790716 12.163781,1.2255788 12.18221,1.2361748 12.777454,1.2950983 c 0.552984,0.05474 0.771512,0.3407861 0.839603,1.0990143 l 0.04089,0.4553557 0.51745,0.3933468 c 1.341985,1.0201321 0.538962,2.0472308 -1.782223,2.2795412 -0.557846,0.05583 -0.555333,0.050182 -0.352019,0.7916666 C 12.879096,9.3700061 9.7586394,12.48318 6.4308981,11.911189 5.6950973,11.784715 5.698481,11.783566 5.6390012,12.180207 5.3421773,14.159569 4.3264387,15.432992 3.6374378,14.689547 Z M 7.2868687,9.7537982 c 0,-0.029149 -0.1199727,-0.2110647 -0.2666042,-0.4042561 C 6.0629335,8.0882314 5.6452441,5.8793194 6.2197639,5.1161516 6.5155562,4.7232331 6.6390476,4.4227786 6.6396963,4.0944459 6.6398961,3.9942772 6.6701981,3.8560215 6.7070165,3.7872111 6.7638462,3.6810219 6.7516192,3.6609749 6.6261621,3.654653 6.1915751,3.6327533 5.8248817,3.8002927 5.2916475,4.2643782 5.0795671,4.448957 4.7906118,4.6930457 4.6495246,4.8067976 4.3621081,5.0385283 4.1028371,5.4306233 4.1812848,5.5149165 4.2095784,5.5453177 4.2484238,5.9631284 4.2676095,6.4433849 4.317605,7.6948714 4.6646049,8.91986 5.1042091,9.3967747 5.4421256,9.7633704 5.5332556,9.6931615 5.2513815,9.2833888 4.769268,8.5825194 4.3080842,6.4080336 4.583202,6.132916 4.738836,5.977282 5.5975607,6.0326901 5.6357623,6.2008311 5.6539487,6.2808738 5.714917,6.579215 5.7712497,6.8638115 6.01187,8.0794557 6.6716331,9.4634252 7.140768,9.736617 7.2814695,9.818552 7.2868687,9.819187 7.2868687,9.7537982 Z M 9.4860233,8.8672913 c 0,-0.018684 -0.1683759,-0.2151531 -0.3741665,-0.4365969 C 8.4900195,7.7615596 8.1859449,7.2490394 7.7510205,6.1369902 7.1917856,4.7071028 7.1871661,4.6465594 7.6225984,4.4535122 8.4156881,4.1019005 8.2715793,3.4218717 7.4169388,3.4830209 6.9129054,3.5190842 6.7361095,3.590656 6.9529312,3.6708632 7.2070365,3.7648632 7.2588601,4.001968 7.1039889,4.3619782 6.7311198,5.2287358 8.5716569,8.8050146 9.437512,8.896157 9.464181,8.898977 9.486023,8.885978 9.486023,8.86729 Z M 11.555815,7.5175418 c 0,-0.01398 -0.04517,-0.042754 -0.10038,-0.06394 -0.05756,-0.022088 -0.08352,-0.011244 -0.06086,0.02542 0.03798,0.06146 0.161243,0.090906 0.161243,0.03852 z M 10.086159,6.5889172 C 9.2865985,5.8200413 8.6969437,4.7385799 8.6843105,4.0178469 8.6765786,3.5758347 8.5265627,3.3649006 8.3473949,3.5440691 7.9256868,3.9657764 9.732649,7.025514 10.403401,7.025514 c 0.107916,0 0.04098,-0.092124 -0.317242,-0.4365968 z m 1.756557,-1.4970961 c 0.04805,-0.077738 -0.197921,-0.3755965 -0.259498,-0.3142457 -0.0598,0.059578 0.0758,0.3721892 0.161437,0.3721892 0.03424,0 0.07836,-0.026075 0.09806,-0.057944 z"
         id="path581" /><path
         style="fill:#bc6ea1;stroke-width:0.327624"
         d="M 3.6374378,14.689547 C 3.5546746,14.600244 3.3765473,14.338382 3.2415996,14.107632 2.8943985,13.513945 2.8374355,13.474389 2.3157512,13.464708 1.6219447,13.451832 1.3362151,13.16782 1.3362151,12.49106 c 0,-0.45899 -0.1380644,-0.703959 -0.57236306,-1.015551 -0.44435213,-0.318806 -0.5918954,-0.528876 -0.5918954,-0.842733 0,-0.490353 1.09371316,-1.0489672 2.20873626,-1.128114 C 3.0980032,9.4537459 3.1790004,9.3955094 3.0481843,9.0247371 2.0802658,6.2813639 4.4872606,3.0524018 7.611007,2.9037495 8.3171781,2.8701444 8.3772152,2.8774147 8.7752655,3.0447379 9.4500076,3.3283706 9.4714211,3.3281816 9.5156962,3.0381998 9.9397304,0.26113082 10.90536,-0.673794 11.860555,0.76790716 12.163781,1.2255788 12.18221,1.2361748 12.777454,1.2950983 c 0.552984,0.05474 0.771512,0.3407861 0.839603,1.0990143 l 0.04089,0.4553557 0.51745,0.3933468 c 1.341985,1.0201321 0.538962,2.0472308 -1.782223,2.2795412 -0.557846,0.05583 -0.555333,0.050182 -0.352019,0.7916666 C 12.879096,9.3700061 9.7586394,12.48318 6.4308981,11.911189 5.6950973,11.784715 5.698481,11.783566 5.6390012,12.180207 5.3421773,14.159569 4.3264387,15.432992 3.6374378,14.689547 Z M 5.1127643,10.696161 C 4.8854331,10.450299 4.624272,10.097071 4.5092147,9.8798435 4.4194735,9.7104123 4.4409109,9.716049 4.780479,9.9511695 5.2368431,10.267161 4.8086023,9.7643327 4.1821795,9.2486633 3.6559161,8.8154448 3.5714081,8.7783371 3.6284242,9.0055072 3.7550896,9.5101834 4.9021596,10.906375 5.190121,10.906375 c 0.097028,0 0.083816,-0.0359 -0.077357,-0.210214 z M 7.2634108,9.7096001 C 7.2429016,9.6561416 7.1108297,9.4596729 6.9699251,9.2730031 6.6755744,8.8830399 6.5365733,8.5778583 6.653309,8.5778583 c 0.1080734,0 0.692768,0.6528715 0.7382553,0.8243399 C 7.4636908,9.6740728 8.9159768,9.308724 9.2201858,8.9421761 9.2648737,8.8883288 9.3429695,8.8602091 9.3937316,8.8796877 9.5570686,8.9423668 9.4939977,8.8419008 9.1118568,8.4306944 8.4900195,7.7615596 8.1859449,7.2490394 7.7510205,6.1369902 7.1917856,4.7071028 7.1871661,4.6465594 7.6225984,4.4535122 8.0974274,4.2429991 8.2635231,3.8625853 7.9969877,3.5960472 7.8400852,3.4391447 7.0665021,3.4313847 6.8815779,3.5848582 6.8355009,3.6230977 6.6766686,3.6527129 6.528612,3.6506695 6.1763799,3.6458082 5.7695231,3.8480206 5.2938062,4.2643782 5.0829128,4.448957 4.805155,4.6809247 4.6765667,4.779862 4.0374089,5.2716363 3.4503666,6.5584618 3.4431694,7.4835289 l -0.00482,0.6197176 0.3557455,0.4195172 C 4.2177631,9.0223821 4.5736426,9.3034155 4.92601,9.4166244 5.0683083,9.4623421 5.2307559,9.5397908 5.2870047,9.5887326 5.4860859,9.7619525 5.4653414,9.5944333 5.2487123,9.2795104 4.7689912,8.5821187 4.308978,6.4071386 4.5832007,6.132916 4.7388347,5.977282 5.5975594,6.0326901 5.635761,6.2008311 5.6539474,6.2808738 5.7149157,6.579215 5.7712497,6.8638115 6.01187,8.0794557 6.6716331,9.4634252 7.140768,9.736617 7.2938504,9.8257622 7.3068833,9.8228909 7.2634108,9.7096011 Z M 11.555815,7.5175418 c 0,-0.01398 -0.04517,-0.042754 -0.10038,-0.06394 -0.05756,-0.022088 -0.08352,-0.011244 -0.06086,0.02542 0.03798,0.06146 0.161243,0.090906 0.161243,0.03852 z M 10.48858,6.5562271 C 10.48858,5.0976317 9.9953315,4.1381433 9.0516034,3.7609573 8.8102787,3.6645048 8.5749856,3.5543683 8.5287316,3.5162097 8.3107697,3.3363951 8.247689,3.6046766 8.3832763,4.1348164 8.8071434,5.7921234 10.48858,7.7260232 10.48858,6.5562271 Z m 1.354136,-1.464406 c 0.04805,-0.077738 -0.197921,-0.3755965 -0.259498,-0.3142457 -0.0598,0.059578 0.0758,0.3721892 0.161437,0.3721892 0.03424,0 0.07836,-0.026075 0.09806,-0.057944 z"
         id="path580" /><path
         style="fill:#5ca1a8;stroke-width:0.327624"
         d="M 3.6374378,14.689547 C 3.5546746,14.600244 3.3765473,14.338382 3.2415996,14.107632 2.8943985,13.513945 2.8374355,13.474389 2.3157512,13.464708 1.6219447,13.451832 1.3362151,13.16782 1.3362151,12.49106 c 0,-0.45899 -0.1380644,-0.703959 -0.57236306,-1.015551 -0.44435213,-0.318806 -0.5918954,-0.528876 -0.5918954,-0.842733 0,-0.490353 1.09371316,-1.0489672 2.20873626,-1.128114 C 3.0980032,9.4537459 3.1790004,9.3955094 3.0481843,9.0247371 2.0802658,6.2813639 4.4872606,3.0524018 7.611007,2.9037495 8.3171781,2.8701444 8.3772152,2.8774147 8.7752655,3.0447379 9.4500076,3.3283706 9.4714211,3.3281816 9.5156962,3.0381998 9.9397304,0.26113082 10.90536,-0.673794 11.860555,0.76790716 12.163781,1.2255788 12.18221,1.2361748 12.777454,1.2950983 c 0.552984,0.05474 0.771512,0.3407861 0.839603,1.0990143 l 0.04089,0.4553557 0.51745,0.3933468 c 1.341985,1.0201321 0.538962,2.0472308 -1.782223,2.2795412 -0.557846,0.05583 -0.555333,0.050182 -0.352019,0.7916666 C 12.879096,9.3700061 9.7586394,12.48318 6.4308981,11.911189 5.6950973,11.784715 5.698481,11.783566 5.6390012,12.180207 5.3421773,14.159569 4.3264387,15.432992 3.6374378,14.689547 Z M 4.1952199,14.169976 C 4.3324526,13.868783 4.1496225,12.343841 3.9526653,12.146883 3.8656287,12.059847 3.7657384,11.882131 3.7306868,11.75196 3.6718,11.533271 3.5694112,11.393056 3.3120912,11.178719 c -0.0556,-0.04631 -0.1001269,-0.184585 -0.1001269,-0.310933 0,-0.280057 -0.1235189,-0.803447 -0.2179327,-0.92345 -0.2305845,-0.2930812 -2.36588609,0.36266 -2.42099379,0.743475 -0.0474541,0.327928 0.83087009,0.77209 1.34700989,0.681174 0.6384787,-0.112466 0.8556883,0.06778 0.4355689,0.361446 -0.1218759,0.08519 -0.2080414,0.202085 -0.2090957,0.283662 -0.00174,0.13553 -0.079969,0.205445 -0.3090279,0.276227 -0.2277061,0.07036 -0.062216,0.696403 0.2066476,0.781737 0.069968,0.02221 0.242784,0.0058 0.3840346,-0.03657 0.4467343,-0.133845 0.8168687,0.146952 1.3158151,0.998222 0.1976167,0.33716 0.340092,0.380185 0.4512296,0.136265 z M 5.1127643,10.696161 C 4.8854331,10.450299 4.624272,10.097071 4.5092147,9.8798435 4.4194735,9.7104123 4.4409109,9.716049 4.780479,9.9511695 5.2368431,10.267161 4.8086023,9.7643327 4.1821795,9.2486633 3.6559161,8.8154448 3.5714081,8.7783371 3.6284242,9.0055072 3.7550896,9.5101834 4.9021596,10.906375 5.190121,10.906375 c 0.097028,0 0.083816,-0.0359 -0.077357,-0.210214 z M 7.2634108,9.7096001 C 7.2429016,9.6561416 7.1108297,9.4596729 6.9699251,9.2730031 6.6755744,8.8830399 6.5365733,8.5778583 6.653309,8.5778583 c 0.1080734,0 0.692768,0.6528715 0.7382553,0.8243399 C 7.4636908,9.6740728 8.9159768,9.308724 9.2201858,8.9421761 9.2648737,8.8883288 9.3429695,8.8602091 9.3937316,8.8796877 9.5570686,8.9423668 9.4939977,8.8419008 9.1118568,8.4306944 8.4900195,7.7615596 8.1859449,7.2490394 7.7510205,6.1369902 7.1917856,4.7071028 7.1871661,4.6465594 7.6225984,4.4535122 8.0974274,4.2429991 8.2635231,3.8625853 7.9969877,3.5960472 7.8400852,3.4391447 7.0665021,3.4313847 6.8815779,3.5848582 6.8355009,3.6230977 6.6766686,3.6527129 6.528612,3.6506695 6.1763799,3.6458082 5.7695231,3.8480206 5.2938062,4.2643782 5.0829128,4.448957 4.805155,4.6809247 4.6765667,4.779862 4.0374089,5.2716363 3.4503666,6.5584618 3.4431694,7.4835289 l -0.00482,0.6197176 0.3557455,0.4195172 C 4.2177631,9.0223821 4.5736426,9.3034155 4.92601,9.4166244 5.0683083,9.4623421 5.2307559,9.5397908 5.2870047,9.5887326 5.4860859,9.7619525 5.4653414,9.5944333 5.2487123,9.2795104 4.7689912,8.5821187 4.308978,6.4071386 4.5832007,6.132916 4.7388347,5.977282 5.5975594,6.0326901 5.635761,6.2008311 5.6539474,6.2808738 5.7149157,6.579215 5.7712497,6.8638115 6.01187,8.0794557 6.6716331,9.4634252 7.140768,9.736617 7.2938504,9.8257622 7.3068833,9.8228909 7.2634108,9.7096011 Z M 11.555815,7.5175418 c 0,-0.01398 -0.04517,-0.042754 -0.10038,-0.06394 -0.05756,-0.022088 -0.08352,-0.011244 -0.06086,0.02542 0.03798,0.06146 0.161243,0.090906 0.161243,0.03852 z M 10.48858,6.5562271 C 10.48858,5.0976317 9.9953315,4.1381433 9.0516034,3.7609573 8.8102787,3.6645048 8.5749856,3.5543683 8.5287316,3.5162097 8.3107697,3.3363951 8.247689,3.6046766 8.3832763,4.1348164 8.8071434,5.7921234 10.48858,7.7260232 10.48858,6.5562271 Z m 1.354136,-1.464406 c 0.04805,-0.077738 -0.197921,-0.3755965 -0.259498,-0.3142457 -0.0598,0.059578 0.0758,0.3721892 0.161437,0.3721892 0.03424,0 0.07836,-0.026075 0.09806,-0.057944 z m -0.31924,-1.1063147 c 0.164411,-0.1422983 0.344513,-0.2587241 0.400225,-0.2587241 0.59895,0 1.24914,-0.6800574 1.24914,-1.3065211 0,-0.6144266 -0.06779,-0.6777628 -0.844065,-0.7886786 L 11.809711,1.5574181 11.578959,1.1382666 C 11.072137,0.21764461 10.809451,0.25695001 10.360891,1.3205252 9.9348947,2.3306081 9.8867339,3.4594629 10.258938,3.7102915 c 0.411371,0.2772225 0.48051,0.1431542 0.354463,-0.6873482 -0.03093,-0.2037384 -0.02241,-0.2706697 0.03034,-0.2380845 0.04034,0.02493 0.0566,0.072423 0.03613,0.1055397 -0.02048,0.033116 0.04736,0.060212 0.150723,0.060212 0.51305,0 0.736316,0.4742605 0.395387,0.8398738 -0.246544,0.264397 -0.257031,0.2903084 -0.149338,0.3690543 0.146861,0.1073874 0.101092,0.125212 0.446844,-0.1740319 z"
         id="path579" /><path
         style="fill:#c15e55;stroke-width:0.327624"
         d="M 3.6374378,14.689547 C 3.5546746,14.600244 3.3765473,14.338382 3.2415996,14.107632 2.8943985,13.513945 2.8374355,13.474389 2.3157512,13.464708 1.6219447,13.451832 1.3362151,13.16782 1.3362151,12.49106 c 0,-0.45899 -0.1380644,-0.703959 -0.57236306,-1.015551 -0.44435213,-0.318806 -0.5918954,-0.528876 -0.5918954,-0.842733 0,-0.490353 1.09371316,-1.0489672 2.20873626,-1.128114 C 3.0980032,9.4537459 3.1790004,9.3955094 3.0481843,9.0247371 2.0802658,6.2813639 4.4872606,3.0524018 7.611007,2.9037495 8.3171781,2.8701444 8.3772152,2.8774147 8.7752655,3.0447379 9.4500076,3.3283706 9.4714211,3.3281816 9.5156962,3.0381998 9.9397304,0.26113082 10.90536,-0.673794 11.860555,0.76790716 12.163781,1.2255788 12.18221,1.2361748 12.777454,1.2950983 c 0.552984,0.05474 0.771512,0.3407861 0.839603,1.0990143 l 0.04089,0.4553557 0.51745,0.3933468 c 1.341985,1.0201321 0.538962,2.0472308 -1.782223,2.2795412 -0.557846,0.05583 -0.555333,0.050182 -0.352019,0.7916666 C 12.879096,9.3700061 9.7586394,12.48318 6.4308981,11.911189 5.6950973,11.784715 5.698481,11.783566 5.6390012,12.180207 5.3421773,14.159569 4.3264387,15.432992 3.6374378,14.689547 Z M 4.1952199,14.169976 C 4.3324526,13.868783 4.1496225,12.343841 3.9526653,12.146883 3.8656287,12.059847 3.7657384,11.882131 3.7306868,11.75196 3.6718,11.533271 3.5694112,11.393056 3.3120912,11.178719 c -0.0556,-0.04631 -0.1001269,-0.184585 -0.1001269,-0.310933 0,-0.280057 -0.1235189,-0.803447 -0.2179327,-0.92345 -0.2305845,-0.2930812 -2.36588609,0.36266 -2.42099379,0.743475 -0.0474541,0.327928 0.83087009,0.77209 1.34700989,0.681174 0.6384787,-0.112466 0.8556883,0.06778 0.4355689,0.361446 -0.1218759,0.08519 -0.2080414,0.202085 -0.2090957,0.283662 -0.00174,0.13553 -0.079969,0.205445 -0.3090279,0.276227 -0.2277061,0.07036 -0.062216,0.696403 0.2066476,0.781737 0.069968,0.02221 0.242784,0.0058 0.3840346,-0.03657 0.4467343,-0.133845 0.8168687,0.146952 1.3158151,0.998222 0.1976167,0.33716 0.340092,0.380185 0.4512296,0.136265 z M 5.1127643,10.696161 C 4.8854331,10.450299 4.624272,10.097071 4.5092147,9.8798435 4.4194735,9.7104123 4.4409109,9.716049 4.780479,9.9511695 5.2368431,10.267161 4.8086023,9.7643327 4.1821795,9.2486633 3.6559161,8.8154448 3.5714081,8.7783371 3.6284242,9.0055072 3.7550896,9.5101834 4.9021596,10.906375 5.190121,10.906375 c 0.097028,0 0.083816,-0.0359 -0.077357,-0.210214 z M 7.1752767,9.7967675 C 7.3197917,9.7744956 7.2888017,9.6954565 6.9699251,9.2730031 6.6755744,8.8830399 6.5365733,8.5778583 6.653309,8.5778583 c 0.1080734,0 0.692768,0.6528715 0.7382553,0.8243399 0.072127,0.2718746 1.5244125,-0.093474 1.8286215,-0.4600221 0.044688,-0.053847 0.1275572,-0.080135 0.1841542,-0.058417 0.068071,0.026121 0.087132,0.013963 0.056306,-0.03591 -0.028209,-0.045658 0.018215,-0.1049337 0.117751,-0.1502799 0.3099587,-0.141227 0.84931,-1.1377055 0.799495,-1.4771104 -0.01668,-0.1137178 3.27e-4,-0.1950905 0.04104,-0.1952944 0.141101,-7.077e-4 0.07593,-1.147303 -0.106593,-1.8753998 C 10.18384,4.6371798 9.5802087,3.9722287 9.0516034,3.7609573 8.8102787,3.6645048 8.5783077,3.5571248 8.536113,3.5223352 8.4858685,3.4809083 8.4155309,3.4825563 8.3322816,3.527111 8.2425682,3.5751245 8.1444611,3.5739788 7.9988486,3.5232172 7.7626839,3.4408907 7.0035885,3.4835982 6.8800053,3.5861644 6.8347932,3.6236856 6.6766686,3.652713 6.528612,3.6506696 6.1763799,3.6458083 5.7695231,3.8480207 5.2938062,4.2643783 5.0829128,4.4489571 4.805155,4.6809248 4.6765667,4.7798621 4.0374089,5.2716364 3.4503666,6.5584619 3.4431694,7.4835289 l -0.00482,0.6197176 0.3557455,0.4195172 c 0.4236708,0.4996184 0.7795503,0.7806518 1.1319177,0.8938607 0.1422983,0.045718 0.3047459,0.1231664 0.3609947,0.1721082 0.056249,0.048942 0.1184555,0.0728 0.1382374,0.053018 0.019782,-0.019782 0.1338457,0.024791 0.253475,0.099051 0.20535,0.1274704 0.8710234,0.1523639 1.4965596,0.055966 z M 11.555815,7.5175418 c 0,-0.01398 -0.04517,-0.042754 -0.10038,-0.06394 -0.05756,-0.022088 -0.08352,-0.011244 -0.06086,0.02542 0.03798,0.06146 0.161243,0.090906 0.161243,0.03852 z m 0.286901,-2.4257207 c 0.04805,-0.077738 -0.197921,-0.3755965 -0.259498,-0.3142457 -0.0598,0.059578 0.0758,0.3721892 0.161437,0.3721892 0.03424,0 0.07836,-0.026075 0.09806,-0.057944 z m -0.31924,-1.1063147 c 0.164411,-0.1422983 0.344513,-0.2587241 0.400225,-0.2587241 0.59895,0 1.24914,-0.6800574 1.24914,-1.3065211 0,-0.6144266 -0.06779,-0.6777628 -0.844065,-0.7886786 L 11.809711,1.5574181 11.578959,1.1382666 C 11.072137,0.21764461 10.809451,0.25695001 10.360891,1.3205252 9.9348947,2.3306081 9.8867339,3.4594629 10.258938,3.7102915 c 0.411371,0.2772225 0.48051,0.1431542 0.354463,-0.6873482 -0.03093,-0.2037384 -0.02241,-0.2706697 0.03034,-0.2380845 0.04034,0.02493 0.0566,0.072423 0.03613,0.1055397 -0.02048,0.033116 0.04736,0.060212 0.150723,0.060212 0.51305,0 0.736316,0.4742605 0.395387,0.8398738 -0.246544,0.264397 -0.257031,0.2903084 -0.149338,0.3690543 0.146861,0.1073874 0.101092,0.125212 0.446844,-0.1740319 z"
         id="path578" /><path
         style="fill:#5a709d;stroke-width:0.327624"
         d="M 3.6374378,14.689547 C 3.5546746,14.600244 3.3765473,14.338382 3.2415996,14.107632 2.8943985,13.513945 2.8374355,13.474389 2.3157512,13.464708 1.6219447,13.451832 1.3362151,13.16782 1.3362151,12.49106 c 0,-0.45899 -0.1380644,-0.703959 -0.57236306,-1.015551 -0.44435213,-0.318806 -0.5918954,-0.528876 -0.5918954,-0.842733 0,-0.490353 1.09371316,-1.0489672 2.20873626,-1.128114 C 3.0980032,9.4537459 3.1790004,9.3955094 3.0481843,9.0247371 2.0802658,6.2813639 4.4872606,3.0524018 7.611007,2.9037495 8.3171781,2.8701444 8.3772152,2.8774147 8.7752655,3.0447379 9.4500076,3.3283706 9.4714211,3.3281816 9.5156962,3.0381998 9.9397304,0.26113082 10.90536,-0.673794 11.860555,0.76790716 12.163781,1.2255788 12.18221,1.2361748 12.777454,1.2950983 c 0.552984,0.05474 0.771512,0.3407861 0.839603,1.0990143 l 0.04089,0.4553557 0.51745,0.3933468 c 1.341985,1.0201321 0.538962,2.0472308 -1.782223,2.2795412 -0.557846,0.05583 -0.555333,0.050182 -0.352019,0.7916666 C 12.879096,9.3700061 9.7586394,12.48318 6.4308981,11.911189 5.6950973,11.784715 5.698481,11.783566 5.6390012,12.180207 5.3421773,14.159569 4.3264387,15.432992 3.6374378,14.689547 Z M 4.3295931,14.188936 C 4.6679283,13.950903 4.7421394,13.806934 5.1092404,12.676422 5.4163173,11.730759 5.0692961,11.301869 4.4350861,11.843221 4.0434703,12.177498 3.984938,12.180514 3.8818117,11.871731 3.7961153,11.615138 3.8154265,11.56605 3.9561293,11.682822 4.2137405,11.896621 4.5246805,11.318439 4.3001111,11.0432 4.2174617,10.941903 4.1192164,10.806812 4.0817886,10.743 4.0209078,10.639201 3.9878296,10.658594 3.767841,10.927061 3.560737,11.179804 3.5025952,11.21679 3.3992949,11.161505 3.2014548,11.055625 3.2394644,10.747615 3.4706885,10.582969 3.8121525,10.339825 3.61862,9.9844925 3.0999997,9.9023715 2.1921534,9.7586192 0.56004292,10.25466 0.56004292,10.674331 c 0,0.361664 0.84937298,0.842347 1.37081708,0.775782 0.3650582,-0.0466 0.3802829,0.02181 0.031354,0.140881 -0.1931414,0.06591 -0.2077812,0.09328 -0.2421254,0.452767 -0.076037,0.795877 0.1164121,1.095054 0.6645156,1.033043 0.5543005,-0.06271 0.9130438,0.189367 1.3593875,0.955202 0.1985862,0.340733 0.2896585,0.365139 0.5856027,0.156929 z m 1.647896,-3.074285 C 5.959437,10.980181 5.8431959,10.652733 5.719141,10.386989 5.3370932,9.5685772 5.3358541,9.5345472 5.6958404,9.746944 5.9297641,9.8849626 6.8376009,9.9092032 7.1005521,9.784452 7.1792641,9.747109 7.3882684,9.913585 7.9414062,10.454209 8.9159801,11.406735 9.2548353,11.388538 10.286639,10.328262 10.889674,9.7085881 10.890601,9.752757 10.267014,9.3930705 9.9850638,9.2304428 9.6723006,9.0267821 9.5719821,8.9404918 L 9.3895839,8.7835997 9.5661667,8.7031434 C 9.8868552,8.557027 10.428782,7.5671622 10.377895,7.2204588 10.359483,7.0949546 10.37724,7.025514 10.427841,7.025514 c 0.08464,0 0.827615,0.3452443 1.016628,0.4724005 C 11.815425,7.7474741 11.719447,6.271219 11.315883,5.5201158 10.847728,4.648796 9.3060266,3.5185915 8.5953933,3.5257529 8.2288146,3.5294472 8.1403495,3.5276465 7.5319153,3.5041244 6.8376009,3.4772806 6.0961185,3.6649 5.6653461,3.9764303 4.5888765,4.7549191 4.3817154,4.9441005 4.0503992,5.4512145 2.7294453,7.4730715 3.3338749,10.117091 5.3472957,11.124364 c 0.6090354,0.304689 0.6722341,0.303714 0.6301967,-0.0097 z M 11.842716,5.0918211 c 0.04805,-0.077738 -0.197921,-0.3755965 -0.259498,-0.3142457 -0.0598,0.059578 0.0758,0.3721892 0.161437,0.3721892 0.03424,0 0.07836,-0.026075 0.09806,-0.057944 z m -0.31924,-1.1063147 c 0.164411,-0.1422983 0.344513,-0.2587241 0.400225,-0.2587241 0.59895,0 1.24914,-0.6800574 1.24914,-1.3065211 0,-0.6108666 -0.06221,-0.670479 -0.822,-0.7877034 -0.449582,-0.069364 -0.51683,-0.098414 -0.623229,-0.2692148 -0.46883,-0.75262404 -0.537563,-0.83952177 -0.680014,-0.85976928 -0.7005,-0.099566 -1.4105727,2.78761208 -0.78866,3.20671778 0.411371,0.2772225 0.48051,0.1431542 0.354463,-0.6873482 -0.03093,-0.2037384 -0.02241,-0.2706697 0.03034,-0.2380845 0.04034,0.02493 0.0566,0.072423 0.03613,0.1055397 -0.02048,0.033116 0.03504,0.060212 0.123344,0.060212 0.166347,0 0.516522,0.2533448 0.621627,0.4497374 0.04688,0.087601 0.0023,0.1743484 -0.201941,0.3934388 -0.243756,0.2614065 -0.253984,0.2869819 -0.146258,0.3657519 0.146861,0.1073874 0.101092,0.125212 0.446844,-0.1740319 z"
         id="path577" /><path
         style="fill:#44353c;stroke-width:0.327624"
         d="m 3.7471925,14.756838 c -0.079157,-0.05722 -0.2492938,-0.284817 -0.3780809,-0.505761 -0.4614571,-0.791664 -0.49702,-0.822143 -0.9592998,-0.822143 -0.7846695,0 -0.9586887,-0.155201 -1.0342673,-0.922426 C 1.3136743,11.878445 1.2630377,11.789534 0.75800919,11.422207 -0.34129584,10.622641 0.41295931,9.7288313 2.3421643,9.544948 3.2246427,9.4608337 3.2463226,9.4406229 3.0412557,8.8932254 1.8951394,5.8338269 5.9311237,1.8915655 8.9234434,3.1476319 9.5263833,3.4007239 9.493503,3.4290051 9.6711081,2.5044988 10.11308,0.20386473 11.02911,-0.57176789 11.783645,0.71574709 12.031614,1.1388743 12.18872,1.2483062 12.622986,1.3003846 c 0.699199,0.083851 0.937942,0.3606218 0.937942,1.0873539 0,0.4167115 0.08729,0.5502407 0.577218,0.8829434 1.333437,0.9055186 0.271037,2.2024878 -1.804141,2.2024878 -0.504152,0 -0.533615,0.061713 -0.355105,0.7438316 0.247051,0.9440418 0.209443,1.4926659 -0.175145,2.5549 C 10.974224,11.063075 8.7253782,12.313331 6.2765281,11.844788 5.6800925,11.730671 5.7015614,11.715839 5.5738109,12.330272 5.1664586,14.289484 4.4384698,15.256579 3.7471925,14.756838 Z M 4.2698642,14.237107 C 4.6996826,13.894649 4.7349491,13.829077 5.1092404,12.676422 5.4163173,11.730759 5.0692961,11.301869 4.4350861,11.843221 4.0434703,12.177498 3.984938,12.180514 3.8818117,11.871731 3.7961153,11.615138 3.8154265,11.56605 3.9561293,11.682822 4.2137405,11.896621 4.5246805,11.318439 4.3001111,11.0432 4.2174617,10.941903 4.1192164,10.806812 4.0817886,10.743 4.0209078,10.639201 3.9878296,10.658594 3.767841,10.927061 3.560737,11.179804 3.5025952,11.21679 3.3992949,11.161505 3.2014548,11.055625 3.2394644,10.747615 3.4706885,10.582969 3.8121525,10.339825 3.61862,9.9844925 3.0999997,9.9023715 2.2059339,9.7608012 0.57105109,10.256578 0.50835692,10.688284 c -0.0452763,0.311767 0.90105738,0.824046 1.40870548,0.762575 0.3762201,-0.04556 0.3972774,0.01987 0.04515,0.140281 -0.2811523,0.09614 -0.3744682,0.783457 -0.1693312,1.247203 l 0.1255773,0.283889 0.4392946,-0.04329 c 0.6186466,-0.06096 0.9325912,0.181652 1.4495022,1.120155 0.1334404,0.242274 0.1994272,0.247695 0.4626089,0.03801 z m 3.5544033,-2.754221 c 0.2558351,-0.03866 0.5614168,-0.125983 0.6790667,-0.194043 0.1176498,-0.06806 0.2777368,-0.1236 0.3557474,-0.123424 0.4868922,0.0011 1.4396894,-0.681188 1.8972814,-1.3586213 0.434941,-0.6439009 0.509895,-0.7726644 0.649001,-1.11492 C 11.619427,8.1651986 11.721557,7.1477798 11.624043,6.5134485 11.318982,4.5290562 8.9196692,2.9851654 6.9415561,3.5003988 c -0.20487,0.053362 -0.4310847,0.097021 -0.5027033,0.097021 -0.2292813,0 -0.7888467,0.3090189 -1.2217769,0.6747257 C 4.9858414,4.4674756 4.696826,4.7084643 4.5748194,4.8076764 2.341931,6.623398 3.3376167,10.832926 6.131538,11.389122 c 0.8789961,0.174985 1.0811927,0.186185 1.6927295,0.09376 z M 12.720074,5.0516075 C 14.585877,4.7471964 14.886964,4.1293564 13.617086,3.2109215 13.273539,2.9624542 13.247824,2.9038977 13.242068,2.3570053 13.237088,1.8832485 13.112037,1.7051651 12.733205,1.6323107 11.740772,1.4414511 11.840944,1.4916395 11.580069,1.0545555 11.448725,0.83448875 11.297703,0.6034978 11.244471,0.54124232 10.806411,0.02895174 10.100781,1.2743437 10.007608,2.7242266 9.95009,3.6192858 9.931707,3.5547572 10.313157,3.7966657 c 0.359135,0.227757 0.436051,0.1837869 0.494319,-0.282589 0.06418,-0.5136611 0.11151,-0.555861 0.387422,-0.3454122 0.292657,0.2232204 0.29001,0.2807403 -0.02716,0.5904583 -0.290016,0.283195 -0.303757,0.3281393 -0.151677,0.4961849 0.138991,0.1535835 0.294557,0.1503816 0.393533,-0.0081 0.04341,-0.069511 0.137729,-0.1578549 0.2096,-0.1963188 0.18579,-0.09943 0.172603,0.048822 -0.03103,0.3488901 -0.26474,0.3901152 -0.08456,0.8500379 0.307984,0.7861644 0.115205,-0.018746 0.485978,-0.079197 0.823935,-0.1343362 z"
         id="path576" /></g></g></svg>
