<?xml version="1.0" encoding="UTF-8" standalone="no"?>
<!-- Created with Inkscape (http://www.inkscape.org/) -->

<svg
   width="15mm"
   height="15mm"
   viewBox="0 0 15 15"
   version="1.1"
   id="svg1"
   inkscape:version="1.4.3 (0d15f75, 2025-12-25)"
   sodipodi:docname="energy-drink.svg"
   xml:space="preserve"
   xmlns:inkscape="http://www.inkscape.org/namespaces/inkscape"
   xmlns:sodipodi="http://sodipodi.sourceforge.net/DTD/sodipodi-0.dtd"
   xmlns="http://www.w3.org/2000/svg"
   xmlns:svg="http://www.w3.org/2000/svg"><sodipodi:namedview
     id="namedview1"
     pagecolor="#ffffff"
     bordercolor="#000000"
     borderopacity="0.25"
     inkscape:showpageshadow="2"
     inkscape:pageopacity="0.0"
     inkscape:pagecheckerboard="0"
     inkscape:deskcolor="#d1d1d1"
     inkscape:document-units="mm"
     inkscape:zoom="11.983754"
     inkscape:cx="53.113575"
     inkscape:cy="32.919568"
     inkscape:window-width="2560"
     inkscape:window-height="1369"
     inkscape:window-x="2552"
     inkscape:window-y="-8"
     inkscape:window-maximized="1"
     inkscape:current-layer="layer1" /><defs
     id="defs1" /><g
     inkscape:label="Ebene 1"
     inkscape:groupmode="layer"
     id="layer1"><g
       id="g14"
       transform="matrix(0.9999742,0,0,0.9999742,1.9348275e-4,1.9348235e-4)"><path
         id="path1"
         style="fill:#ffffff;stroke-width:0.413912"
         d="M 8.4666667,0.00155029 C 7.9484143,-0.02082097 7.6483651,0.17218214 7.4166016,0.5736084 7.3016374,0.77273228 7.0276328,1.052372 6.8073364,1.1952759 6.4341829,1.4373368 6.2454365,1.7242136 4.0524658,5.3857178 2.7578164,7.5473381 1.5878913,9.5788016 1.4526245,9.9001709 1.1840159,10.538337 1.1813634,11.458321 1.4459066,12.059729 c 0.081895,0.186178 0.3933145,0.582967 0.6919474,0.882117 0.4252076,0.425942 0.8237716,0.698631 1.8381307,1.257287 1.2169009,0.670206 1.3427385,0.717613 2.0794596,0.779798 0.6716778,0.0567 0.8916428,0.01331 1.5332398,-0.301274 L 8.3374756,14.310238 10.846366,9.9652832 13.355257,5.619812 13.427604,4.9469849 c 0.03984,-0.3701662 0.137658,-0.7860994 0.217558,-0.9244914 0.2856,-0.4946728 -0.01342,-1.272127 -0.84646,-2.2008993 C 12.413541,1.392171 12.325798,1.3432203 10.827246,0.72088623 9.7216168,0.26172912 8.9849191,0.02392156 8.4666667,0.00155029 Z"
         sodipodi:nodetypes="ssssssssscccccssss" /><path
         style="fill:#97a0a3;stroke-width:0.413912"
         d="M 2.1376568,12.941951 C 1.8390239,12.642801 1.5276826,12.245714 1.4457874,12.059536 1.1812442,11.458128 1.1842612,10.538179 1.4528698,9.9000133 1.5881366,9.578644 2.7580685,7.5471076 4.0527179,5.3854873 6.2456886,1.7239831 6.4340133,1.437505 6.8071668,1.1954441 7.0274632,1.0525402 7.3017674,0.77269921 7.4167316,0.57357533 7.8802587,-0.22927718 8.6158754,-0.19752298 10.827134,0.72079124 12.325686,1.3431253 12.413699,1.3922667 12.79886,1.8216899 c 0.833041,0.9287723 1.131954,1.7059997 0.846354,2.2006725 -0.0799,0.138392 -0.177869,0.554485 -0.217707,0.9246512 l -0.07243,0.6730292 -2.508706,4.3452062 -2.5087055,4.345206 -0.7490534,0.36727 C 6.9470151,14.992307 6.7270554,15.0355 6.0553776,14.978805 5.3186565,14.91662 5.1928137,14.869443 3.9759128,14.199237 2.9615537,13.640581 2.5628633,13.367893 2.1376557,12.941951 Z M 5.0588652,6.7348323 C 6.3348945,4.6921037 6.634268,4.1283546 6.4860403,4.0473223 6.3729957,3.9855258 3.7003314,8.5112169 3.811848,8.5756011 3.851116,8.5982725 4.4122737,7.7699264 5.0588652,6.7348323 Z M 7.004733,3.4774626 C 7.1149642,3.2865365 6.9584119,2.9943767 6.7934379,3.0831411 6.6391866,3.1661364 6.6229397,3.4964168 6.7689615,3.5807225 6.8416252,3.6226749 6.9477223,3.5762079 7.004733,3.4774626 Z m 4.151191,1.4144299 c 0.905227,0.1933106 1.367314,0.1976802 1.4734,0.013933 0.02914,-0.050465 -0.04091,-0.075723 -0.155668,-0.056128 -0.114753,0.019595 -0.25575,-0.022532 -0.313325,-0.093616 C 11.993107,4.549625 10.562599,4.0171348 10.656369,4.1962492 10.700742,4.281006 10.862572,4.423696 11.015992,4.513338 11.23909,4.6436924 11.25752,4.6863682 11.108047,4.7264928 10.98361,4.7598973 10.479221,4.5393077 9.5986509,4.0663725 8.2165185,3.3240593 8.1504851,3.4506189 9.4992425,4.2568974 10.057851,4.5908301 10.45003,4.7411495 11.155924,4.8918925 Z M 8.0244508,2.8953795 C 8.0220066,2.8138664 8.1213015,2.7362146 8.2451065,2.7228199 8.4469244,2.7009847 8.4495106,2.6716499 8.2701079,2.4391924 8.1600543,2.2965922 7.9052394,2.0710601 7.7038524,1.9380098 7.3913595,1.7315552 7.3216443,1.7239011 7.2281808,1.8857846 7.1577626,2.0077524 7.2029914,2.2030857 7.354874,2.4329446 7.626581,2.8441457 8.0312955,3.1236568 8.0244508,2.8953795 Z M 8.2810075,0.75486419 c 0.011335,-0.0803944 -0.040992,-0.039474 -0.1162833,0.0909339 -0.075291,0.13040774 -0.084566,0.19618401 -0.020609,0.14617116 0.063956,-0.0500133 0.125558,-0.1567106 0.1368923,-0.23710506 z M 10.238816,2.1587128 C 10.469404,2.0346446 10.291752,1.8260479 9.7615375,1.5982977 8.9720308,1.2591702 8.9785387,1.5200392 9.7718562,2.011919 9.9608957,2.1291292 10.171028,2.1951862 10.238816,2.1587128 Z m 1.204991,0.2008962 c 0.03012,-0.052163 0.03593,-0.1057093 0.01293,-0.118989 -0.023,-0.01328 -0.09284,0.0033 -0.155197,0.036853 -0.06236,0.03355 -0.06817,0.087096 -0.01293,0.118989 0.05524,0.031894 0.12508,0.01531 0.155197,-0.036853 z"
         id="path9" /><path
         style="fill:#5b9ac5;stroke-width:0.413912"
         d="M 2.4025584,13.012117 C 1.6491475,12.31604 1.3978197,11.865604 1.352986,11.131051 L 1.3136925,10.487267 3.868774,6.0617361 6.4238557,1.6362047 6.9529461,1.2652244 C 7.2439456,1.0611851 7.5710366,0.74105346 7.6798151,0.55382074 8.0537863,-0.08986013 8.7031622,-0.02663778 10.813172,0.85889055 l 1.530279,0.64222735 0.478964,0.569794 c 0.669688,0.7966874 0.883374,1.3570664 0.701584,1.8398606 -0.08026,0.2131526 -0.181336,0.6909009 -0.224615,1.0616639 l -0.07869,0.6741143 -2.542318,4.3422717 -2.542317,4.3422716 -0.7456766,0.30378 C 6.318386,15.071593 5.6344041,14.965923 4.0826612,14.123856 3.3208543,13.710457 2.748458,13.331698 2.402557,13.012116 Z m 3.5570261,1.420025 c 0.2736223,0.03805 0.5199295,0.03033 0.5473497,-0.01717 0.050825,-0.08803 -0.060502,-0.13163 -1.168619,-0.457651 C 4.527725,13.71884 3.7987637,13.294509 2.9714539,12.579565 2.6077703,12.265278 2.2414115,11.968413 2.157323,11.919864 c -0.2828066,-0.163278 -0.08741,0.186921 0.3602543,0.645668 0.5965716,0.61134 2.7282429,1.767351 3.4420076,1.866609 z M 4.256073,8.1997943 C 4.6547802,7.630154 5.4347215,6.369593 5.9892754,5.3985475 6.5438294,4.427502 7.0538929,3.6026972 7.1227511,3.5656484 7.2929362,3.4740799 7.1662439,3.0513575 6.9272628,2.9133817 6.7633561,2.8187501 6.7198919,2.8475484 6.6467979,3.0992093 6.5992251,3.2630078 5.9363727,4.4635734 5.1737957,5.7671345 3.6719875,8.3343523 2.8046689,10.04742 3.2700239,9.5273388 3.4136436,9.3668298 3.8573656,8.7694349 4.256073,8.1997943 Z m 6.878613,-3.1173662 c 1.06498,0.2833604 1.590306,0.2225068 1.710207,-0.1981103 0.07054,-0.2474443 0.04223,-0.3125915 -0.157585,-0.3626413 C 12.553346,4.4881212 12.170715,4.3914667 11.837016,4.3068888 11.503318,4.2223108 10.741633,3.9025846 10.144384,3.5963861 9.2131366,3.1189525 8.9802115,2.9560379 8.5089567,2.4525203 7.8024494,1.6976447 7.445377,1.4891359 7.1613084,1.6655752 6.2948312,2.2037573 8.9737631,4.5074688 11.134686,5.0824281 Z m 0.55335,-1.2840976 c 0.206775,-0.00373 0.0098,-0.143501 -1.031582,-0.7320721 C 9.1745914,2.228747 8.6631582,1.8347694 8.4463828,1.3637514 8.259306,0.95726361 8.3616975,0.73766416 8.711772,0.79456941 9.0968928,0.8571716 11.201638,1.6847639 11.353335,1.83324 11.425265,1.903644 11.643001,1.9817398 11.837192,2.0067876 12.452655,2.086173 12.032106,1.7695707 10.732717,1.1753042 9.4105891,0.57063851 8.37508,0.32974598 8.1157146,0.56650581 7.8833239,0.77864226 7.9031802,1.143453 8.1643752,1.4605331 8.9558939,2.4214044 8.9808324,2.441462 10.283407,3.1648254 c 0.691597,0.3840675 1.250806,0.6362772 1.404629,0.6335051 z m 1.22121,0.140795 c 0.09873,-0.026456 0.237548,-0.148612 0.308473,-0.2714576 0.10374,-0.1796834 0.05261,-0.3278874 -0.261502,-0.7579669 -0.427525,-0.5853667 -0.763412,-0.8420243 -0.809078,-0.6182328 -0.01587,0.077776 0.105901,0.2211342 0.270603,0.3185748 0.193543,0.1145043 0.336194,0.3142635 0.403322,0.5647896 0.08795,0.3282182 0.0695,0.40897 -0.120368,0.5268992 -0.176592,0.1096839 -0.197328,0.1548072 -0.0976,0.2123852 0.06965,0.040211 0.207415,0.051465 0.30615,0.025008 z M 10.402903,2.1550401 C 10.491595,2.0417356 10.548439,1.893999 10.529221,1.8267361 10.498817,1.7203183 9.8830784,1.4513578 9.1068426,1.2054285 8.4608342,1.0007579 8.9500361,1.6768149 9.7574544,2.1045473 10.18679,2.3319891 10.259913,2.3377094 10.402903,2.1550401 Z m 1.867017,1.1830101 c 0.171069,-0.011325 0.183881,-0.045056 0.09662,-0.2543709 -0.119253,-0.2860451 -0.279445,-0.3050754 -0.426339,-0.050648 -0.115774,0.2005255 0.01939,0.3255629 0.329722,0.3050185 z M 11.46217,2.5545356 c 0.158679,-0.058728 0.194972,-0.1168242 0.158352,-0.2534872 -0.05829,-0.217552 -0.431197,-0.2309671 -0.613644,-0.022076 -0.1566,0.1792979 0.174285,0.3795645 0.45529,0.2755629 z"
         id="path8" /><path
         style="fill:#d1ab3c;stroke-width:0.413912"
         d="M 2.4025584,13.012117 C 1.6491475,12.31604 1.3978197,11.865604 1.352986,11.131051 L 1.3136925,10.487267 3.868774,6.0617361 6.4238557,1.6362047 6.9529461,1.2652244 C 7.2439456,1.0611851 7.5710366,0.74105346 7.6798151,0.55382074 8.0537863,-0.08986013 8.7031622,-0.02663778 10.813172,0.85889055 l 1.530279,0.64222735 0.478964,0.569794 c 0.669688,0.7966874 0.883374,1.3570664 0.701584,1.8398606 -0.08026,0.2131526 -0.181336,0.6909009 -0.224615,1.0616639 l -0.07869,0.6741143 -2.542318,4.3422717 -2.542317,4.3422716 -0.7456766,0.30378 C 6.318386,15.071593 5.6344041,14.965923 4.0826612,14.123856 3.3208543,13.710457 2.748458,13.331698 2.402557,13.012116 Z m 3.5570261,1.420025 c 0.2736223,0.03805 0.5199295,0.03033 0.5473497,-0.01717 0.050825,-0.08803 -0.060502,-0.13163 -1.168619,-0.457651 C 4.527725,13.71884 3.7987637,13.294509 2.9714539,12.579565 2.6077703,12.265278 2.2414115,11.968413 2.157323,11.919864 c -0.2828066,-0.163278 -0.08741,0.186921 0.3602543,0.645668 0.5965716,0.61134 2.7282429,1.767351 3.4420076,1.866609 z M 3.0459954,10.497307 C 3.2930801,10.070116 4.353178,8.2979275 5.4017715,6.5591125 7.5318511,3.0269323 7.4247896,3.3214862 6.779723,2.7680184 L 6.4853015,2.5154045 4.2449014,6.4463969 2.0045012,10.377389 2.1404368,10.800314 c 0.2110364,0.656579 0.3840191,0.598697 0.9055586,-0.303007 z m 1.7918578,1.500779 c 0.3537586,0.128856 1.1262048,0.01995 1.6496673,-0.232581 0.4539875,-0.219017 0.7992044,-0.7454 0.7496882,-1.143117 -0.031754,-0.255055 -0.072561,-0.254966 -0.9819257,0.0021 -1.1429666,0.323149 -2.0159297,0.805403 -1.9678292,1.087094 0.017788,0.104173 0.084644,0.187838 0.1485681,0.185921 0.063924,-0.0019 0.2447482,0.04333 0.4018313,0.100546 z M 10.806418,5.7633943 C 10.972637,5.7817078 10.921541,5.7383666 10.636647,5.6193908 10.41249,5.5257795 10.13279,5.3942168 10.015092,5.3270292 9.8973938,5.2598409 9.7761627,5.2480528 9.7456905,5.3008323 9.6851017,5.4057751 10.403341,5.7189846 10.806418,5.7633943 Z m 0.328268,-0.6809662 c 1.06498,0.2833604 1.590306,0.2225068 1.710207,-0.1981103 0.07054,-0.2474443 0.04223,-0.3125915 -0.157585,-0.3626413 C 12.553346,4.4881212 12.170715,4.3914667 11.837016,4.3068888 11.503318,4.2223108 10.741633,3.9025846 10.144384,3.5963861 9.2131366,3.1189525 8.9802115,2.9560379 8.5089567,2.4525203 7.8024494,1.6976447 7.445377,1.4891359 7.1613084,1.6655752 6.2948312,2.2037573 8.9737631,4.5074688 11.134686,5.0824281 Z m 0.55335,-1.2840976 c 0.206775,-0.00373 0.0098,-0.143501 -1.031582,-0.7320721 C 9.1745914,2.228747 8.6631582,1.8347694 8.4463828,1.3637514 8.259306,0.95726361 8.3616975,0.73766416 8.711772,0.79456941 9.0968928,0.8571716 11.201638,1.6847639 11.353335,1.83324 11.425265,1.903644 11.643001,1.9817398 11.837192,2.0067876 12.452655,2.086173 12.032106,1.7695707 10.732717,1.1753042 9.4105891,0.57063851 8.37508,0.32974598 8.1157146,0.56650581 7.8833239,0.77864226 7.9031802,1.143453 8.1643752,1.4605331 8.9558939,2.4214044 8.9808324,2.441462 10.283407,3.1648254 c 0.691597,0.3840675 1.250806,0.6362772 1.404629,0.6335051 z m 1.22121,0.140795 c 0.09873,-0.026456 0.237548,-0.148612 0.308473,-0.2714576 0.10374,-0.1796834 0.05261,-0.3278874 -0.261502,-0.7579669 -0.427525,-0.5853667 -0.763412,-0.8420243 -0.809078,-0.6182328 -0.01587,0.077776 0.105901,0.2211342 0.270603,0.3185748 0.193543,0.1145043 0.336194,0.3142635 0.403322,0.5647896 0.08795,0.3282182 0.0695,0.40897 -0.120368,0.5268992 -0.176592,0.1096839 -0.197328,0.1548072 -0.0976,0.2123852 0.06965,0.040211 0.207415,0.051465 0.30615,0.025008 z M 10.402903,2.1550401 C 10.491595,2.0417356 10.548439,1.893999 10.529221,1.8267361 10.498817,1.7203183 9.8830784,1.4513578 9.1068426,1.2054285 8.4608342,1.0007579 8.9500361,1.6768149 9.7574544,2.1045473 10.18679,2.3319891 10.259913,2.3377094 10.402903,2.1550401 Z m 1.867017,1.1830101 c 0.171069,-0.011325 0.183881,-0.045056 0.09662,-0.2543709 -0.119253,-0.2860451 -0.279445,-0.3050754 -0.426339,-0.050648 -0.115774,0.2005255 0.01939,0.3255629 0.329722,0.3050185 z M 11.46217,2.5545356 c 0.158679,-0.058728 0.194972,-0.1168242 0.158352,-0.2534872 -0.05829,-0.217552 -0.431197,-0.2309671 -0.613644,-0.022076 -0.1566,0.1792979 0.174285,0.3795645 0.45529,0.2755629 z"
         id="path7" /><path
         style="fill:#5c88a8;stroke-width:0.413912"
         d="M 2.4025584,13.012117 C 1.6491475,12.31604 1.3978197,11.865604 1.352986,11.131051 L 1.3136925,10.487267 3.868774,6.0617361 6.4238557,1.6362047 6.9529461,1.2652244 C 7.2439456,1.0611851 7.5710366,0.74105346 7.6798151,0.55382074 8.0537863,-0.08986013 8.7031622,-0.02663778 10.813172,0.85889055 l 1.530279,0.64222735 0.478964,0.569794 c 0.669688,0.7966874 0.883374,1.3570664 0.701584,1.8398606 -0.08026,0.2131526 -0.181336,0.6909009 -0.224615,1.0616639 l -0.07869,0.6741143 -2.542318,4.3422717 -2.542317,4.3422716 -0.7456766,0.30378 C 6.318386,15.071593 5.6344041,14.965923 4.0826612,14.123856 3.3208543,13.710457 2.748458,13.331698 2.402557,13.012116 Z m 3.5570261,1.420025 c 0.2736223,0.03805 0.5199295,0.03033 0.5473497,-0.01717 0.050825,-0.08803 -0.060502,-0.13163 -1.168619,-0.457651 C 4.527725,13.71884 3.7987637,13.294509 2.9714539,12.579565 2.6077703,12.265278 2.2414115,11.968413 2.157323,11.919864 c -0.2828066,-0.163278 -0.08741,0.186921 0.3602543,0.645668 0.5965716,0.61134 2.7282429,1.767351 3.4420076,1.866609 z M 3.0459954,10.497307 C 3.2930801,10.070116 4.353178,8.2979275 5.4017715,6.5591125 7.5318511,3.0269323 7.4247896,3.3214862 6.779723,2.7680184 L 6.4853015,2.5154045 4.2449014,6.4463969 2.0045012,10.377389 2.1404368,10.800314 c 0.2110364,0.656579 0.3840191,0.598697 0.9055586,-0.303007 z m 1.7918578,1.500779 c 0.3537586,0.128856 1.1262048,0.01995 1.6496673,-0.232581 0.4539875,-0.219017 0.7992044,-0.7454 0.7496882,-1.143117 -0.031754,-0.255055 -0.072561,-0.254966 -0.9819257,0.0021 -1.1429666,0.323149 -2.0159297,0.805403 -1.9678292,1.087094 0.017788,0.104173 0.084644,0.187838 0.1485681,0.185921 0.063924,-0.0019 0.2447482,0.04333 0.4018313,0.100546 z M 7.2800489,9.3710875 C 7.9141913,9.1057129 8.4618444,8.8386885 8.4970561,8.7777001 8.5632397,8.6630666 8.3849771,8.465269 7.9189696,8.1362633 7.6911308,7.9754082 7.6741023,7.9113311 7.8088372,7.7218636 7.896495,7.5985959 8.1409604,7.2560435 8.3520922,6.9606356 L 8.7359679,6.4235304 8.3742547,6.5417764 C 7.6245329,6.7868646 5.626877,7.6162054 5.5766348,7.7032276 5.5478441,7.7530945 5.705296,7.8992707 5.9265281,8.0280645 6.5646134,8.399522 6.5686401,8.4742496 5.9943094,9.2840582 L 5.4940546,9.9894198 5.8105589,9.921503 C 5.9846363,9.884149 6.6459067,9.6364618 7.2800489,9.3710875 Z M 10.806418,5.7633943 C 10.972637,5.7817078 10.921541,5.7383666 10.636647,5.6193908 10.41249,5.5257795 10.13279,5.3942168 10.015092,5.3270292 9.8973938,5.2598409 9.7761627,5.2480528 9.7456905,5.3008323 9.6851017,5.4057751 10.403341,5.7189846 10.806418,5.7633943 Z m 0.328268,-0.6809662 c 1.06498,0.2833604 1.590306,0.2225068 1.710207,-0.1981103 0.07054,-0.2474443 0.04223,-0.3125915 -0.157585,-0.3626413 C 12.553346,4.4881212 12.170715,4.3914667 11.837016,4.3068888 11.503318,4.2223108 10.741633,3.9025846 10.144384,3.5963861 9.2131366,3.1189525 8.9802115,2.9560379 8.5089567,2.4525203 7.8024494,1.6976447 7.445377,1.4891359 7.1613084,1.6655752 6.2948312,2.2037573 8.9737631,4.5074688 11.134686,5.0824281 Z m 0.55335,-1.2840976 c 0.206775,-0.00373 0.0098,-0.143501 -1.031582,-0.7320721 C 9.1745914,2.228747 8.6631582,1.8347694 8.4463828,1.3637514 8.259306,0.95726361 8.3616975,0.73766416 8.711772,0.79456941 9.0968928,0.8571716 11.201638,1.6847639 11.353335,1.83324 11.425265,1.903644 11.643001,1.9817398 11.837192,2.0067876 12.452655,2.086173 12.032106,1.7695707 10.732717,1.1753042 9.4105891,0.57063851 8.37508,0.32974598 8.1157146,0.56650581 7.8833239,0.77864226 7.9031802,1.143453 8.1643752,1.4605331 8.9558939,2.4214044 8.9808324,2.441462 10.283407,3.1648254 c 0.691597,0.3840675 1.250806,0.6362772 1.404629,0.6335051 z m 1.22121,0.140795 c 0.09873,-0.026456 0.237548,-0.148612 0.308473,-0.2714576 0.10374,-0.1796834 0.05261,-0.3278874 -0.261502,-0.7579669 -0.427525,-0.5853667 -0.763412,-0.8420243 -0.809078,-0.6182328 -0.01587,0.077776 0.105901,0.2211342 0.270603,0.3185748 0.193543,0.1145043 0.336194,0.3142635 0.403322,0.5647896 0.08795,0.3282182 0.0695,0.40897 -0.120368,0.5268992 -0.176592,0.1096839 -0.197328,0.1548072 -0.0976,0.2123852 0.06965,0.040211 0.207415,0.051465 0.30615,0.025008 z M 10.402903,2.1550401 C 10.491595,2.0417356 10.548439,1.893999 10.529221,1.8267361 10.498817,1.7203183 9.8830784,1.4513578 9.1068426,1.2054285 8.4608342,1.0007579 8.9500361,1.6768149 9.7574544,2.1045473 10.18679,2.3319891 10.259913,2.3377094 10.402903,2.1550401 Z m 1.867017,1.1830101 c 0.171069,-0.011325 0.183881,-0.045056 0.09662,-0.2543709 -0.119253,-0.2860451 -0.279445,-0.3050754 -0.426339,-0.050648 -0.115774,0.2005255 0.01939,0.3255629 0.329722,0.3050185 z M 11.46217,2.5545356 c 0.158679,-0.058728 0.194972,-0.1168242 0.158352,-0.2534872 -0.05829,-0.217552 -0.431197,-0.2309671 -0.613644,-0.022076 -0.1566,0.1792979 0.174285,0.3795645 0.45529,0.2755629 z"
         id="path6" /><path
         style="fill:#356da2;stroke-width:0.413912"
         d="M 2.4115888,13.020255 C 1.6549859,12.320509 1.3774946,11.781755 1.3804832,11.018347 L 1.3830328,10.367166 3.9107018,5.989115 6.4383707,1.6110639 6.9456203,1.2800522 C 7.2328137,1.092641 7.5469552,0.78608075 7.6697445,0.57340343 7.837268,0.28324429 7.9670372,0.18619398 8.2400208,0.14691186 8.7702864,0.070607 9.1778184,0.18647467 10.844301,0.88734905 l 1.520904,0.63964835 0.468087,0.5568543 c 0.668685,0.7954944 0.862468,1.3214697 0.671231,1.8218803 -0.08545,0.2236002 -0.178468,0.6423841 -0.206703,0.9306324 -0.04887,0.498864 -0.175311,0.7390485 -2.627138,4.9903158 L 8.0948777,14.292905 7.5660803,14.556331 C 6.8376172,14.919221 6.5977238,14.954833 5.8195327,14.815604 4.9489082,14.659837 3.172537,13.724022 2.4115848,13.020253 Z m 3.191728,1.325859 c 0.357475,0.09882 0.7482618,0.153726 0.8684146,0.122011 0.2985841,-0.07881 0.1966065,-0.129477 -1.1474445,-0.57007 C 4.2355797,13.541165 4.2023931,13.52299 3.2972102,12.787897 2.7910728,12.376867 2.295533,11.959841 2.1960099,11.861173 1.9384034,11.605778 1.866159,11.820485 2.1076856,12.123669 c 0.651627,0.817976 2.3722092,1.911884 3.4956312,2.222445 z M 3.147583,10.49991 C 4.0301721,8.9726281 5.1515313,7.2883647 5.4542416,7.035294 5.6499925,6.8716434 5.741029,6.7246516 5.7462087,6.5638722 5.7546486,6.301853 7.0176531,3.9645301 7.2053776,3.8635247 7.449508,3.73217 7.3791074,3.3882656 7.0025402,2.8726707 6.7900618,2.5817459 6.5859253,2.3518327 6.5489037,2.3617526 c -0.037022,0.00992 -1.1087145,1.826286 -2.38154,4.0363688 l -2.3142268,4.0183336 0.1219144,0.354914 c 0.067053,0.195202 0.2380959,0.42199 0.3800951,0.503973 l 0.2581801,0.149061 z m 0.078874,0.835888 c 0.045175,-0.07825 0.065363,-0.151946 0.044862,-0.163783 -0.0205,-0.01184 -0.098801,0.02831 -0.1740009,0.08923 -0.075199,0.06091 -0.095388,0.134611 -0.044862,0.163783 0.050526,0.02917 0.1288263,-0.01098 0.1740009,-0.08922 z m 1.5813471,0.68222 c 0.1199858,0.14236 1.204953,-0.01841 1.6758598,-0.248335 0.4261579,-0.208071 0.8291642,-0.771564 0.7535753,-1.053666 -0.0583,-0.217578 0.1858591,-0.346313 0.3267969,-0.172308 0.06699,0.08271 0.1208586,0.08036 0.1388652,-0.006 0.01618,-0.07764 -0.050369,-0.204472 -0.147888,-0.281839 -0.4169765,-0.3308107 -3.3493269,0.976943 -3.2673291,1.457146 0.020268,0.118693 0.1042866,0.188857 0.2338545,0.195291 0.111222,0.0055 0.2400415,0.05491 0.2862654,0.109758 z M 7.2800489,9.3710875 C 7.9141913,9.1057129 8.4618444,8.8386885 8.4970561,8.7777001 8.5632397,8.6630666 8.3849771,8.465269 7.9189696,8.1362633 7.6911308,7.9754082 7.6741023,7.9113311 7.8088372,7.7218636 7.896495,7.5985959 8.1409604,7.2560435 8.3520922,6.9606356 L 8.7359679,6.4235304 8.3742547,6.5417764 C 7.6245329,6.7868646 5.626877,7.6162054 5.5766348,7.7032276 5.5478441,7.7530945 5.705296,7.8992707 5.9265281,8.0280645 6.5646134,8.399522 6.5686401,8.4742496 5.9943094,9.2840582 L 5.4940546,9.9894198 5.8105589,9.921503 C 5.9846363,9.884149 6.6459067,9.6364618 7.2800489,9.3710875 Z M 5.6108478,8.7391095 C 5.6815404,8.6166663 5.2033075,8.2003287 5.0027657,8.2097285 c -0.1511774,0.00709 -0.099167,0.066404 0.4937527,0.5631346 0.035157,0.029455 0.086605,0.014266 0.1143294,-0.033754 z M 9.3707096,6.7583847 C 9.3995579,6.6533263 9.3369187,6.7167457 9.2315114,6.8993165 9.126104,7.0818874 9.1025008,7.1678444 9.1790599,7.0903317 9.255619,7.0128192 9.3418613,6.863443 9.3707096,6.7583847 Z M 10.602038,5.7340922 c 0.242896,0.09127 0.46522,0.1250847 0.494054,0.075143 0.03084,-0.05342 -0.108445,-0.1473747 -0.338328,-0.2282155 C 10.542849,5.5054426 10.254206,5.3893711 10.116334,5.3230825 9.6701504,5.1085589 9.6122065,5.0939765 9.5606685,5.1832431 c -0.0686,0.1188191 0.1947865,0.3516048 0.4186532,0.3700128 0.099598,0.00819 0.3798203,0.089566 0.6227163,0.1808363 z M 9.4144506,5.1581518 c -0.01332,-0.04971 -0.093176,-0.1003079 -0.1774576,-0.1124386 -0.093139,-0.013405 -0.08364,0.022043 0.024218,0.090383 0.097602,0.061841 0.1665597,0.071766 0.1532396,0.022056 z M 7.9042543,4.1097281 C 7.6266643,3.8040397 7.4730282,3.7153378 7.4774656,3.8633215 c 0.00212,0.070777 0.1425021,0.2030573 0.3119559,0.2939587 0.2942319,0.1578369 0.2993998,0.155697 0.1148328,-0.047552 z M 11.29106,5.1665195 C 12.132944,5.358343 12.6566,5.2966394 12.836888,4.9843704 13.028396,4.6526703 12.879139,4.5336954 11.979339,4.3008036 10.443485,3.9032847 9.3530855,3.2606549 8.1173967,2.0247577 7.6374229,1.5447029 7.594526,1.5201893 7.3329478,1.5764803 5.8589403,1.8936832 8.855485,4.6115731 11.29106,5.1665195 Z m 0.231344,-1.3877748 c 0.211541,0.04309 0.42957,0.069385 0.484509,0.058433 0.05494,-0.010952 -0.655485,-0.4560275 -1.57872,-0.9890575 C 9.0109576,2.0298792 8.7173857,1.8260675 8.5427974,1.539188 8.0460017,0.72286586 8.4236532,0.65674649 10.048681,1.2755373 c 1.343647,0.5116445 1.537149,0.6684407 1.107212,0.8971849 -0.296587,0.1577963 -0.263144,0.3019389 0.09365,0.4036466 0.31684,0.090318 0.497959,-0.1290708 0.361561,-0.4379591 -0.08436,-0.1910429 -0.07027,-0.2044892 0.161015,-0.1536748 0.171575,0.037696 0.281196,0.141779 0.339304,0.3221647 0.0491,0.1524136 0.180273,0.2923916 0.306455,0.3270175 0.525609,0.1442342 0.52431,1.160272 -0.0015,1.1622773 -0.178893,6.822e-4 -0.19409,0.01758 -0.07858,0.087371 0.251124,0.1517297 0.729718,0.044239 0.867786,-0.1949016 C 13.375614,3.394187 13.21752,3.0966962 12.479478,2.3222941 11.977921,1.7960287 11.757756,1.6404128 10.997655,1.2749196 9.8189267,0.70813011 8.7617656,0.38489757 8.3768095,0.47358219 7.3302282,0.71468925 8.1040462,1.9138792 10.043011,3.0557049 c 0.602126,0.3545821 1.267853,0.67995 1.479393,0.7230398 z M 10.402903,2.1550401 c 0.08869,-0.1133045 0.145884,-0.263391 0.12709,-0.3335273 C 10.483844,1.6492834 9.1023223,1.1270798 8.8468934,1.1853153 8.67603,1.2242708 8.6863027,1.2767445 8.910936,1.512447 9.0580885,1.6668506 9.4176965,1.9209509 9.7100647,2.0771143 10.18944,2.3331646 10.25748,2.3408172 10.402903,2.1550401 Z m 1.929757,1.2043891 c 0.119066,-0.064064 0.01932,-0.4754854 -0.137183,-0.5658429 -0.08606,-0.049688 -0.381205,0.2504906 -0.352311,0.3583226 0.0393,0.1466614 0.354358,0.2802308 0.489494,0.2075203 z"
         id="path5" /><path
         style="fill:#575f62;stroke-width:0.413912"
         d="M 2.4115888,13.020255 C 1.6549859,12.320509 1.3774946,11.781755 1.3804832,11.018347 L 1.3830328,10.367166 3.9107018,5.989115 6.4383707,1.6110639 6.9456203,1.2800522 C 7.2328137,1.092641 7.5469552,0.78608075 7.6697445,0.57340343 7.837268,0.28324429 7.9670372,0.18619398 8.2400208,0.14691186 8.7702864,0.070607 9.1778184,0.18647467 10.844301,0.88734905 l 1.520904,0.63964835 0.468087,0.5568543 c 0.668685,0.7954944 0.862468,1.3214697 0.671231,1.8218803 -0.08545,0.2236002 -0.178468,0.6423841 -0.206703,0.9306324 -0.04887,0.498864 -0.175311,0.7390485 -2.627138,4.9903158 L 8.0948777,14.292905 7.5660803,14.556331 C 6.8376172,14.919221 6.5977238,14.954833 5.8195327,14.815604 4.9489082,14.659837 3.172537,13.724022 2.4115848,13.020253 Z m 3.191728,1.325859 c 0.357475,0.09882 0.7482618,0.153726 0.8684146,0.122011 0.2985841,-0.07881 0.1966065,-0.129477 -1.1474445,-0.57007 C 4.2355797,13.541165 4.2023931,13.52299 3.2972102,12.787897 2.7910728,12.376867 2.295533,11.959841 2.1960099,11.861173 1.9384034,11.605778 1.866159,11.820485 2.1076856,12.123669 c 0.651627,0.817976 2.3722092,1.911884 3.4956312,2.222445 z m 0.027679,-0.932794 c 0.80164,0.320495 1.8902417,0.59526 2.0558687,0.518905 C 7.8221926,13.869838 12.363405,6.0887069 12.358571,5.9274982 12.356534,5.8595592 12.187984,5.7879368 11.9617,5.7588548 11.745369,5.731052 11.026162,5.4912724 10.363463,5.2260115 8.8684,4.6275776 7.5889606,3.7303951 7.0476287,2.900846 6.8664745,2.6232413 6.6453336,2.3845519 6.5562042,2.370425 6.4209702,2.3489906 6.0179326,2.9963688 4.1208781,6.2821636 L 1.8476054,10.219587 1.942981,10.65672 c 0.072192,0.330875 0.2266708,0.555785 0.6355163,0.925265 0.6499772,0.587394 2.0660154,1.436941 3.0524985,1.831335 z M 4.4493509,10.366294 C 4.615205,10.131684 4.9867132,9.6651027 5.274921,9.3294462 5.5631293,8.9937895 5.7881056,8.6787424 5.7748689,8.6293422 5.7616321,8.579942 5.5609081,8.3906212 5.3288158,8.2086298 4.9926182,7.9450058 4.9241199,7.8345749 4.9918777,7.6654279 5.0889801,7.4230273 8.1570626,5.9803898 9.0241601,5.7694156 9.7551411,5.5915601 9.755535,5.7816026 9.0264316,6.8654059 8.3842041,7.8200696 8.3908672,7.9314424 9.1152402,8.3496594 9.4599993,8.5487062 9.486797,8.5966159 9.3682358,8.80197 9.2953016,8.9282956 8.8928675,9.1999799 8.4739377,9.4057129 7.3725759,9.946582 4.4554802,10.970498 4.2892883,10.874547 4.1778989,10.810237 4.211953,10.702103 4.4493509,10.366294 Z M 7.2800489,9.3710875 C 7.9141913,9.1057129 8.4618444,8.8386885 8.4970561,8.7777001 8.5632397,8.6630666 8.3849771,8.465269 7.9189696,8.1362633 7.6911308,7.9754082 7.6741023,7.9113311 7.8088372,7.7218636 7.896495,7.5985959 8.1409604,7.2560435 8.3520922,6.9606356 L 8.7359679,6.4235304 8.3742547,6.5417764 C 7.6245329,6.7868646 5.626877,7.6162054 5.5766348,7.7032276 5.5478441,7.7530945 5.705296,7.8992707 5.9265281,8.0280645 6.5646134,8.399522 6.5686401,8.4742496 5.9943094,9.2840582 L 5.4940546,9.9894198 5.8105589,9.921503 C 5.9846363,9.884149 6.6459067,9.6364618 7.2800489,9.3710875 Z M 11.29106,5.1665195 C 12.132944,5.358343 12.6566,5.2966394 12.836888,4.9843704 13.028396,4.6526703 12.879139,4.5336954 11.979339,4.3008036 10.443485,3.9032847 9.3530855,3.2606549 8.1173967,2.0247577 7.6374229,1.5447029 7.594526,1.5201893 7.3329478,1.5764803 5.8589403,1.8936832 8.855485,4.6115731 11.29106,5.1665195 Z m 0.231344,-1.3877748 c 0.211541,0.04309 0.42957,0.069385 0.484509,0.058433 0.05494,-0.010952 -0.655485,-0.4560275 -1.57872,-0.9890575 C 9.0109576,2.0298792 8.7173857,1.8260675 8.5427974,1.539188 8.0460017,0.72286586 8.4236532,0.65674649 10.048681,1.2755373 c 1.343647,0.5116445 1.537149,0.6684407 1.107212,0.8971849 -0.296587,0.1577963 -0.263144,0.3019389 0.09365,0.4036466 0.31684,0.090318 0.497959,-0.1290708 0.361561,-0.4379591 -0.08436,-0.1910429 -0.07027,-0.2044892 0.161015,-0.1536748 0.171575,0.037696 0.281196,0.141779 0.339304,0.3221647 0.0491,0.1524136 0.180273,0.2923916 0.306455,0.3270175 0.525609,0.1442342 0.52431,1.160272 -0.0015,1.1622773 -0.178893,6.822e-4 -0.19409,0.01758 -0.07858,0.087371 0.251124,0.1517297 0.729718,0.044239 0.867786,-0.1949016 C 13.375614,3.394187 13.21752,3.0966962 12.479478,2.3222941 11.977921,1.7960287 11.757756,1.6404128 10.997655,1.2749196 9.8189267,0.70813011 8.7617656,0.38489757 8.3768095,0.47358219 7.3302282,0.71468925 8.1040462,1.9138792 10.043011,3.0557049 c 0.602126,0.3545821 1.267853,0.67995 1.479393,0.7230398 z M 10.402903,2.1550401 c 0.08869,-0.1133045 0.145884,-0.263391 0.12709,-0.3335273 C 10.483844,1.6492834 9.1023223,1.1270798 8.8468934,1.1853153 8.67603,1.2242708 8.6863027,1.2767445 8.910936,1.512447 9.0580885,1.6668506 9.4176965,1.9209509 9.7100647,2.0771143 10.18944,2.3331646 10.25748,2.3408172 10.402903,2.1550401 Z m 1.929757,1.2043891 c 0.119066,-0.064064 0.01932,-0.4754854 -0.137183,-0.5658429 -0.08606,-0.049688 -0.381205,0.2504906 -0.352311,0.3583226 0.0393,0.1466614 0.354358,0.2802308 0.489494,0.2075203 z"
         id="path4" /><path
         style="fill:#2f4a5f;stroke-width:0.413912"
         d="M 2.4361563,12.923668 C 1.7018252,12.240447 1.4760658,11.819821 1.4558267,11.097155 L 1.4374813,10.442112 3.9626812,6.0766984 6.4878813,1.7112846 7.0323804,1.3301432 C 7.3318551,1.1205155 7.6535599,0.81715093 7.7472799,0.65599954 7.8557181,0.46950358 8.0331765,0.34210533 8.2353861,0.30552777 c 0.3173856,-0.0574114 0.317424,-0.057367 0.037907,0.0438576 -1.0336533,0.3743293 -0.1856802,1.71645253 1.8138739,2.87089533 0.834133,0.4815875 1.150836,0.6103004 1.772957,0.720558 0.41658,0.07383 0.883674,0.1070661 1.037986,0.073858 0.357642,-0.076964 0.544988,-0.3994813 0.433349,-0.74603 C 13.24277,2.9933451 12.17586,1.7776441 11.838135,1.5670853 11.656631,1.4539238 11.658231,1.4515759 11.904766,1.469319 c 0.342168,0.024625 1.046273,0.7659187 1.397859,1.471688 0.216061,0.4337202 0.240358,0.6133747 0.124521,0.9207111 -0.07916,0.2100149 -0.17933,0.6851954 -0.222609,1.0559582 L 13.125849,5.5917907 10.586626,9.9287028 8.0474031,14.265615 7.3412449,14.564516 C 6.3315033,14.991919 5.6957152,14.882003 4.0895701,14.002364 3.3646961,13.60537 2.7092469,13.177752 2.4361499,12.923664 Z M 5.90769,14.533459 c 0.5473863,0.123133 0.900717,0.04749 0.8398163,-0.179798 C 6.7337363,14.302271 6.2662982,14.120208 5.7087577,13.949077 4.4525562,13.563503 3.8850336,13.240053 2.8485275,12.318934 1.8806827,11.458831 1.9801449,11.52322 1.8819913,11.693227 c -0.1011405,0.17518 0.100237,0.506274 0.6163065,1.013294 0.5493514,0.539719 2.6202634,1.649427 3.4093916,1.826939 z M 5.6309956,13.41332 c 0.80164,0.320495 1.8902417,0.59526 2.0558687,0.518905 C 7.8221926,13.869838 12.363405,6.0887069 12.358571,5.9274982 12.356534,5.8595592 12.187984,5.7879368 11.9617,5.7588548 11.745369,5.731052 11.025226,5.4908976 10.361382,5.2251785 8.8028908,4.6013559 7.7386573,3.8378377 7.1328613,2.908925 6.9145576,2.5741836 6.6824606,2.268704 6.6170898,2.2300811 6.5229026,2.1744327 6.007374,3.0218953 4.1332152,6.3132501 l -2.3650177,4.1533929 0.1431123,0.33297 c 0.2934887,0.68284 2.1460272,1.984561 3.7196868,2.613708 z M 4.3468367,10.490385 C 4.4462405,10.318213 4.8231274,9.8528388 5.1843629,9.4562208 5.5831226,9.0184034 5.8183463,8.6927066 5.7830986,8.6271964 5.7511683,8.5678495 5.5409444,8.3749447 5.315936,8.1985158 4.9920646,7.9445691 4.9245493,7.8335032 4.9918777,7.6654279 5.0889801,7.4230273 8.1570626,5.9803898 9.0241601,5.7694156 9.7381568,5.5956927 9.7387014,5.7784401 9.0273266,6.8315483 8.3907245,7.7739636 8.3976825,7.9353773 9.0921813,8.3363463 9.4613378,8.549479 9.4880243,8.5944902 9.3682358,8.80197 9.2953016,8.9282956 8.8928675,9.1999799 8.4739377,9.4057129 7.4024193,9.9319261 4.457433,10.971626 4.2984419,10.879832 4.211947,10.829894 4.2287119,10.694983 4.3468367,10.490385 Z M 5.8131934,10.078832 C 6.4933413,9.8803417 8.6570735,8.9385985 8.7322864,8.8083259 8.8191274,8.657913 8.6354453,8.4520177 8.1796624,8.1888713 L 7.7970023,7.9679425 8.2070245,7.4143187 C 9.1384614,6.1566671 9.0867109,6.0699612 7.7401158,6.6320306 7.1944408,6.8597956 6.4489021,7.1569595 6.0833633,7.2923948 5.2157978,7.6138346 5.168281,7.7143292 5.7295081,8.0407708 6.4858079,8.4806707 6.4740467,8.5497334 5.4308427,9.7948539 5.101006,10.188532 5.195871,10.25899 5.8131934,10.078832 Z M 10.764091,5.1140851 c 0.892966,0.2922476 1.793353,0.3293457 2.031316,0.083695 C 12.906997,5.082585 12.993904,4.8950208 12.988532,4.7809707 12.976981,4.5356841 12.739531,4.407494 11.85377,4.1683564 11.49274,4.0708856 10.777074,3.7827339 10.263401,3.5280191 9.4615673,3.1304142 9.211102,2.9507032 8.4928384,2.2576252 8.0327023,1.8136235 7.5880426,1.4395421 7.5047059,1.4263333 7.286302,1.3917166 6.8558179,1.6840558 6.8233255,1.8890543 6.7059641,2.6295115 9.0607641,4.5566252 10.764091,5.1140851 Z M 10.148974,2.4821428 c 0.176291,-5.568e-4 0.277434,-0.09756 0.429603,-0.4120175 0.1771,-0.3659783 0.225392,-0.4006967 0.438338,-0.3151475 0.219395,0.08814 0.219375,0.1179853 -2.38e-4,0.3585975 -0.193669,0.2121875 -0.216845,0.3111656 -0.121008,0.5167702 0.191277,0.4103527 0.04857,0.4527436 -0.481017,0.1428839 C 10.019354,2.5419404 9.965305,2.4827228 10.148974,2.4821428 Z m 1.148638,0.6782529 c 0.130209,0.015402 0.352352,0.090751 0.493651,0.1674417 0.386524,0.209787 0.612259,0.2168629 0.724356,0.022705 0.05551,-0.096153 0.05136,-0.2614471 -0.0092,-0.3673198 -0.06059,-0.1058725 -0.06079,-0.1657221 -4.5e-4,-0.1329994 0.06034,0.032721 0.162625,0.1973344 0.227298,0.3658035 0.100245,0.2611322 0.08614,0.3179455 -0.09563,0.38522 C 12.387424,3.6938428 11.741219,3.5450053 11.341851,3.3028 11.100321,3.1563189 11.09411,3.1363237 11.297612,3.1603957 Z M 8.4819627,1.0376936 c -0.00197,-0.065885 0.05526,-0.12155698 0.127191,-0.12371329 0.07193,-0.002157 0.092367,0.0626158 0.045415,0.14393879 -0.096182,0.1665925 -0.1672542,0.1582644 -0.172606,-0.020225 z m 3.2256633,1.3947278 0.193405,-0.3527941 0.05074,0.3204197 c 0.05544,0.3500804 -0.0552,0.5178075 -0.288247,0.4369643 -0.105777,-0.036694 -0.09292,-0.1546401 0.0441,-0.4045881 z"
         id="path3" /></g></g></svg>
