<?xml version="1.0" encoding="UTF-8" standalone="no"?>
<!-- Created with Inkscape (http://www.inkscape.org/) -->

<svg
   width="15mm"
   height="15mm"
   viewBox="0 0 15 15"
   version="1.1"
   id="svg1"
   inkscape:version="1.4.3 (0d15f75, 2025-12-25)"
   sodipodi:docname="handtuch.svg"
   xml:space="preserve"
   xmlns:inkscape="http://www.inkscape.org/namespaces/inkscape"
   xmlns:sodipodi="http://sodipodi.sourceforge.net/DTD/sodipodi-0.dtd"
   xmlns="http://www.w3.org/2000/svg"
   xmlns:svg="http://www.w3.org/2000/svg"><sodipodi:namedview
     id="namedview1"
     pagecolor="#ffffff"
     bordercolor="#000000"
     borderopacity="0.25"
     inkscape:showpageshadow="2"
     inkscape:pageopacity="0.0"
     inkscape:pagecheckerboard="0"
     inkscape:deskcolor="#d1d1d1"
     inkscape:document-units="mm"
     inkscape:zoom="11.313709"
     inkscape:cx="32.659493"
     inkscape:cy="40.614444"
     inkscape:window-width="2560"
     inkscape:window-height="1369"
     inkscape:window-x="2552"
     inkscape:window-y="-8"
     inkscape:window-maximized="1"
     inkscape:current-layer="layer1" /><defs
     id="defs1" /><g
     inkscape:label="Ebene 1"
     inkscape:groupmode="layer"
     id="layer1"><g
       id="g7"><path
         id="path1"
         style="fill:#ffffff;stroke-width:0.443781"
         d="M 7.8418986,0.91880697 C 7.0601263,0.93240555 6.267709,1.683892 3.607015,4.3630412 0.49744816,7.4941764 0,8.1513292 0,9.1317424 0,9.3128131 0.02450381,9.504441 0.06821289,9.6970825 c 0.0219716,0.2192247 0.09168828,0.4248875 0.20670573,0.6252845 0.24661868,0.565596 0.62590912,1.050042 0.99838868,1.191659 0.1711291,0.06506 0.3930937,0.192262 0.4929932,0.28267 0.1484164,0.134315 3.0607409,1.238508 5.5133585,2.090312 0.290607,0.100929 0.7642661,0.186068 1.0521322,0.189135 l 0.5234822,0.0052 0.5596558,-0.58136 0.00155,-0.001 c 0.1039007,-0.09007 0.2015672,-0.18517 0.2862874,-0.280603 0.066954,-0.07542 0.1713873,-0.190146 0.2997231,-0.328662 0.0013,-0.0014 0.0018,-0.0017 0.0031,-0.0031 l 0.743107,-0.771529 C 14.857726,7.8477485 15.480497,6.8862453 14.720549,5.9830973 14.412254,5.6167098 14.412197,5.6151191 14.617712,5.159375 14.929522,4.4679043 14.697785,3.5385752 14.072009,2.9708781 13.714823,2.6468424 12.447684,1.9883171 12.180652,1.9879924 12.06676,1.9878538 11.881446,1.9394974 11.769307,1.8805054 11.498323,1.7379505 10.80396,1.5246402 10.251054,1.3952637 10.106327,1.3551892 9.9384348,1.3218768 9.7849325,1.3022461 9.7021891,1.2898918 9.6330627,1.2831258 9.5818441,1.2831258 9.3652923,1.2831258 8.9634316,1.2037782 8.6888753,1.1069092 8.3619072,0.99154808 8.1024894,0.9142741 7.8418986,0.91880697 Z"
         sodipodi:nodetypes="sssccsssccccssccscsssccsss" /><path
         style="fill:#efdab1;stroke-width:0.443781"
         d="M 7.2798589,13.88681 C 4.8272413,13.035006 1.9147523,11.930807 1.7663359,11.796492 1.6664364,11.706084 1.4446856,11.57888 1.2735565,11.513817 0.64648842,11.275406 -3.9602974e-7,10.066285 -3.9602974e-7,9.1318985 -3.9602974e-7,8.1514853 0.49727189,7.4939788 3.6068387,4.3628436 7.1544308,0.79064475 7.3809913,0.6454941 8.688864,1.1069385 c 0.2745563,0.096869 0.6763722,0.1761257 0.892924,0.1761257 0.382171,0 1.775391,0.3803546 2.187681,0.5972452 0.112139,0.058992 0.297067,0.1073706 0.410959,0.1075092 0.267032,3.247e-4 1.534236,0.6588016 1.891422,0.9828373 0.625776,0.5676971 0.857603,1.4974423 0.545793,2.188913 -0.205515,0.4557441 -0.205346,0.4570784 0.102949,0.8234659 0.759948,0.903148 0.137257,1.8644819 -3.971771,6.1317562 l -1.8937991,1.966736 -0.5233933,-0.0056 C 8.0437625,14.07286 7.5704659,13.987739 7.2798589,13.88681 Z M 6.6927733,11.088967 c 0,-0.09583 -0.8553668,-0.420956 -0.9896931,-0.37618 -0.096277,0.03209 0.3671494,0.23672 0.9603388,0.424043 0.016145,0.0051 0.029356,-0.01644 0.029356,-0.04786 z M 8.5049105,9.0437813 C 8.3746621,8.9221795 6.6617961,8.3280897 6.4414445,8.3280897 c -0.3058193,0 0.3552087,0.3487614 1.2006091,0.633447 0.8268592,0.2784415 1.1009917,0.3045709 0.8628569,0.082245 z M 9.976234,8.9072946 C 9.7498968,8.4843823 8.8684276,8.0296356 7.3168831,7.5353481 3.7557921,6.4008635 3.0231472,6.197312 2.9095929,6.3108662 c -0.07478,0.07478 0.022269,0.144262 0.2784172,0.1993347 1.522045,0.3272436 5.6387238,1.8477668 6.322773,2.3353593 C 10.0168,9.2062518 10.145355,9.2233027 9.976234,8.9072946 Z M 2.6629438,7.3481238 c 0.1204178,-0.1204179 -0.09848,-0.311622 -0.3567574,-0.311622 -0.286688,0 -0.5449309,0.2000227 -0.5449309,0.4220779 0,0.1354709 0.7473057,0.043927 0.9016883,-0.1104559 z M 3.9679732,5.5629135 C 3.9481761,5.4584757 4.4588843,4.870514 5.1663513,4.1832626 5.8444351,3.5245548 6.5508246,2.8119704 6.7361059,2.5997418 6.9213872,2.3875131 7.2597352,2.1358405 7.4879909,2.0404693 7.9340593,1.85409 7.9354022,1.680623 7.4898992,1.7924341 6.9010948,1.9402146 3.3036235,5.7449137 3.7526967,5.7449137 c 0.1621585,0 0.2376643,-0.063838 0.2152645,-0.1820002 z M 9.5964018,2.1514614 c -0.039008,-0.039017 -0.1402926,-0.043188 -0.2250512,-0.00927 -0.093668,0.037483 -0.065845,0.065305 0.070939,0.070939 0.1237794,0.0051 0.1931247,-0.022653 0.1541119,-0.06167 z M 8.7563316,2.0017397 C 8.669082,1.8605665 8.2191954,1.7513629 8.2191954,1.8713574 c 0,0.1060245 0.2070065,0.2098678 0.4472439,0.2243567 0.084535,0.0051 0.124987,-0.03719 0.089892,-0.093974 z"
         id="path15"
         sodipodi:nodetypes="sssssssssssssccsssssssssssssssssssscsssssccssssssss" /><path
         style="fill:#dcb78e;stroke-width:0.443781"
         d="m 7.9499263,13.996937 c -0.5724027,-0.08622 -5.881446,-2.021758 -6.2132705,-2.26519 -0.174978,-0.128368 -0.366971,-0.233395 -0.4266511,-0.233395 -0.205835,0 -0.92978984,-0.909788 -1.07565626,-1.351768 C -0.2880676,8.5636487 0.025679,8.0323169 3.6365277,4.3849662 7.0851482,0.90148379 7.3987364,0.69318224 8.5714466,1.1069385 c 0.2745563,0.096869 0.7028317,0.1761257 0.9517224,0.1761257 0.2488902,0 0.651741,0.074578 0.895222,0.1657286 0.24348,0.091151 0.865391,0.2976489 1.382028,0.4588847 2.400088,0.7490399 3.312781,1.8717945 2.721949,3.348425 -0.179536,0.4487078 -0.176936,0.467179 0.102704,0.7298863 0.78788,0.7401753 -0.03466,2.1027257 -3.363217,5.5710712 -0.619763,0.645794 -1.321372,1.3933 -1.5591322,1.661124 -0.398053,0.448386 -1.086622,0.887852 -1.3251468,0.845751 -0.054819,-0.0097 -0.247262,-0.03983 -0.4276497,-0.067 z M 7.5440472,12.861324 C 7.9584828,12.546722 7.3272157,12.220056 4.5792657,11.327116 3.6428644,11.022835 2.7671676,10.704012 2.633273,10.618622 2.499378,10.533232 2.2670049,10.445259 2.1168875,10.423128 1.8328587,10.381253 1.8102543,10.35175 1.43165,9.5287116 L 1.20076,9.0267858 1.7251149,8.4872642 C 2.4137922,7.7786673 2.5933616,7.7982097 5.8708538,8.9384449 9.1801306,10.089738 9.3964748,10.130086 9.1305163,9.546371 8.8901503,9.0188248 8.085205,8.6943693 3.9364922,7.4527765 1.9100349,6.846315 1.9809667,6.8345007 1.2485019,7.9004855 0.30010393,9.2807271 0.71708778,10.452482 2.417894,11.186562 c 3.2288251,1.393584 4.8142252,1.911549 5.1261532,1.674762 z m 0.9099825,-0.935459 c 0,-0.476374 0.1805838,-0.662348 0.6431511,-0.662348 0.4605099,0 0.729104,-0.191899 1.2134642,-0.866976 C 10.813312,9.6959523 10.72665,9.7135353 9.7992097,10.500306 8.8614638,11.295821 9.2710108,11.331173 5.7185672,10.148055 2.4795308,9.0693142 2.3483411,9.039071 2.3483411,9.3711129 c 0,0.2261163 0.983115,0.6558741 3.8908719,1.7008501 1.5125206,0.543562 1.8455291,0.728587 1.9320984,1.073507 0.098801,0.393654 0.2827183,0.250794 0.2827183,-0.219605 z M 9.976234,8.9072946 C 9.7498968,8.4843823 8.8684276,8.0296356 7.3168831,7.5353481 3.7557921,6.4008635 3.0231472,6.197312 2.9095929,6.3108662 c -0.07478,0.07478 0.022269,0.144262 0.2784172,0.1993347 1.522045,0.3272436 5.6387238,1.8477668 6.322773,2.3353593 C 10.0168,9.2062518 10.145355,9.2233027 9.976234,8.9072946 Z M 10.775342,7.0952104 C 10.933914,6.8368927 11.313444,6.3613535 11.618748,6.0384565 14.205162,3.3030008 14.128401,3.1442573 9.6869109,2.0434391 7.2416503,1.4373846 7.61458,1.280036 4.8901867,4.0672989 c -1.3831348,1.4150529 -1.63555,1.795032 -1.1924172,1.795032 0.4076365,0 4.5746725,1.3678733 5.5194714,1.8118243 l 1.0567521,0.4965576 0.106521,-0.302917 c 0.05859,-0.1666044 0.23626,-0.5142679 0.394828,-0.7725854 z M 7.0058858,4.0227964 C 6.8707815,3.8876923 6.9203776,3.7488232 7.1037333,3.7488232 c 0.096869,0 0.1761256,0.079257 0.1761256,0.1761256 0,0.1833555 -0.1388693,0.2329516 -0.2739731,0.097848 z"
         id="path14"
         sodipodi:nodetypes="sssssssssssssssssssscsssssssssssssssssssssssssssscssssss" /><path
         style="fill:#9ea69e;stroke-width:0.443781"
         d="m 7.9499263,13.996937 c -0.5724027,-0.08622 -5.881446,-2.021758 -6.2132705,-2.26519 -0.174978,-0.128368 -0.366971,-0.233395 -0.4266511,-0.233395 -0.205835,0 -0.92978984,-0.909788 -1.07565626,-1.351768 C -0.2880676,8.5636487 0.025679,8.0323169 3.6365277,4.3849662 7.0851482,0.90148379 7.3987364,0.69318224 8.5714466,1.1069385 c 0.2745563,0.096869 0.7028317,0.1761257 0.9517224,0.1761257 0.2488902,0 0.651741,0.074578 0.895222,0.1657286 0.24348,0.091151 0.865391,0.2976489 1.382028,0.4588847 2.400088,0.7490399 3.312781,1.8717945 2.721949,3.348425 -0.179536,0.4487078 -0.176936,0.467179 0.102704,0.7298863 0.78788,0.7401753 -0.03466,2.1027257 -3.363217,5.5710712 -0.619763,0.645794 -1.321372,1.3933 -1.5591322,1.661124 -0.398053,0.448386 -1.086622,0.887852 -1.3251468,0.845751 -0.054819,-0.0097 -0.247262,-0.03983 -0.4276497,-0.067 z M 9.9458084,11.938665 C 13.038989,8.765815 14.515108,6.8788093 14.200467,6.4996903 13.945594,6.1925881 13.783805,6.3188678 11.567611,8.5546715 8.6534543,11.494612 9.4696445,11.364429 4.5622116,9.6720396 3.4872717,9.3013332 2.5229836,9.0305655 2.4193497,9.0703336 2.1142439,9.1874137 2.1950924,9.5770682 2.5538211,9.7184253 c 0.3062964,0.1206961 2.6301203,0.9710617 4.2347814,1.5496497 0.8777822,0.3165 1.3131759,0.630481 1.3131759,0.946986 0,0.340703 -0.2729525,0.385128 -0.7811817,0.127143 C 7.0721631,12.216094 6.0238842,11.813779 4.9910884,11.448169 3.9582921,11.082559 2.9381467,10.680094 2.7240977,10.553802 2.5100488,10.42751 2.2600384,10.32418 2.1685192,10.32418 1.6075333,10.32418 1.5365674,8.9915425 2.074999,8.568012 2.5165142,8.220716 2.0603276,8.1002906 7.948484,10.118518 9.1416832,10.527499 9.6945439,10.056337 8.9247368,9.2865296 8.3872677,8.7490605 2.402786,6.8188446 1.9782707,7.0460383 1.3880706,7.3619037 0.7631385,8.4762451 0.76502502,9.2094244 0.76844213,10.537638 1.1288661,10.845849 3.9334718,11.91888 c 4.5689673,1.748069 4.3282218,1.747277 6.0123366,0.01978 z M 9.9762518,8.9072946 C 9.7498968,8.4843823 8.8684276,8.0296356 7.3168831,7.5353481 3.7557921,6.4008635 3.0231472,6.197312 2.9095929,6.3108662 c -0.07478,0.07478 0.022269,0.144262 0.2784172,0.1993347 1.522045,0.3272436 5.6387238,1.8477668 6.322773,2.3353593 C 10.0168,9.2062518 10.145355,9.2233027 9.976234,8.9072946 Z M 12.444247,6.7468696 C 14.373244,4.5495407 14.494316,4.1260964 13.432428,3.2908158 12.707729,2.720766 8.176193,1.5027758 7.4542046,1.6839833 7.1436581,1.7619256 3.4051131,5.3991251 3.4051131,5.6233112 c 0,0.070935 0.066047,0.1486232 0.1467713,0.1726404 4.973401,1.4796943 5.9817534,1.8634881 6.6047116,2.513853 0.486046,0.5074277 0.446257,0.5346098 2.287651,-1.562935 z"
         id="path13"
         sodipodi:nodetypes="ssssssssssssssssssssssssssssssssssscssssccsssssss" /><path
         style="fill:#ac9474;stroke-width:0.443781"
         d="M 7.8082358,13.881658 C 7.5237233,13.814767 3.9346399,12.542147 2.6797977,12.063212 2.1840152,11.873987 1.7152159,11.643064 1.6380211,11.55005 1.5608267,11.457036 1.4347662,11.380934 1.3578864,11.380934 0.93323804,11.380934 0.31943415,10.330448 0.17381492,9.354472 0.02274161,8.3419423 0.38610383,7.8359714 3.6273179,4.5455741 7.1308736,0.98885413 7.3970948,0.81002005 8.5714466,1.2243556 c 0.2745563,0.096869 0.7285271,0.1761257 1.0088237,0.1761257 0.2802966,0 0.6831477,0.073276 0.8952217,0.1628357 0.212074,0.08956 0.80829,0.2976081 1.324927,0.4623299 2.326575,0.7417968 3.178972,1.7470985 2.653642,3.1296603 l -0.215549,0.56728 0.297325,0.2973229 c 0.355144,0.3551481 0.380098,1.0033566 0.05621,1.4601307 -0.523458,0.7382117 -0.730792,1.0014627 -1.513103,1.9211951 -0.459238,0.5399094 -1.308244,1.4571921 -1.886673,2.0384071 -0.578429,0.581214 -1.127346,1.162429 -1.219817,1.291588 -0.6598027,0.921594 -1.4196177,1.325487 -2.1642172,1.150427 z M 9.9458084,11.938665 C 13.038989,8.765815 14.515108,6.8788093 14.200467,6.4996903 13.945594,6.1925881 13.783805,6.3188678 11.567611,8.5546715 8.7227454,11.424708 9.3512548,11.268323 5.6474052,10.027734 2.5927261,9.0045816 2.2309242,8.9358573 2.2309242,9.3787721 c 0,0.3045914 0.4322858,0.5216128 2.5831758,1.2968369 2.3393829,0.843161 3.0328375,1.161818 3.1189817,1.433234 0.1106351,0.34858 0.023738,0.355518 -0.6645285,0.05306 C 6.9195845,12.008543 5.8414995,11.606931 4.8728087,11.269429 3.9041175,10.931928 2.9945264,10.581178 2.8514948,10.489985 2.7084633,10.398792 2.4588413,10.32418 2.2967791,10.32418 1.6184698,10.32418 1.4579826,9.0533572 2.074999,8.568012 2.4952766,8.2374216 3.3864752,8.4644485 7.3150383,9.9028772 8.6550319,10.393511 8.7880265,10.405988 9.2025012,10.079963 10.093135,9.3793903 8.7763142,8.7231774 3.0909059,7.0343632 1.1070462,6.4450703 -0.26959876,9.5728367 1.4259003,10.817292 c 0.8061808,0.591717 5.8325395,2.42034 6.6898177,2.433801 0.5396729,0.0085 0.5485938,0.0021 1.8300904,-1.312428 z M 12.534273,6.6340625 C 14.25108,4.6908859 14.303837,4.572138 13.827127,3.7239447 13.468951,3.0866589 12.562413,2.6670265 10.332701,2.1063902 9.7837795,1.968369 9.0658255,1.7794951 8.7372526,1.6866704 7.4499296,1.3229909 7.398277,1.3517933 5.0427543,3.7467977 2.9463664,5.8783241 2.9489492,5.8737294 3.7573462,6.0332025 c 2.4770057,0.488641 6.4579398,2.1466025 6.4579398,2.6895737 0,0.065404 -0.145303,-0.017032 -0.3228955,-0.1831884 C 9.3643606,8.0455588 7.8961733,7.4653916 5.8121451,6.9272435 5.2955102,6.7938354 4.4626711,6.5399594 3.9613923,6.3630748 3.2734934,6.1203382 3.0016495,6.0719501 2.8529185,6.1657671 2.5015801,6.3873858 2.5642118,6.5337873 3.0431222,6.6103682 4.7561271,6.8842887 9.3520421,8.6811677 9.7007125,9.213307 l 0.194709,0.2971638 0.5415375,-0.5577476 c 0.297848,-0.3067615 1.241637,-1.3501587 2.097314,-2.3186607 z"
         id="path12"
         sodipodi:nodetypes="ssssssssssscsssssscsssssssssssssssscssssssssssssscss" /><path
         style="fill:#729ea0;stroke-width:0.443781"
         d="M 7.8669441,13.857048 C 7.3014134,13.740781 2.7374378,12.108792 2.2309242,11.841716 2.0048962,11.722535 1.6614514,11.548299 1.4677129,11.454523 0.75512737,11.109609 0.33776187,10.426844 0.18299098,9.3528553 0.03602442,8.3330236 0.39184547,7.8367203 3.6273179,4.5486626 7.1298103,0.98924514 7.3966164,0.80985137 8.5714466,1.2243556 c 0.2745563,0.096869 0.7285271,0.1761257 1.0088237,0.1761257 0.2802966,0 0.6831477,0.073276 0.8952217,0.1628357 0.212074,0.08956 0.80829,0.2976081 1.324927,0.4623299 2.325191,0.7413543 3.219308,1.795453 2.637879,3.1098663 l -0.235674,0.532786 0.295962,0.3089207 c 0.80244,0.8375662 0.170775,1.8265882 -3.803222,5.9548381 -1.8988489,1.972553 -2.0608317,2.082797 -2.8284199,1.92499 z m 2.7879069,-2.513876 c 2.910592,-3.1295609 3.90459,-4.4554856 3.669466,-4.8948161 -0.253896,-0.4744056 -0.563429,-0.2493935 -2.90887,2.1145681 -1.8017955,1.816023 -2.39706,2.348342 -2.6260306,2.348342 -0.2475868,0 -3.7907571,-1.1428474 -5.6045638,-1.8077487 C 2.5522115,8.8716053 2.5262144,8.871493 2.2980194,9.0997008 1.827323,9.5703977 1.903692,9.6185209 4.7953099,10.673345 c 2.8200933,1.028733 3.0716342,1.150432 3.0716342,1.486099 v 0.265334 L 7.2505046,12.15393 C 6.9114629,12.004964 5.8414995,11.605517 4.8728087,11.26627 3.9041175,10.927024 2.9787659,10.55517 2.8164716,10.439929 2.6541773,10.324688 2.3899891,10.211875 2.2293865,10.189234 1.5959235,10.09993 1.6396222,8.8377368 2.2863786,8.543055 2.597573,8.4012652 3.1111117,8.5493079 7.0146851,9.9061505 8.6381092,10.470435 8.966959,10.495662 9.3390917,10.08446 9.93652,9.4243107 8.9548025,8.8542654 5.22506,7.6955985 1.797453,6.6307918 2.1945324,6.6655917 1.5314253,7.3718895 0.21465964,8.7744208 0.31286042,10.37055 1.7612555,11.107482 c 0.958869,0.487865 5.5165727,2.155559 6.2818142,2.298557 0.5012504,0.09367 0.8964423,-0.218467 2.6117813,-2.062855 z M 10.768698,8.708889 C 11.407304,8.2059209 14.207465,4.8607019 14.207465,4.6007579 14.207465,3.360868 12.945769,2.661169 9.0941529,1.7650757 7.3078211,1.3494784 7.3979162,1.305128 4.9104698,3.8245476 3.1072122,5.6509841 2.9943728,5.8546786 3.6986375,6.0121158 6.550462,6.6496364 10.215286,8.1740539 10.215286,8.7227762 c 0,0.065404 -0.145303,-0.017032 -0.3228955,-0.1831884 C 9.3643606,8.0455588 7.8961733,7.4653916 5.8121451,6.9272435 5.2955102,6.7938354 4.4626711,6.5399594 3.9613923,6.3630748 3.2734934,6.1203382 3.0016495,6.0719501 2.8529185,6.1657671 2.5015801,6.3873858 2.5642118,6.5337873 3.0431222,6.6103682 4.7659174,6.8858542 9.3523119,8.6815791 9.7039965,9.2183217 L 9.9019939,9.5204998 10.205411,9.2170312 C 10.372291,9.0501234 10.62577,8.8214594 10.768698,8.708889 Z"
         id="path11"
         sodipodi:nodetypes="sssssssssscsssssssscsscssssssssssssssssssssssssscss" /><path
         style="fill:#89755b;stroke-width:0.443781"
         d="M 7.8669441,13.857048 C 6.2814428,13.531087 1.5447618,11.631115 0.91601312,11.068898 -0.6862449,9.6361865 -0.18201234,8.434748 3.6624094,4.5250401 7.0978772,1.0312308 7.2780297,0.90477141 8.3955762,1.2025553 c 0.4085356,0.1088593 0.9047321,0.197926 1.1026612,0.197926 0.3650943,0 1.6447326,0.3639319 2.3199236,0.6597918 0.2035,0.08917 0.447824,0.1621278 0.542944,0.1621278 0.222654,0 1.235451,0.5514957 1.597306,0.8697765 0.580173,0.5103093 0.770013,1.5162347 0.415521,2.2017464 -0.178941,0.3460346 -0.174615,0.370925 0.11742,0.6757423 0.810584,0.846069 0.188385,1.8233622 -3.795988,5.9623919 -1.8988489,1.972553 -2.0608317,2.082797 -2.8284199,1.92499 z m 2.7879069,-2.513876 c 2.910592,-3.1295609 3.90459,-4.4554856 3.669466,-4.8948161 -0.253896,-0.4744056 -0.563429,-0.2493935 -2.90887,2.1145681 -1.8017955,1.816023 -2.39706,2.348342 -2.6260306,2.348342 -0.24783,0 -3.7872814,-1.1417397 -5.6093789,-1.8094475 C 2.5818734,8.8826213 2.2760039,8.9404184 2.163832,9.2938404 2.0447118,9.669155 2.6473409,9.9619156 6.734601,11.514345 7.6584908,11.865258 8.0072433,12.101694 7.8430935,12.265844 7.8140214,12.294916 7.5153021,12.186075 7.1792773,12.023971 6.843252,11.861867 5.7650413,11.463955 4.7832532,11.139723 3.8014647,10.81549 2.8877225,10.477831 2.7527145,10.38937 2.6177061,10.30091 2.3790255,10.210425 2.222313,10.188294 1.5954296,10.099763 1.6446627,8.8354274 2.2863786,8.5430422 2.597573,8.4012523 3.1111117,8.549295 7.0146851,9.9061377 8.7333495,10.503527 9.0144818,10.50951 9.4226881,9.9573833 9.5600073,9.7716454 9.7223246,9.6196778 9.7833889,9.6196778 c 0.3344111,0 4.4240761,-4.6395435 4.4240761,-5.0189199 0,-1.2398899 -1.261696,-1.9395889 -5.1133121,-2.8356822 C 7.1576349,1.3145369 7.7312655,0.90469592 2.1114601,6.7539901 0.50424414,8.4268376 0.22394221,9.3415549 0.97639886,10.458066 c 0.36838844,0.546622 2.61148644,1.536223 5.89250014,2.59963 1.7415591,0.564455 1.6117611,0.623236 3.785952,-1.714524 z"
         id="path10"
         sodipodi:nodetypes="ssssssssssssssssssssssssssssssssss" /><path
         style="fill:#565248;stroke-width:0.443781"
         d="M 7.2904316,13.663743 C 7.0702185,13.568176 6.2248154,13.258299 5.4117583,12.975129 2.7869771,12.060975 1.9400363,11.726615 1.80702,11.552032 1.735321,11.457928 1.6204904,11.380934 1.5518405,11.380934 c -0.2609091,0 -0.88332323,-0.651565 -1.0956978,-1.147015 C -0.17271025,8.766865 0.16986526,8.1410619 3.3713689,4.9084951 4.7557055,3.5107268 5.964217,2.2587757 6.056949,2.1263816 6.1496815,1.9939875 6.5463096,1.690816 6.9383449,1.4526671 l 0.7127915,-0.4329979 0.841761,0.2392887 c 0.462968,0.1316088 1.0137097,0.2349041 1.2238755,0.2295451 0.2101615,-0.00536 0.5007671,0.04706 0.6457901,0.1164872 0.306555,0.1467551 1.266232,0.4690385 1.825285,0.6129751 1.708083,0.4397717 2.742852,1.7834468 2.219163,2.8816372 -0.265469,0.5566929 -0.253527,0.6713101 0.104857,1.0064494 0.405754,0.3794367 0.33355,0.9643825 -0.204037,1.6530336 -0.964381,1.2353762 -2.332225,2.8121125 -3.14762,3.6283075 -0.487418,0.487899 -1.2272767,1.240836 -1.6441292,1.673194 -0.8393832,0.870606 -1.3133791,0.99906 -2.2256502,0.603156 z M 9.4352071,12.760585 C 14.190091,7.7239409 15.04042,6.5071409 14.047766,6.1601349 13.736405,6.0512905 13.679397,6.0812968 13.265149,6.5720698 13.01941,6.8632017 12.483642,7.3897246 12.074551,7.7421208 L 11.330747,8.3828412 11.797596,7.7977343 C 12.054363,7.4759255 12.641663,6.7857267 13.102712,6.263959 14.26805,4.9451434 14.355506,4.7946766 14.258194,4.2759571 14.074002,3.2941191 12.967594,2.6696369 10.215286,1.9940411 9.6663594,1.8592992 8.9484081,1.6706266 8.6198352,1.5747685 7.4616246,1.2368717 7.3104346,1.3251248 5.0215242,3.6751915 4.0700473,4.6520902 2.8620204,5.8863777 2.3370198,6.4180526 c -2.41364922,2.4443331 -2.40372094,4.1804084 0.028957,5.0630874 0.3454885,0.125357 1.4735637,0.543725 2.5068344,0.929706 3.7155771,1.387962 3.5912536,1.378432 4.5624007,0.349739 z M 6.9863159,11.894637 C 6.5988395,11.73655 5.5796123,11.371204 4.7213662,11.082757 3.8631201,10.79431 3.0441362,10.485496 2.9014016,10.396504 2.7586669,10.307512 2.4988948,10.20157 2.3241298,10.161077 1.6638118,10.008082 1.7912041,8.6675033 2.4737204,8.5869006 2.6354742,8.5678003 4.0120402,8.9772904 5.5327556,9.4968831 9.1030822,10.71678 8.8121526,10.733135 10.3541,9.2258416 10.60872,8.9769421 10.852342,8.8085906 10.895482,8.8517279 10.938618,8.8948634 10.546058,9.3494888 10.023128,9.8620036 8.7829909,11.077438 9.0996802,11.094813 4.7564249,9.5730511 2.7142506,8.8575268 2.3057293,8.7908389 2.117638,9.1422905 1.843639,9.6542626 1.9052842,9.6903451 5.2224798,10.959616 c 1.290169,0.493663 2.396238,0.948045 2.4579311,1.009738 0.2301626,0.230162 -0.01026,0.204282 -0.694095,-0.07472 z"
         id="path9"
         sodipodi:nodetypes="sssssssscsssssssssssssscsssssssssssssssssssssssss" /></g></g></svg>
