<?xml version="1.0" encoding="UTF-8" standalone="no"?>
<!-- Created with Inkscape (http://www.inkscape.org/) -->

<svg
   width="15mm"
   height="15mm"
   viewBox="0 0 15 15"
   version="1.1"
   id="svg1"
   inkscape:version="1.4.3 (0d15f75, 2025-12-25)"
   sodipodi:docname="turbo-schuhe.svg"
   xml:space="preserve"
   xmlns:inkscape="http://www.inkscape.org/namespaces/inkscape"
   xmlns:sodipodi="http://sodipodi.sourceforge.net/DTD/sodipodi-0.dtd"
   xmlns="http://www.w3.org/2000/svg"
   xmlns:svg="http://www.w3.org/2000/svg"><sodipodi:namedview
     id="namedview1"
     pagecolor="#ffffff"
     bordercolor="#000000"
     borderopacity="0.25"
     inkscape:showpageshadow="2"
     inkscape:pageopacity="0.0"
     inkscape:pagecheckerboard="0"
     inkscape:deskcolor="#d1d1d1"
     inkscape:document-units="mm"
     inkscape:zoom="16.947587"
     inkscape:cx="27.93908"
     inkscape:cy="36.966914"
     inkscape:window-width="2560"
     inkscape:window-height="1369"
     inkscape:window-x="2552"
     inkscape:window-y="-8"
     inkscape:window-maximized="1"
     inkscape:current-layer="g3" /><defs
     id="defs1" /><g
     inkscape:label="Ebene 1"
     inkscape:groupmode="layer"
     id="layer1"><g
       id="g2"
       transform="matrix(1.3976792,0,0,1.4113439,-0.94363795,-1.907676)"
       style="stroke-width:0.712"><g
         id="g3"
         transform="matrix(0.90864479,0.90086935,-0.91752835,0.90967689,6.0764184,-6.5892163)"
         style="stroke-width:0.553764"><g
           id="g36"><path
             id="path28"
             style="fill:#ffffff;stroke-width:0.119122"
             d="m 6.4524339,3.531614 c -0.014459,0.016309 -0.028938,0.034552 -0.043342,0.054595 -0.00938,0.013053 -0.018606,0.028036 -0.027881,0.042504 -0.00517,0.00806 -0.010544,0.015096 -0.01567,0.023569 -0.02873,0.047514 -0.056579,0.1011458 -0.082646,0.1591266 -0.037947,0.084406 -0.070549,0.178613 -0.097759,0.27472 -0.00392,0.013746 -0.00857,0.026406 -0.012223,0.04028 -0.00338,0.012964 -0.00566,0.025853 -0.00877,0.038869 -0.011528,0.047555 -0.02139,0.094931 -0.029159,0.1427858 -7.36e-5,4.773e-4 -1.309e-4,9.325e-4 -2.041e-4,0.00141 -0.00635,0.039347 -0.01293,0.078858 -0.016334,0.1176077 -0.017591,0.200285 -0.020776,0.2315342 -0.092203,0.1661795 C 5.9707453,4.4916345 5.8040273,4.4248511 5.7304435,4.4985829 5.697991,4.5311007 5.6674025,4.6100321 5.6412583,4.7149015 5.5612355,4.9316713 5.5267684,5.2796858 5.5717825,5.6655956 c 0.014568,0.124899 0.026966,0.3159906 0.02802,0.4246679 0.00105,0.1086774 0.010931,0.2279807 0.021605,0.2651886 0.00709,0.024706 0.010806,0.040662 0.00363,0.053562 -0.0012,0.00215 -0.00263,0.00403 -0.00448,0.00604 -0.016598,0.0181 -0.061002,0.031938 -0.1592469,0.060701 C 4.7839104,6.674076 4.5022864,7.3901245 4.933698,7.8173593 4.954072,7.8375363 4.976352,7.8996443 4.98303,7.9552681 4.98971,8.0108921 5.036231,8.1098143 5.086402,8.1753045 5.2165175,8.3451479 5.2562453,8.8070255 5.176288,9.2201489 5.153284,9.3390032 5.144002,9.445669 5.155819,9.4573711 c 0.056148,0.055604 0.032837,0.382016 -0.041405,0.5771419 -0.2908736,0.764486 0.1721228,1.313331 0.7877712,1.336234 0.1620921,0.03156 0.3183173,0.0038 0.4913116,-0.09049 0.1680839,-0.06833 0.3361309,-0.176629 0.4938891,-0.330117 l 0.2825911,-0.274623 0.073777,0.05977 c 0.3609522,0.29265 0.6547992,0.300405 1.1380542,0.03057 0.2203706,0 0.8340611,-0.571049 1.2169625,-1.4128732 C 9.669465,9.1975642 9.732241,9.0327121 9.7832767,8.8607397 9.958969,8.2686215 9.8030622,8.305676 10.326482,7.2770832 l 0.05683,-0.1750201 c 0.01592,-0.049016 0.01584,-0.1055004 9.09e-4,-0.1675381 L 10.395631,6.901897 10.360681,6.86124 C 10.261662,6.6093998 9.9564101,6.2863353 9.5234303,5.9930126 9.2684519,5.8202772 9.267561,5.818056 9.356281,5.6505808 9.7201121,4.9637826 9.6038556,3.765593 9.2111432,4.1545033 c -0.032484,0.032169 -0.054612,0.049565 -0.073226,0.043939 -7.756e-4,-2.344e-4 -0.00147,-2.866e-4 -0.00224,-6.028e-4 -0.029788,-0.012331 -0.051158,-0.0873 -0.09338,-0.2633357 C 8.977016,3.662331 8.7814,3.1063422 8.734541,3.0599372 8.717708,3.043267 8.6816065,2.9577244 8.6545355,2.8698914 8.5301311,2.4662477 8.2936176,2.511082 8.125601,2.9702683 8.0858014,3.0790399 8.0218255,3.2399893 7.9832642,3.3277753 7.9447028,3.4155611 7.8780481,3.5924348 7.8352137,3.7207261 7.7912495,3.8524 7.7694143,3.9203198 7.7504962,3.9471106 c -0.00126,0.00179 -0.00242,0.00341 -0.00366,0.00483 -0.019887,0.022827 -0.038155,4.954e-4 -0.078668,-0.039625 -0.00384,-0.0038 -0.008,-0.00752 -0.012397,-0.011068 -7.26e-5,-5.82e-5 -1.304e-4,-1.431e-4 -2.032e-4,-2.013e-4 -0.00398,-0.00321 -0.00824,-0.00627 -0.012602,-0.00926 -1.481e-4,-1.002e-4 -2.579e-4,-3.026e-4 -4.064e-4,-4.025e-4 -0.00892,-0.00607 -0.018806,-0.011458 -0.028864,-0.016496 -0.010314,-0.00517 -0.020826,-0.00974 -0.031712,-0.013675 -8.05e-5,-2.94e-5 -1.228e-4,-1.72e-4 -2.033e-4,-2.013e-4 -0.010795,-0.00389 -0.021794,-0.00712 -0.032528,-0.00965 -0.042204,-0.010332 -0.081266,-0.010085 -0.097605,0.0061 -2.679e-4,2.654e-4 -7.321e-4,6.725e-4 -0.00102,0.00101 -4.905e-4,4.333e-4 -9.643e-4,9.549e-4 -0.00142,0.00141 C 7.4250113,3.8838432 7.3701058,4.0604043 7.3227109,4.2431596 7.2935744,4.347645 7.2665248,4.4536208 7.2501573,4.5327666 7.1856088,4.8448929 7.1602854,4.8467779 7.1086291,4.54372 7.1021231,4.5055504 7.0948518,4.4672022 7.0867346,4.4289529 7.1158588,4.3842246 7.0490443,4.1842102 6.9550291,3.9761519 6.8521825,3.700643 6.7256393,3.4874704 6.6259265,3.44956 c -0.00244,-0.00114 -0.00482,-0.00193 -0.00712,-0.00261 -0.00299,-8.948e-4 -0.0061,-0.00166 -0.00915,-0.00221 -1.293e-4,-2.27e-5 -2.772e-4,2.24e-5 -4.066e-4,3e-7 -0.012587,-0.00221 -0.025421,-0.00153 -0.038838,0.00183 -1.216e-4,3.07e-5 -2.849e-4,-3.09e-5 -4.067e-4,2e-7 -0.00331,8.407e-4 -0.00662,0.00187 -0.00997,0.00303 -8.15e-5,2.83e-5 -1.218e-4,1.73e-4 -2.034e-4,2.015e-4 -0.00427,0.00149 -0.00869,0.00365 -0.013017,0.00565 -0.00265,0.00122 -0.00526,0.00202 -0.00793,0.00343 -0.00684,0.0036 -0.013591,0.00793 -0.020544,0.012698 -0.02138,0.014667 -0.043373,0.034784 -0.065305,0.05944 -2.042e-4,2.295e-4 -4.061e-4,3.741e-4 -6.103e-4,6.044e-4 z"
             sodipodi:nodetypes="csccscccccscscscsssssssscsccccccsccccccssssssscssssssscscssccscccsscccsscscscccssc" /><path
             style="fill:#edd94f;stroke-width:0.119122"
             d="m 8.3818946,10.765968 c -0.483255,0.269833 -0.7771106,0.26189 -1.1380628,-0.03076 l -0.07384,-0.05987 -0.2825763,0.274928 C 5.9586914,11.853852 4.6744039,11.190571 5.1142664,10.034507 5.1885085,9.839381 5.2120597,9.5130363 5.1559121,9.4574322 5.1440959,9.4457301 5.153249,9.3389119 5.1762531,9.2200576 5.2562108,8.8069342 5.2164794,8.3451517 5.0863639,8.1753083 5.0361925,8.1098181 4.9896797,8.0107244 4.9830022,7.9551003 4.9763251,7.899476 4.9541915,7.8374573 4.9338175,7.8172806 4.5024059,7.3900458 4.7839835,6.6739875 5.4613837,6.4756666 5.6360404,6.4245328 5.6402188,6.4213936 5.6213198,6.3555106 5.6106459,6.3183027 5.6010519,6.198942 5.6,6.0902646 5.598946,5.9815873 5.5861661,5.7904791 5.571598,5.6655801 5.4819667,4.8971633 5.7078767,4.2788421 5.9798508,4.5481829 6.0972036,4.6643996 6.0976379,4.6640201 6.1184503,4.427114 6.1605997,3.9473255 6.442933,3.3942884 6.6188411,3.4469435 6.7817161,3.4956974 7.0216639,4.0328973 7.1087354,4.5437277 7.1603917,4.8467856 7.1856767,4.8448123 7.2502252,4.532686 7.295723,4.31268 7.4230285,3.8859067 7.4515977,3.8576144 c 0.033213,-0.032892 0.1606067,-7.099e-4 0.2165588,0.054691 0.081026,0.080241 0.073165,0.089264 0.1669553,-0.1916403 C 7.8779461,3.5923747 7.9445427,3.415585 7.9831041,3.3277992 8.0216654,3.2400132 8.0857789,3.0791935 8.1255784,2.970422 8.2935951,2.5112357 8.5302792,2.4662799 8.6546837,2.8699236 c 0.027071,0.087833 0.062991,0.1733351 0.079824,0.1900053 0.046859,0.046405 0.2425359,0.6023022 0.307817,0.874475 0.069288,0.2888782 0.082206,0.305706 0.1688302,0.219921 0.3927124,-0.3889102 0.5089,0.8094782 0.1450689,1.4962764 -0.08872,0.1674753 -0.087677,0.1696098 0.1673014,0.3423452 C 10.113415,6.3925679 10.466091,6.8475048 10.383391,7.1021358 10.295948,7.0848402 9.7149596,8.4778374 9.7834106,8.8606805 9.539124,9.6877916 8.9998305,10.420932 8.3818946,10.765968 Z M 9.1668777,9.5911349 C 9.3765759,9.2556041 9.4759701,9.0293993 9.5232267,8.7801419 9.5485311,8.6466735 9.5848297,8.5031147 9.6038906,8.4611224 9.6229517,8.4191301 9.623767,8.3597525 9.6056975,8.3291723 9.5871441,8.2977654 9.591784,8.2548224 9.6163628,8.2304826 9.6402937,8.2067834 9.7287341,8.002115 9.8128972,7.7756635 9.8970603,7.5492123 9.9983279,7.2861827 10.037936,7.1911536 10.122769,6.9876226 10.027353,6.6265312 9.9174888,6.7353317 9.8872886,6.7652394 9.7900137,7.0496509 9.7518775,7.2195446 9.3339446,9.0814019 8.6685295,10.194168 7.7569568,10.555627 c -0.1741794,0.06907 -0.1797382,0.08598 -0.04246,0.129179 0.2886459,0.09084 1.0885331,-0.511494 1.452379,-1.0936711 z M 8.6639934,9.4032203 C 8.9028211,9.0654892 8.1685033,8.928881 7.5979232,9.2048947 7.0335358,9.4779127 6.9760656,10.497574 7.5332037,10.353175 7.7612165,10.294079 8.433255,9.7295121 8.6639934,9.4032203 Z M 7.0192809,10.414524 c -0.00906,-0.0093 -0.033063,-0.04539 -0.05333,-0.08018 -0.035401,-0.06077 -0.042478,-0.05768 -0.1800982,0.07861 -0.2228331,0.220675 -0.5504772,0.461501 -0.7740251,0.568925 -0.2149345,0.103285 -0.2213351,0.12103 -0.061768,0.171246 0.099688,0.03137 0.195532,-0.0066 0.5116491,-0.202821 0.1342261,-0.08331 0.5805452,-0.512184 0.5575722,-0.53578 z M 6.8330592,9.9200412 C 7.0837203,9.5273409 6.3099001,9.3717328 5.6980908,9.6918095 5.1558275,9.975502 5.2264884,10.966683 5.7762622,10.788345 c 0.10654,-0.03456 0.187682,-0.08099 0.4728076,-0.27053 0.1128581,-0.07502 0.5094152,-0.480942 0.5839894,-0.5977738 z M 8.1231713,8.3572475 c -0.1152514,-0.1141356 -0.681694,-0.0026 -0.7830427,0.1541773 -0.077209,0.1194398 -0.050449,0.1224607 0.2123209,0.023968 0.129616,-0.048583 0.3106519,-0.09396 0.402302,-0.1008363 0.1856071,-0.013926 0.2175953,-0.02861 0.1684198,-0.077309 z M 8.0203338,7.813185 C 7.8832685,7.7721568 7.4938865,7.89524 7.3675948,8.0195152 7.281061,8.1046674 7.3883962,8.0970167 7.7020458,7.9956762 8.0757155,7.8749428 8.1274869,7.8452594 8.0203338,7.813185 Z M 7.980259,7.2031625 C 7.8837127,7.1384595 7.276342,7.427628 7.2129311,7.5684862 7.169241,7.6655376 7.2600195,7.6770031 7.4075374,7.5930654 7.4897217,7.5463025 7.648031,7.4584263 7.7593359,7.3977847 8.0175159,7.2571222 8.0362062,7.2406569 7.980259,7.2031625 Z M 6.2714108,8.8312529 C 6.167384,8.7282333 5.5175477,8.9094382 5.4495802,9.0604179 c -0.025172,0.055917 0.00681,0.093628 0.058404,0.06886 C 5.7831617,8.9971701 5.9207545,8.9482817 6.0659688,8.9310196 6.2463001,8.909583 6.3162201,8.8756285 6.2714108,8.8312529 Z M 6.0594335,8.2744956 C 5.9115477,8.2850533 5.4602582,8.5073482 5.4602225,8.5696535 5.4601891,8.627954 5.5150199,8.6148958 5.8831408,8.468933 6.1924035,8.3463078 6.271223,8.2593759 6.0594335,8.2744956 Z M 6.1419682,7.726671 C 6.0523702,7.63794 5.3709748,7.9902046 5.3708973,8.1252955 c -2.47e-5,0.043129 0.018949,0.04588 0.090778,0.013163 0.049945,-0.022749 0.2095266,-0.093553 0.354626,-0.157342 C 6.1354238,7.8408229 6.2035154,7.7876223 6.1419682,7.726671 Z M 7.0157737,6.6404749 c 0.010407,-0.045657 0.0045,-0.04992 -0.041227,-0.029733 -0.067566,0.02983 -0.1083782,0.1167946 -0.060097,0.1280564 0.045281,0.010562 0.085374,-0.028344 0.101324,-0.098323 z M 5.174632,7.1495731 C 5.207965,7.0755291 5.163317,7.0546951 5.101819,7.1155971 5.045593,7.1712781 5.039684,7.2315279 5.09045,7.2314995 5.126226,7.2314793 5.146752,7.2115025 5.174631,7.1495735 Z"
             id="path17"
             sodipodi:nodetypes="sscsssssssssscsssssscsssssssssccssssssssssssssssssssssssssssssssssssssssssssssssssssssssssssssssssss" /><path
             style="fill:#a0a19f;stroke-width:0.119122"
             d="m 8.3818946,10.765968 c -0.483255,0.269833 -0.7771106,0.26189 -1.1380628,-0.03076 l -0.07384,-0.05987 -0.2825763,0.274928 C 5.9586914,11.853852 4.6744039,11.190571 5.1142664,10.034507 5.1885085,9.839381 5.2120597,9.5130363 5.1559121,9.4574322 5.1440959,9.4457301 5.153249,9.3389119 5.1762531,9.2200576 5.2562108,8.8069342 5.2164794,8.3451517 5.0863639,8.1753083 5.0361925,8.1098181 4.9896797,8.0107244 4.9830022,7.9551003 4.9763251,7.899476 4.9541915,7.8374573 4.9338175,7.8172806 4.5024059,7.3900458 4.7839835,6.6739875 5.4613837,6.4756666 5.6360404,6.4245328 5.6402188,6.4213936 5.6213198,6.3555106 5.6106459,6.3183027 5.6010519,6.198942 5.6,6.0902646 5.598946,5.9815873 5.5861661,5.7904791 5.571598,5.6655801 5.5267328,5.2809471 5.6178641,4.6114967 5.7304449,4.4986893 5.8194239,4.4095313 6.044809,4.5257033 6.0447316,4.6606841 6.0446378,4.8243992 6.1127586,4.6540141 6.1185266,4.4761094 6.1337246,4.0073428 6.4331721,3.3913668 6.6188408,3.4469435 6.7581644,3.4886475 7.1748874,4.3829135 7.079649,4.4358134 7.066544,4.4430934 7.068898,4.554293 7.084879,4.6829253 7.133663,5.0755832 7.239286,5.053241 7.2413896,4.6498193 7.242078,4.5165195 7.4028191,3.905921 7.4493422,3.8598482 c 0.0352,-0.03486 0.1611283,-0.00467 0.2188145,0.052458 0.081026,0.080241 0.073165,0.089264 0.1669553,-0.1916404 C 7.8779464,3.5923745 7.9445429,3.4155848 7.9831043,3.327799 8.0216656,3.240013 8.0857791,3.0791933 8.1255787,2.9704217 8.2935953,2.5112354 8.5302795,2.4662797 8.6546839,2.8699234 c 0.027071,0.087833 0.062991,0.1733351 0.079824,0.1900053 0.046859,0.046405 0.2425359,0.6023021 0.307817,0.8744749 0.069288,0.2888783 0.082206,0.3057061 0.1688302,0.2199211 0.3927124,-0.3889103 0.5089,0.8094782 0.1450689,1.4962764 -0.08872,0.1674752 -0.087677,0.1696098 0.1673014,0.3423452 0.5898896,0.3996213 0.9425656,0.8545583 0.8598656,1.1091893 L 10.326523,7.277228 C 9.8031036,8.3058208 9.9591032,8.268562 9.7834109,8.8606802 9.4559747,9.964206 8.6429627,10.765968 8.3818942,10.765968 c -0.2610685,0 4e-7,0 4e-7,0 z M 9.1668777,9.5911349 C 9.3765759,9.2556041 9.4759701,9.0293993 9.5232267,8.7801419 9.5485311,8.6466735 9.5848297,8.5031147 9.6038906,8.4611224 9.6229517,8.4191301 9.623767,8.3597525 9.6056975,8.3291723 9.5871441,8.2977654 9.591784,8.2548224 9.6163628,8.2304826 9.6402937,8.2067834 9.7287341,8.002115 9.8128972,7.7756635 9.8970603,7.5492123 9.9983279,7.2861827 10.037936,7.1911536 10.122769,6.9876226 10.027353,6.6265312 9.9174888,6.7353317 9.8872886,6.7652394 9.7900137,7.0496509 9.7518775,7.2195446 9.3339446,9.0814019 8.6685295,10.194168 7.7569568,10.555627 c -0.1741794,0.06907 -0.1797382,0.08598 -0.04246,0.129179 0.2886459,0.09084 1.0885331,-0.511494 1.452379,-1.0936711 z M 8.6639934,9.4032203 C 8.9028211,9.0654892 8.1685033,8.928881 7.5979232,9.2048947 7.0335358,9.4779127 6.9760656,10.497574 7.5332037,10.353175 7.7612165,10.294079 8.433255,9.7295121 8.6639934,9.4032203 Z M 7.0192809,10.414524 c -0.00906,-0.0093 -0.033063,-0.04539 -0.05333,-0.08018 -0.035401,-0.06077 -0.042478,-0.05768 -0.1800982,0.07861 -0.2228331,0.220675 -0.5504772,0.461501 -0.7740251,0.568925 -0.2149345,0.103285 -0.2213351,0.12103 -0.061768,0.171246 0.099688,0.03137 0.195532,-0.0066 0.5116491,-0.202821 0.1342261,-0.08331 0.5805452,-0.512184 0.5575722,-0.53578 z M 6.8330592,9.9200412 C 7.0837203,9.5273409 6.3099001,9.3717328 5.6980908,9.6918095 5.1558275,9.975502 5.2264884,10.966683 5.7762622,10.788345 c 0.10654,-0.03456 0.187682,-0.08099 0.4728076,-0.27053 0.1128581,-0.07502 0.5094152,-0.480942 0.5839894,-0.5977738 z M 8.1231713,8.3572475 c -0.1152514,-0.1141356 -0.681694,-0.0026 -0.7830427,0.1541773 -0.077209,0.1194398 -0.050449,0.1224607 0.2123209,0.023968 0.129616,-0.048583 0.3106519,-0.09396 0.402302,-0.1008363 0.1856071,-0.013926 0.2175953,-0.02861 0.1684198,-0.077309 z M 8.0203338,7.813185 C 7.8832685,7.7721568 7.4938865,7.89524 7.3675948,8.0195152 7.281061,8.1046674 7.3883962,8.0970167 7.7020458,7.9956762 8.0757155,7.8749428 8.1274869,7.8452594 8.0203338,7.813185 Z M 7.980259,7.2031625 C 7.8837127,7.1384595 7.276342,7.427628 7.2129311,7.5684862 7.169241,7.6655376 7.2600195,7.6770031 7.4075374,7.5930654 7.4897217,7.5463025 7.648031,7.4584263 7.7593359,7.3977847 8.0175159,7.2571222 8.0362062,7.2406569 7.980259,7.2031625 Z M 6.2714108,8.8312529 C 6.167384,8.7282333 5.5175477,8.9094382 5.4495802,9.0604179 c -0.025172,0.055917 0.00681,0.093628 0.058404,0.06886 C 5.7831617,8.9971701 5.9207545,8.9482817 6.0659688,8.9310196 6.2463001,8.909583 6.3162201,8.8756285 6.2714108,8.8312529 Z M 9.0545559,5.3219412 9.0963867,5.1115477 8.922189,4.9620215 C 8.7196687,4.7881839 8.7099167,4.764105 8.564562,4.0789818 8.4168064,3.3825418 8.4044604,3.374164 8.3158913,3.9102366 8.2846987,4.0990342 8.2304188,4.3148974 8.1952696,4.3899328 8.1601204,4.464968 8.1086134,4.5870773 8.0808094,4.6612869 7.9939909,4.8930088 7.9209487,4.9688623 7.7470629,5.0078793 7.558865,5.0501074 7.5261422,5.0930063 7.5809042,5.2257096 c 0.051562,0.12495 0.123724,0.1124816 0.3956643,-0.068364 0.2762789,-0.1837309 0.2947198,-0.1794904 0.6398725,0.1471414 0.1616605,0.1529859 0.3117111,0.2867459 0.3334457,0.2972447 0.044117,0.021311 0.045582,0.017396 0.1046692,-0.2797905 z M 6.0594335,8.2744956 C 5.9115477,8.2850533 5.4602582,8.5073482 5.4602225,8.5696535 5.4601891,8.627954 5.5150199,8.6148958 5.8831408,8.468933 6.1924035,8.3463078 6.271223,8.2593759 6.0594335,8.2744956 Z M 6.1419682,7.726671 C 6.0523702,7.63794 5.3709748,7.9902046 5.3708973,8.1252955 c -2.47e-5,0.043129 0.018949,0.04588 0.090778,0.013163 0.049945,-0.022749 0.2095266,-0.093553 0.354626,-0.157342 C 6.1354238,7.8408229 6.2035154,7.7876223 6.1419682,7.726671 Z M 7.0157737,6.6404749 c 0.010407,-0.045657 0.0045,-0.04992 -0.041227,-0.029733 -0.067566,0.02983 -0.1083782,0.1167946 -0.060097,0.1280564 0.045281,0.010562 0.085374,-0.028344 0.101324,-0.098323 z M 9.1107442,4.2454518 c -0.025008,-0.010599 -0.025014,-8.77e-5 -1.53e-5,0.026799 0.022622,0.02433 0.041137,0.032177 0.041146,0.017437 8.6e-6,-0.01474 -0.0185,-0.034645 -0.041131,-0.044236 z M 7.0725061,5.6038037 C 6.9625883,5.5246622 6.8477078,5.302728 6.7183798,4.9196787 6.6041256,4.5812759 6.5788152,4.5818031 6.4109741,4.9260804 6.2690074,5.2172839 6.203179,5.3005598 6.0954081,5.3252862 6.0185395,5.3429233 5.9410973,5.5038313 5.9233398,5.6828089 5.9106138,5.8110757 5.9505888,5.8106205 6.1466043,5.6802689 6.4587872,5.4726612 6.5112737,5.476932 6.8694129,5.7390819 7.1558657,5.948759 7.1583724,5.9492669 7.162107,5.7983819 7.164797,5.6895539 7.151508,5.6606888 7.072506,5.6038067 Z M 5.174632,7.1495731 C 5.207965,7.0755291 5.163317,7.0546951 5.101819,7.1155971 5.045593,7.1712781 5.039684,7.2315279 5.09045,7.2314995 5.126226,7.2314793 5.146752,7.2115025 5.174631,7.1495735 Z"
             id="path16"
             sodipodi:nodetypes="sscssssssssssssssssscsssssssssssscszsssssssssssssssssssssssssssssssssssssssssssssssssscssssssssssssssssssssssssssssssssssssssssss" /><path
             style="fill:#e59737;stroke-width:0.119122"
             d="M 8.400706,10.700041 C 7.8585815,11.016539 7.6240797,11.001896 7.1879431,10.62431 7.178091,10.61578 7.0530048,10.724693 6.9099739,10.866339 6.377757,11.393403 6.0589863,11.495173 5.6376835,11.272525 5.1801047,11.030706 4.9805682,10.52656 5.1545366,10.051812 5.2322412,9.8397617 5.2601224,9.4718708 5.2027912,9.4150946 5.1914891,9.4039022 5.1997086,9.3156858 5.2210564,9.2190586 5.2978736,8.87136 5.261091,8.3383475 5.1496817,8.1847718 5.1117298,8.1324557 5.0546765,8.0153702 5.0228966,7.9245819 4.9911167,7.8337937 4.9443918,7.7389896 4.9190634,7.7139064 4.5486141,7.3470437 4.8523192,6.7117437 5.4924234,6.5145336 L 5.6862461,6.4548187 5.6671182,6.3706907 C 5.6565971,6.3244201 5.6504922,6.2041176 5.6535532,6.1033515 5.6566121,6.0025855 5.649707,5.8598065 5.6382071,5.7860648 5.5283915,5.0818736 5.7066884,4.4111305 5.9512066,4.608578 6.1093633,4.736289 6.1317344,4.719106 6.1669837,4.4428424 6.2168943,4.0516696 6.4252124,3.5487356 6.5532575,3.5102766 c 0.1646619,-0.049457 0.4413001,0.5423879 0.5226458,1.1181589 0.06433,0.4553317 0.107058,0.454892 0.198217,-0.00204 0.124847,-0.6257901 0.2225237,-0.7951805 0.372746,-0.6464127 0.080528,0.079749 0.1474565,0.024638 0.2089338,-0.172043 0.3080721,-0.9856039 0.5989849,-1.3519447 0.7478365,-0.94174 0.033378,0.091983 0.1113362,0.2774441 0.1732405,0.4121359 0.061904,0.1346921 0.1543277,0.4062714 0.2053852,0.6035096 C 9.0940575,4.3137164 9.1133979,4.3397949 9.2336027,4.2207539 9.6024956,3.8554327 9.6427996,5.2175058 9.2766465,5.6754185 9.1703391,5.808367 9.183012,5.8377075 9.4032183,5.9684583 9.6421876,6.1103495 9.9433189,6.3761588 10.190361,6.663271 l 0.205338,0.2386427 -0.106052,0.1575821 C 9.605997,8.0753291 10.080762,7.460633 9.8239837,8.4899267 9.8051721,8.5653346 9.8386071,8.537729 9.7439088,8.8426064 9.478212,9.698006 9.0114305,10.343489 8.4007058,10.700037 Z M 9.0826202,9.7956031 C 9.3825219,9.3321161 9.4720449,9.1570008 9.5369053,8.9069806 9.573889,8.7644182 9.6221261,8.5857608 9.6440988,8.5099643 9.6660718,8.4341677 9.6821476,8.3502297 9.6798233,8.3234352 9.6774979,8.296641 9.9123196,7.9872149 10.045254,7.6425013 10.241445,7.1337555 10.189474,6.9558228 10.057186,6.7853964 9.9031233,6.5869167 9.8444573,6.6692073 9.6833587,7.3097776 9.2055924,9.2095016 8.6152168,10.183276 7.7471276,10.503427 7.4665284,10.606912 7.452359,10.676561 7.6998437,10.735849 8.0036557,10.808631 8.7598382,10.29445 9.0826202,9.7956031 Z M 8.7533568,9.3463413 C 8.9205856,8.9790762 8.0312717,8.8922512 7.4707776,9.2211213 6.9731366,9.5131122 6.9918022,10.49696 7.493344,10.410584 7.777271,10.361687 8.6121008,9.6565654 8.7533568,9.3463413 Z M 7.0576555,10.407577 c -0.011711,-0.03837 -0.051636,-0.09359 -0.088722,-0.12271 l -0.067428,-0.05294 -0.3062075,0.273716 c -0.3021174,0.27006 -0.5431008,0.431242 -0.7356278,0.492025 -0.1331465,0.04204 -0.1543078,0.06905 -0.097864,0.124952 0.1414666,0.140097 0.3628885,0.105103 0.6763374,-0.106887 0.087877,-0.05943 0.1840055,-0.124008 0.213619,-0.143501 0.1891307,-0.124493 0.426705,-0.39646 0.4058919,-0.464652 z M 6.9470843,9.7978676 C 7.0251787,9.4265489 6.021348,9.3733113 5.571063,9.724891 c -0.3842659,0.300033 -0.3759531,1.153174 0.011233,1.152957 0.3381077,-1.9e-4 1.2973302,-0.75924 1.3647872,-1.0799804 z M 7.9434149,8.7561907 C 7.9241924,8.7371547 7.8357434,8.7503557 7.7389491,8.7867074 7.5468714,8.8588432 7.2948,9.029627 7.3584833,9.0444813 c 0.021468,0.00501 0.061362,-0.012539 0.088654,-0.038992 C 7.4744306,8.9790362 7.5957444,8.9256021 7.716724,8.8867466 7.9809045,8.8018987 7.9863834,8.7987433 7.9434149,8.7561907 Z M 8.1925123,8.3904119 C 8.1925598,8.3075326 8.1556923,8.288547 7.9667017,8.2741275 7.625061,8.2480612 7.2332715,8.4269857 7.2495626,8.6016343 c 0.00622,0.066676 0.1038858,0.096576 0.1538991,0.047116 0.054685,-0.05408 0.4320231,-0.164344 0.5926913,-0.1731934 0.1924161,-0.010598 0.1963176,-0.01229 0.1963593,-0.085145 z m -0.0559,-0.5840778 c -0.08289,-0.1626752 -0.945976,0.1295879 -0.8715981,0.2951451 0.033747,0.075117 0.073263,0.070177 0.4648573,-0.05812 C 8.066638,7.9330261 8.170366,7.8725792 8.1366123,7.8063341 Z M 6.1522035,9.2118093 c -0.056406,-0.028686 -0.4780724,0.1212823 -0.5271246,0.1874753 -0.032788,0.044245 8.82e-4,0.038866 0.1394286,-0.022266 0.1004623,-0.044332 0.2275464,-0.085938 0.2824092,-0.092458 0.1137534,-0.013518 0.1595425,-0.045158 0.1052868,-0.072751 z M 8.0680278,7.2258717 C 8.0101022,7.097919 7.7932005,7.1292037 7.4825901,7.3103125 7.2186236,7.4642245 7.1182513,7.5759115 7.1687658,7.6595134 7.2294878,7.7600089 7.2576258,7.7556214 7.490503,7.6093414 7.8181521,7.4035318 7.8951371,7.3602238 7.9553743,7.347827 8.0328833,7.331876 8.0886743,7.271478 8.0680278,7.2258717 Z M 6.2910349,8.8151478 c -0.139366,-0.1745015 -0.9208999,0.07945 -0.9010014,0.2927709 0.00876,0.093875 0.080791,0.1117755 0.1844554,0.045837 0.1442349,-0.091743 0.4033278,-0.178485 0.5632657,-0.1885762 0.1729958,-0.010915 0.2242891,-0.061121 0.1532803,-0.1500317 z m -0.04213,-0.4685587 c 0.094565,-0.2100632 -0.629654,-0.06312 -0.8011144,0.1625446 -0.1372747,0.1806717 0.3314921,0.1131905 0.7742713,-0.1114602 0.00274,-0.00139 0.014821,-0.024379 0.026843,-0.051084 z M 9.0545559,5.3219412 9.0963867,5.1115477 8.922189,4.9620215 C 8.7196687,4.7881839 8.7099167,4.764105 8.564562,4.0789818 8.4168064,3.3825418 8.4044604,3.374164 8.3158913,3.9102366 8.2846987,4.0990342 8.2304188,4.3148974 8.1952696,4.3899328 8.1601204,4.464968 8.1086134,4.5870773 8.0808094,4.6612869 7.9939909,4.8930088 7.9209487,4.9688623 7.7470629,5.0078793 7.558865,5.0501074 7.5261422,5.0930063 7.5809042,5.2257096 c 0.051562,0.12495 0.123724,0.1124816 0.3956643,-0.068364 0.2762789,-0.1837309 0.2947198,-0.1794904 0.6398725,0.1471414 0.1616605,0.1529859 0.3117111,0.2867459 0.3334457,0.2972447 0.044117,0.021311 0.045582,0.017396 0.1046692,-0.2797905 z M 6.2200582,7.761391 C 6.2041592,7.5909449 5.9269356,7.6484785 5.539187,7.9026956 5.2830183,8.0706458 5.2147316,8.2468753 5.4231887,8.2020555 5.6758826,8.1477244 6.2276343,7.8426088 6.2200582,7.761391 Z M 7.0630034,6.6527174 c 0.048749,-0.08357 -0.00591,-0.1330086 -0.1060093,-0.095887 -0.058808,0.021808 -0.090063,0.052675 -0.1178026,0.1163406 -0.020767,0.047661 -0.059068,0.1033464 -0.085115,0.1237447 -0.026046,0.020399 -0.038509,0.055355 -0.027695,0.077682 0.013944,0.028787 0.028463,0.023787 0.04992,-0.01719 0.018407,-0.035154 0.054692,-0.055548 0.092651,-0.052075 0.065475,0.00599 0.1320956,-0.046405 0.1940509,-0.1526153 z m 0.0095,-1.0489137 C 6.9625873,5.5246622 6.8477067,5.302728 6.7183787,4.9196787 6.6041245,4.5812759 6.5788142,4.5818031 6.410973,4.9260804 6.2690063,5.2172839 6.2031779,5.3005598 6.095407,5.3252862 6.0185384,5.3429233 5.9410963,5.5038313 5.9233387,5.6828089 c -0.012726,0.1282668 0.027249,0.1278116 0.2232645,-0.00254 0.3121829,-0.2076077 0.3646694,-0.2033369 0.7228086,0.058813 0.2864528,0.2096771 0.2889596,0.210185 0.2926941,0.0593 0.00269,-0.108828 -0.010599,-0.1376931 -0.089601,-0.1945752 z M 5.2955997,7.0725346 C 5.4386297,6.8978655 5.4193549,6.8307069 5.2529492,6.9239282 5.0500191,7.0376106 4.8876091,7.2833245 4.9648432,7.3598106 c 0.03914,0.038761 0.1244525,-0.035337 0.3307565,-0.287276 z"
             id="path15"
             sodipodi:nodetypes="ssssssssssscssssssssssssssssscssssssssssssssssssssscssssssssssssssssssssssssssssscsssssssssssssssssscsssssssssssssssssssssssssssssssssssss" /><path
             style="fill:#4688b9;stroke-width:0.119122"
             d="M 8.400706,10.700041 C 7.8585815,11.016539 7.6240797,11.001896 7.1879431,10.62431 7.178091,10.61578 7.0530048,10.724693 6.9099739,10.866339 6.377757,11.393403 6.0589863,11.495173 5.6376835,11.272525 5.1801047,11.030706 4.9805682,10.52656 5.1545366,10.051812 5.2322412,9.8397617 5.2601224,9.4718708 5.2027912,9.4150946 5.1914891,9.4039022 5.1997086,9.3156858 5.2210564,9.2190586 5.2978736,8.87136 5.261091,8.3383475 5.1496817,8.1847718 5.1117298,8.1324557 5.0546765,8.0153702 5.0228966,7.9245819 4.9911167,7.8337937 4.9443918,7.7389896 4.9190634,7.7139064 4.5488897,7.3473167 4.8523291,6.7117407 5.4915433,6.5148046 5.6743882,6.458472 5.6838133,6.4518241 5.6716352,6.3877816 5.5039095,5.5057357 5.6858713,4.3680027 5.9524443,4.631995 6.1155588,4.7935301 6.1582376,4.7611939 6.1786296,4.4606236 6.2383366,3.5805708 6.6411192,3.2468759 6.8487407,3.9054544 c 0.046207,0.1465697 0.097811,0.3102731 0.1146754,0.363785 0.016865,0.053512 0.017209,0.1200382 7.744e-4,0.1478357 -0.016443,0.027798 -0.011347,0.075025 0.011321,0.1049488 0.02267,0.029924 0.026092,0.069387 0.00761,0.087694 C 6.9239939,4.6682699 6.8615813,4.5441042 6.8309427,4.306975 6.7618356,3.7721154 6.5407863,3.7849901 6.4147074,4.3312182 6.2528892,5.032284 6.2048224,5.1125912 6.0040497,5.0173229 5.7921721,4.9167854 5.7920874,4.9170563 5.8224071,5.5973775 5.8357355,5.8964148 5.8374585,5.8971464 6.1089864,5.7190253 6.4651122,5.4854087 6.4908567,5.4870719 6.8805473,5.7688755 7.2006101,6.0003279 7.3104475,6.0383588 7.2581196,5.8996086 7.2397748,5.850968 7.238041,5.7980255 7.2542648,5.7819585 7.2704886,5.7658917 7.2735002,5.7080494 7.2609569,5.6534204 7.2484137,5.5987912 7.2332392,5.4934306 7.2272356,5.4192858 7.2212318,5.3451407 7.1925683,5.2609548 7.1635382,5.2322056 7.1106703,5.1798497 7.1207036,5.116266 7.1931547,5.0445164 7.2144293,5.0234483 7.2629579,4.8384723 7.3009955,4.6334607 7.4294346,3.9412094 7.5049168,3.8014405 7.6426205,4.000881 7.7266016,4.1225134 7.7842828,4.0820177 7.8595237,3.8486018 7.8940856,3.7413818 7.9720511,3.5331033 8.0327801,3.3857609 8.093509,3.2384186 8.166773,3.0470124 8.1955886,2.960414 8.2988099,2.6502089 8.5040486,2.5759521 8.5845255,2.8196939 c 0.021867,0.066229 0.082419,0.2178129 0.1345587,0.3368525 0.1363254,0.3112396 0.217478,0.5655897 0.2911165,0.9124228 0.07425,0.3497113 0.097048,0.3887932 0.1634294,0.2801655 0.1328061,-0.217324 0.1392774,-0.2225873 0.2170273,-0.1765138 0.2311091,0.1369513 0.1615995,0.9901123 -0.1201558,1.4747879 -0.097298,0.1673727 -0.083502,0.1829979 0.1327236,0.3210534 0.2321512,0.1482231 0.557097,0.427454 0.7871428,0.6948127 l 0.205337,0.2386427 -0.0756,0.2143703 C 10.27852,7.2341914 10.173001,7.3785554 10.157012,7.4115802 9.7969176,8.1553613 10.079484,7.5498003 9.7156101,8.792951 9.5012323,9.5253588 8.9054715,10.24101 8.4007142,10.700041 Z M 9.0826202,9.7956031 C 9.3825219,9.3321161 9.4720449,9.1570008 9.5369053,8.9069806 9.573889,8.7644182 9.6221261,8.5857608 9.6440988,8.5099643 9.6660718,8.4341677 9.6821476,8.3502297 9.6798233,8.3234352 9.6774979,8.296641 9.7838693,7.9924949 9.9162022,7.647555 10.195341,6.9199505 10.189475,6.955818 10.057186,6.7853964 9.9031196,6.5869197 9.8444575,6.6692073 9.6833589,7.3097776 9.2055926,9.2095016 8.615217,10.183276 7.7471279,10.503427 7.4665287,10.606912 7.4523592,10.676561 7.6998439,10.735849 8.0036559,10.808631 8.7598384,10.29445 9.0826202,9.7956031 Z M 8.7533568,9.3463413 C 8.9205856,8.9790762 8.0312717,8.8922512 7.4707776,9.2211213 6.9731366,9.5131122 6.9918022,10.49696 7.493344,10.410584 7.777271,10.361687 8.6121008,9.6565654 8.7533568,9.3463413 Z M 7.0576555,10.407577 c -0.011711,-0.03837 -0.051636,-0.09359 -0.088722,-0.12271 l -0.067428,-0.05294 -0.3062075,0.273716 c -0.3021174,0.27006 -0.5431008,0.431242 -0.7356278,0.492025 -0.1331465,0.04204 -0.1543078,0.06905 -0.097864,0.124952 0.1414666,0.140097 0.3628885,0.105103 0.6763374,-0.106887 0.087877,-0.05943 0.1840055,-0.124008 0.213619,-0.143501 0.1891307,-0.124493 0.426705,-0.39646 0.4058919,-0.464652 z M 6.9470843,9.7978676 C 7.0251787,9.4265489 6.021348,9.3733113 5.571063,9.724891 c -0.3842659,0.300033 -0.3759531,1.153174 0.011233,1.152957 0.3381077,-1.9e-4 1.2973302,-0.75924 1.3647872,-1.0799804 z M 7.9434149,8.7561907 C 7.9241924,8.7371547 7.8357434,8.7503557 7.7389491,8.7867074 7.5468714,8.8588432 7.2948,9.029627 7.3584833,9.0444813 c 0.021468,0.00501 0.061362,-0.012539 0.088654,-0.038992 C 7.4744306,8.9790362 7.5957444,8.9256021 7.716724,8.8867466 7.9809045,8.8018987 7.9863834,8.7987433 7.9434149,8.7561907 Z M 8.1925123,8.3904119 C 8.1925598,8.3075326 8.1556923,8.288547 7.9667017,8.2741275 7.625061,8.2480612 7.2332715,8.4269857 7.2495626,8.6016343 c 0.00622,0.066676 0.1038858,0.096576 0.1538991,0.047116 0.054685,-0.05408 0.4320231,-0.164344 0.5926913,-0.1731934 0.1924161,-0.010598 0.1963176,-0.01229 0.1963593,-0.085145 z m -0.0559,-0.5840778 c -0.08289,-0.1626752 -0.945976,0.1295879 -0.8715981,0.2951451 0.033747,0.075117 0.073263,0.070177 0.4648573,-0.05812 C 8.066638,7.9330261 8.170366,7.8725792 8.1366123,7.8063341 Z M 6.1522035,9.2118093 c -0.056406,-0.028686 -0.4780724,0.1212823 -0.5271246,0.1874753 -0.032788,0.044245 8.82e-4,0.038866 0.1394286,-0.022266 0.1004623,-0.044332 0.2275464,-0.085938 0.2824092,-0.092458 0.1137534,-0.013518 0.1595425,-0.045158 0.1052868,-0.072751 z M 8.0680278,7.2258717 C 8.0101022,7.097919 7.7932005,7.1292037 7.4825901,7.3103125 7.2186236,7.4642245 7.1182513,7.5759115 7.1687658,7.6595134 7.2294878,7.7600089 7.2576258,7.7556214 7.490503,7.6093414 7.8181521,7.4035318 7.8951371,7.3602238 7.9553743,7.347827 8.0328833,7.331876 8.0886743,7.271478 8.0680278,7.2258717 Z M 6.2910349,8.8151478 c -0.139366,-0.1745015 -0.9208999,0.07945 -0.9010014,0.2927709 0.00876,0.093875 0.080791,0.1117755 0.1844554,0.045837 C 5.7187238,9.0620129 5.9778167,8.9752707 6.1377546,8.9651795 6.3107504,8.9542645 6.3620437,8.9040584 6.2910349,8.8151478 Z M 9.1362121,5.5214816 c 0.014481,-0.058888 0.047127,-0.1413958 0.072546,-0.1833502 0.025419,-0.041954 0.036724,-0.08568 0.025123,-0.097169 -0.011601,-0.01149 0.0104,-0.07458 0.048893,-0.1402017 C 9.4230282,4.8616557 9.3274013,4.4381848 9.1686539,4.5953952 9.0887588,4.6745168 9.0570226,4.6273358 8.941379,4.2575179 8.6243662,3.2437376 8.603378,3.2004948 8.4283945,3.2005931 8.323428,3.2006521 8.2829264,3.2369751 8.2049757,3.4009615 8.1734185,3.4673492 8.1327122,3.5368809 8.1145171,3.5554768 8.0963229,3.5740733 8.0381985,3.7113882 7.9853535,3.8606221 7.9325087,4.0098562 7.8684212,4.1660776 7.842937,4.2077809 7.817453,4.2494841 7.7884581,4.3212185 7.778504,4.3671906 7.761919,4.4437876 7.751556,4.4510556 7.6545579,4.4541086 l -0.1058478,0.00333 -0.032738,0.1573481 c -0.029952,0.1439544 -0.1221275,0.7400473 -0.1347428,0.871369 -0.0072,0.074896 0.042837,0.058356 0.247435,-0.081802 0.6458991,-0.4424663 0.6091277,-0.439735 0.979682,-0.072768 0.394441,0.3906221 0.4716723,0.4184052 0.527866,0.1898941 z M 6.2489049,8.3465891 c 0.094565,-0.2100632 -0.629654,-0.06312 -0.8011144,0.1625446 -0.1372747,0.1806717 0.3314921,0.1131905 0.7742713,-0.1114602 0.00274,-0.00139 0.014821,-0.024379 0.026843,-0.051084 z M 6.2200582,7.761391 C 6.2041592,7.5909449 5.9269356,7.6484785 5.539187,7.9026956 5.2830183,8.0706458 5.2147316,8.2468753 5.4231887,8.2020555 5.6758826,8.1477244 6.2276343,7.8426088 6.2200582,7.761391 Z M 7.0630034,6.6527174 c 0.048749,-0.08357 -0.00591,-0.1330086 -0.1060093,-0.095887 -0.058808,0.021808 -0.090063,0.052675 -0.1178026,0.1163406 -0.020767,0.047661 -0.059068,0.1033464 -0.085115,0.1237447 -0.026046,0.020399 -0.038509,0.055355 -0.027695,0.077682 0.013944,0.028787 0.028463,0.023787 0.04992,-0.01719 0.018407,-0.035154 0.054692,-0.055548 0.092651,-0.052075 0.065475,0.00599 0.1320956,-0.046405 0.1940509,-0.1526153 z M 5.2956007,7.0725346 C 5.4386308,6.8978655 5.419356,6.8307069 5.2529503,6.9239282 5.0500202,7.0376106 4.8876102,7.2833245 4.9648443,7.3598106 c 0.03914,0.038761 0.1244525,-0.035337 0.3307564,-0.287276 z"
             id="path14"
             sodipodi:nodetypes="cssssssssssssssscssssssssssssssssssssssssssscsssccsssssssssssssssscssssssssssssssssssssssssssssscsssssssssssssssssssssssssscssssssssssssssssssssssssss" /><path
             style="fill:#c1673a;stroke-width:0.119122"
             d="M 8.400706,10.700041 C 7.8585815,11.016539 7.6240797,11.001896 7.1879431,10.62431 7.178091,10.61578 7.0530048,10.724693 6.9099739,10.866339 6.377757,11.393403 6.0589863,11.495173 5.6376835,11.272525 5.1801047,11.030706 4.9805682,10.52656 5.1545366,10.051812 5.2322412,9.8397617 5.2601224,9.4718708 5.2027912,9.4150946 5.1914891,9.4039022 5.1997086,9.3156858 5.2210564,9.2190586 5.2978736,8.87136 5.261091,8.3383475 5.1496817,8.1847718 5.1117298,8.1324557 5.0546765,8.0153702 5.0228966,7.9245819 4.9911167,7.8337937 4.9443918,7.7389896 4.9190634,7.7139064 4.5488897,7.3473167 4.8523291,6.7117407 5.4915433,6.5148046 5.6743882,6.458472 5.6838133,6.4518241 5.6716352,6.3877816 5.5039095,5.5057357 5.6858713,4.3680027 5.9524443,4.631995 6.1155588,4.7935301 6.1582376,4.7611939 6.1786296,4.4606236 6.2383366,3.5805708 6.6411192,3.2468759 6.8487407,3.9054544 c 0.046207,0.1465697 0.097811,0.3102731 0.1146754,0.363785 0.016865,0.053512 0.017209,0.1200382 7.744e-4,0.1478357 -0.016443,0.027798 -0.011347,0.075025 0.011321,0.1049488 0.02267,0.029924 0.026092,0.069387 0.00761,0.087694 C 6.9239939,4.6682699 6.8615813,4.5441042 6.8309427,4.306975 6.7618356,3.7721154 6.5407863,3.7849901 6.4147074,4.3312182 6.2528892,5.032284 6.2048224,5.1125912 6.0040497,5.0173229 5.7921721,4.9167854 5.7920874,4.9170563 5.8224071,5.5973775 5.8357355,5.8964148 5.8374585,5.8971464 6.1089864,5.7190253 6.4651122,5.4854087 6.4908567,5.4870719 6.8805473,5.7688755 7.2006101,6.0003279 7.3104475,6.0383588 7.2581196,5.8996086 7.2397748,5.850968 7.238041,5.7980255 7.2542648,5.7819585 7.2704886,5.7658917 7.2735002,5.7080494 7.2609569,5.6534204 7.2484137,5.5987912 7.2332392,5.4934306 7.2272356,5.4192858 7.2212318,5.3451407 7.1925683,5.2609548 7.1635382,5.2322056 7.1106703,5.1798497 7.1207036,5.116266 7.1931547,5.0445164 7.2144293,5.0234483 7.2629579,4.8384723 7.3009955,4.6334607 7.4294346,3.9412094 7.5049168,3.8014405 7.6426205,4.000881 7.7266016,4.1225134 7.7842828,4.0820177 7.8595237,3.8486018 7.8940856,3.7413818 7.9720511,3.5331033 8.0327801,3.3857609 8.093509,3.2384186 8.166773,3.0470124 8.1955886,2.960414 8.2988099,2.6502089 8.5040486,2.5759521 8.5845255,2.8196939 c 0.021867,0.066229 0.082419,0.2178129 0.1345587,0.3368525 0.1363254,0.3112396 0.217478,0.5655897 0.2911165,0.9124228 0.07425,0.3497113 0.097048,0.3887932 0.1634294,0.2801655 C 9.3064362,4.1318107 9.3129075,4.1265474 9.3906574,4.1726209 9.6217665,4.3095722 9.5522569,5.1627332 9.2705016,5.6474088 9.1732033,5.8147815 9.182573,5.8374468 9.4032252,5.9684622 9.6421944,6.1103534 9.9133545,6.4112776 10.157824,6.7005423 l 0.172289,0.2038579 -0.07156,0.2013668 C 10.220713,7.2122432 10.135368,7.035553 10.051753,7.4208912 9.9681364,7.8062294 9.7689572,8.6082178 9.6992893,8.8551706 9.4735671,9.6552902 8.991579,10.335075 8.4007142,10.700041 Z M 9.0826202,9.7956031 C 9.3825219,9.3321161 9.4720449,9.1570008 9.5369053,8.9069806 9.573889,8.7644182 9.6221261,8.5857608 9.6440988,8.5099643 9.6660718,8.4341677 9.6821476,8.3502297 9.6798233,8.3234352 9.6774979,8.296641 9.7838693,7.9924949 9.9162022,7.647555 10.195341,6.9199505 10.201505,6.9043538 10.069216,6.7339321 9.9151496,6.5354555 9.8444575,6.6692073 9.6833589,7.3097776 9.2055926,9.2095016 8.615217,10.183276 7.7471279,10.503427 7.4665287,10.606912 7.4523592,10.676561 7.6998439,10.735849 8.0036559,10.808631 8.7598384,10.29445 9.0826202,9.7956031 Z M 8.7533568,9.3463413 C 8.9205856,8.9790762 8.0312717,8.8922512 7.4707776,9.2211213 6.9731366,9.5131122 6.9918022,10.49696 7.493344,10.410584 7.777271,10.361687 8.6121008,9.6565654 8.7533568,9.3463413 Z M 8.9302994,8.8015091 C 8.9347415,8.7692923 8.9651103,8.6895239 8.997788,8.624246 9.0745151,8.4709737 9.2870473,7.8698791 9.2980182,7.7751191 9.3038198,7.7250051 9.262097,7.6444555 9.1646623,7.5176665 8.8253775,7.076165 8.7426864,6.782655 8.805017,6.2411142 8.8449127,5.8944913 8.5958383,5.540248 8.4859757,5.7873612 c -0.011302,0.025422 -0.060684,0.096348 -0.1097383,0.1576132 -0.049054,0.061265 -0.0923,0.1282817 -0.096103,0.1489254 -0.0038,0.020644 -0.039849,0.074341 -0.080102,0.1193276 -0.040253,0.044986 -0.081392,0.1206966 -0.091419,0.1682452 -0.010026,0.047548 -0.035804,0.094211 -0.057283,0.1036936 -0.08384,0.037015 -0.056171,0.1121273 0.1190122,0.3230708 0.2061968,0.2482884 0.3120515,0.4270068 0.3456452,0.5835657 0.081055,0.3777465 0.056689,0.6982601 -0.084485,1.1113259 -0.098453,0.2880661 -0.096233,0.2928413 0.1629749,0.3505898 0.1059097,0.023596 0.2175105,0.05437 0.2480018,0.068388 0.054908,0.025243 0.070708,0.00355 0.087821,-0.1205973 z M 8.7393777,8.3239562 c -0.1115467,0.055419 -0.1169611,0.054746 -0.082574,-0.010256 0.02024,-0.038261 0.058024,-0.1381969 0.083964,-0.2220808 0.042719,-0.1381392 0.054006,-0.1528579 0.1197468,-0.1561418 0.03992,-0.002 0.099518,-0.030301 0.1324392,-0.062903 0.078247,-0.077489 0.1003252,-0.050422 0.07812,0.09577 l -0.018082,0.1190531 -0.096792,0.00305 c -0.1199592,0.00378 -0.1307547,0.013965 -0.089244,0.084234 0.037898,0.064152 0.033567,0.06922 -0.1275765,0.1492788 z M 7.0576555,10.407577 c -0.011711,-0.03837 -0.051636,-0.09359 -0.088722,-0.12271 l -0.067428,-0.05294 -0.3062075,0.273716 c -0.3021174,0.27006 -0.5431008,0.431242 -0.7356278,0.492025 -0.1331465,0.04204 -0.1543078,0.06905 -0.097864,0.124952 0.1414666,0.140097 0.3628885,0.105103 0.6763374,-0.106887 0.087877,-0.05943 0.1840055,-0.124008 0.213619,-0.143501 0.1891307,-0.124493 0.426705,-0.39646 0.4058919,-0.464652 z M 8.0983282,8.7764597 C 7.9948888,8.6740218 7.6961173,8.747611 7.452322,8.9355748 7.2973502,9.0550567 7.3295885,9.0729825 7.5210785,8.9738063 7.5886125,8.9388293 7.7407661,8.8897932 7.859198,8.8648372 8.0742734,8.8195165 8.1234527,8.8013409 8.0983282,8.7764597 Z M 6.9470843,9.7978676 C 7.0251787,9.4265489 6.021348,9.3733113 5.571063,9.724891 c -0.3842659,0.300033 -0.3759531,1.153174 0.011233,1.152957 0.3381077,-1.9e-4 1.2973302,-0.75924 1.3647872,-1.0799804 z M 8.1925123,8.3904119 C 8.1925598,8.3075326 8.1556923,8.288547 7.9667017,8.2741275 7.625061,8.2480612 7.2332715,8.4269857 7.2495626,8.6016343 c 0.00622,0.066676 0.1038858,0.096576 0.1538991,0.047116 0.054685,-0.05408 0.4320231,-0.164344 0.5926913,-0.1731934 0.1924161,-0.010598 0.1963176,-0.01229 0.1963593,-0.085145 z M 6.9721903,9.1755562 C 6.9640634,9.0921705 6.9560397,8.9872885 6.9543553,8.9424852 6.9526775,8.8976818 6.9435868,8.7869854 6.9341648,8.6964931 6.9247429,8.6060007 6.9333259,8.5050532 6.9532281,8.4721653 6.9867748,8.4167412 6.9784379,8.3112532 6.9094942,7.9187938 6.8228005,7.4252927 6.2872066,6.7159891 6.1750536,6.9461517 c -0.072864,0.1495337 -0.06788,0.1675428 0.090016,0.3252243 0.1569233,0.1567102 0.2622241,0.4048626 0.2421377,0.570623 -0.00713,0.058829 0.012128,0.1812837 0.042795,0.2721218 0.067872,0.2010472 0.04714,0.6929942 -0.040173,0.9532434 -0.033809,0.1007725 -0.061847,0.1902504 -0.062308,0.1988398 -4.517e-4,0.00859 0.068869,0.02359 0.1540649,0.033335 0.085196,0.00974 0.1942966,0.032289 0.2424457,0.050098 0.1178582,0.043592 0.1456854,0.00579 0.1281567,-0.1740813 z M 8.1366118,7.8063341 C 8.0537228,7.6436589 7.1906363,7.935922 7.2650142,8.1014792 c 0.033747,0.075117 0.073263,0.070177 0.4648573,-0.05812 C 8.066638,7.9330261 8.170366,7.8725792 8.1366118,7.8063341 Z M 6.1627743,9.2118646 c -0.051066,-0.050572 -0.3522634,0.047018 -0.5065132,0.164113 -0.078893,0.059889 -0.063769,0.059732 0.1356701,-0.00142 0.1234539,-0.037849 0.2536423,-0.066147 0.2893078,-0.062884 0.090575,0.00829 0.1353477,-0.046525 0.081535,-0.099816 z M 8.0680278,7.2258717 C 8.0101022,7.097919 7.7932005,7.1292037 7.4825901,7.3103125 7.2186236,7.4642245 7.1182513,7.5759115 7.1687658,7.6595134 7.2294878,7.7600089 7.2576258,7.7556214 7.490503,7.6093414 7.8181521,7.4035318 7.8951371,7.3602238 7.9553743,7.347827 8.0328833,7.331876 8.0886743,7.271478 8.0680278,7.2258717 Z M 6.2910349,8.8151478 c -0.139366,-0.1745015 -0.9208999,0.07945 -0.9010014,0.2927709 0.00876,0.093875 0.080791,0.1117755 0.1844554,0.045837 C 5.7187238,9.0620129 5.9778167,8.9752707 6.1377546,8.9651795 6.3107504,8.9542645 6.3620437,8.9040584 6.2910349,8.8151478 Z M 9.1362121,5.5214816 c 0.014481,-0.058888 0.047127,-0.1413958 0.072546,-0.1833502 0.025419,-0.041954 0.036724,-0.08568 0.025123,-0.097169 -0.011601,-0.01149 0.0104,-0.07458 0.048893,-0.1402017 C 9.4230282,4.8616557 9.3274013,4.4381848 9.1686539,4.5953952 9.0887588,4.6745168 9.0570226,4.6273358 8.941379,4.2575179 8.6243662,3.2437376 8.603378,3.2004948 8.4283945,3.2005931 8.323428,3.2006521 8.2829264,3.2369751 8.2049757,3.4009615 8.1734185,3.4673492 8.1327122,3.5368809 8.1145171,3.5554768 8.0963229,3.5740733 8.0381985,3.7113882 7.9853535,3.8606221 7.9325087,4.0098562 7.8684212,4.1660776 7.842937,4.2077809 7.817453,4.2494841 7.7884581,4.3212185 7.778504,4.3671906 7.761919,4.4437876 7.751556,4.4510556 7.6545579,4.4541086 l -0.1058478,0.00333 -0.032738,0.1573481 c -0.029952,0.1439544 -0.1221275,0.7400473 -0.1347428,0.871369 -0.0072,0.074896 0.042837,0.058356 0.247435,-0.081802 0.6458991,-0.4424663 0.6091277,-0.439735 0.979682,-0.072768 0.394441,0.3906221 0.4716723,0.4184052 0.527866,0.1898941 z M 6.2489049,8.3465891 c 0.094565,-0.2100632 -0.629654,-0.06312 -0.8011144,0.1625446 -0.1372747,0.1806717 0.3314921,0.1131905 0.7742713,-0.1114602 0.00274,-0.00139 0.014821,-0.024379 0.026843,-0.051084 z M 7.5437806,6.7254272 C 7.4694299,6.6222875 7.3827734,6.5009051 7.3512108,6.4556886 7.2946053,6.374596 7.2912076,6.3747746 7.1017152,6.4687998 6.7808105,6.6280321 6.5971086,6.9181601 6.7889815,6.9627128 c 0.025109,0.00583 0.1018168,0.064761 0.1704623,0.1309575 0.151083,0.145692 0.1969139,0.1593231 0.2757659,0.082018 0.033331,-0.032678 0.140192,-0.1004252 0.2374677,-0.1505502 0.097276,-0.050125 0.1834848,-0.095872 0.1915757,-0.1016608 0.00809,-0.00579 -0.046122,-0.094911 -0.1204725,-0.1980501 z M 6.2200582,7.761391 C 6.2041592,7.5909449 5.9269356,7.6484785 5.539187,7.9026956 5.2830183,8.0706458 5.2147316,8.2468753 5.4231887,8.2020555 5.6758826,8.1477244 6.2276343,7.8426088 6.2200582,7.761391 Z M 5.7928413,7.1910589 C 5.48059,6.8389352 5.3956693,6.8072579 5.1860386,6.9647084 4.8856329,7.1903387 4.8752292,7.3154447 5.1354421,7.5731385 L 5.331559,7.7673563 5.4612305,7.6849604 C 5.5325497,7.6396423 5.6662199,7.5673089 5.7582755,7.524219 6.0003175,7.4109227 5.9990072,7.4235509 5.7928413,7.1910589 Z M 6.3660732,6.6615432 c -0.012311,-0.01219 -0.026829,-0.017762 -0.032264,-0.01238 -0.00544,0.00538 -0.00604,0.025932 -0.00136,0.045666 0.00469,0.019734 0.019212,0.025305 0.032264,0.01238 0.013051,-0.012926 0.013658,-0.033475 0.00136,-0.045666 z M 6.8745878,6.0555973 c -0.092564,-0.091668 -0.2047603,-0.089236 -0.1488912,0.00323 0.027432,0.045399 0.06948,0.078503 0.1036922,0.081632 0.08517,0.00779 0.1036745,-0.026951 0.045199,-0.08486 z"
             id="path13"
             sodipodi:nodetypes="cssssssssssssssscssssssssssssssssssssssssssscszsccsssssssssssssssssssssssssssssssssscsscsssssscssssssssssssssssssssssscscsssssscsssssssscscsccsssssssssssssssssssssssscsssssssssssssssssssssssssscssscscscsssss" /><path
             style="fill:#3e74a1;stroke-width:0.119122"
             d="M 8.400706,10.700041 C 7.8585815,11.016539 7.6240797,11.001896 7.1879431,10.62431 7.178091,10.61578 7.0530048,10.724693 6.9099739,10.866339 6.377757,11.393403 6.0589863,11.495173 5.6376835,11.272525 5.1801047,11.030706 4.9805682,10.52656 5.1545366,10.051812 5.2322412,9.8397617 5.2601224,9.4718708 5.2027912,9.4150946 5.1914891,9.4039022 5.1997086,9.3156858 5.2210564,9.2190586 5.2978736,8.87136 5.261091,8.3383475 5.1496817,8.1847718 5.1117298,8.1324557 5.0546765,8.0153702 5.0228966,7.9245819 4.9911167,7.8337937 4.9443918,7.7389896 4.9190634,7.7139064 4.5501449,7.3485598 4.8523721,6.7117273 5.4875474,6.516036 5.7165477,6.445483 5.6965218,6.4682551 5.6609808,6.3188203 5.6100903,6.1048456 5.6471512,5.9808249 5.7739426,5.9407952 5.8318105,5.9225257 5.9703942,5.8443829 6.0819059,5.7671445 6.4684385,5.4994138 6.4757377,5.4996657 6.8816029,5.7947385 7.2938759,6.0944703 7.3141176,6.0953402 7.3658212,5.8155507 7.4218835,5.5121758 8.1870818,4.9630745 8.344864,5.1129961 8.7077213,5.4577761 9.1642578,5.8287072 9.3709318,5.9466654 9.581854,6.0670482 9.6610224,6.1333489 9.9982866,6.4720525 10.438247,6.9138904 10.42326,6.8779592 10.292166,7.1766311 9.9305502,8.0005066 9.8023214,8.2474823 9.8541204,8.3618292 9.8742614,8.4062885 9.8526361,8.4615418 9.8239837,8.4899267 9.79823,8.5154311 9.7901944,8.6883637 9.7375026,8.860388 9.4831291,9.6908475 9.0070007,10.346079 8.4007067,10.700041 Z M 9.0826202,9.7956031 C 9.3825219,9.3321161 9.4720449,9.1570008 9.5369053,8.9069806 9.573889,8.7644182 9.6221261,8.5857608 9.6440988,8.5099643 9.6660718,8.4341677 9.6821476,8.3502297 9.6798233,8.3234352 9.6774979,8.296641 9.7838693,7.9924949 9.9162022,7.647555 10.195341,6.9199505 10.189475,6.955818 10.057186,6.7853964 9.9031196,6.5869197 9.8444575,6.6692073 9.6833589,7.3097776 9.2055926,9.2095016 8.615217,10.183276 7.7471279,10.503427 7.4665287,10.606912 7.4523592,10.676561 7.6998439,10.735849 8.0036559,10.808631 8.7598384,10.29445 9.0826202,9.7956031 Z M 8.7533568,9.3463413 C 8.9205856,8.9790762 8.0312717,8.8922512 7.4707776,9.2211213 6.9731366,9.5131122 6.9918022,10.49696 7.493344,10.410584 7.777271,10.361687 8.6121008,9.6565654 8.7533568,9.3463413 Z M 8.9302994,8.8015091 C 8.9347415,8.7692923 8.9651103,8.6895239 8.997788,8.624246 9.0745151,8.4709737 9.2870473,7.8698791 9.2980182,7.7751191 9.3038198,7.7250051 9.262097,7.6444555 9.1646623,7.5176665 8.8253775,7.076165 8.7426864,6.782655 8.805017,6.2411142 8.8449127,5.8944913 8.5958383,5.540248 8.4859757,5.7873612 c -0.011302,0.025422 -0.060684,0.096348 -0.1097383,0.1576132 -0.049054,0.061265 -0.0923,0.1282817 -0.096103,0.1489254 -0.0038,0.020644 -0.039849,0.074341 -0.080102,0.1193276 -0.040253,0.044986 -0.081392,0.1206966 -0.091419,0.1682452 -0.010026,0.047548 -0.035804,0.094211 -0.057283,0.1036936 -0.08384,0.037015 -0.056171,0.1121273 0.1190122,0.3230708 0.2061968,0.2482884 0.3120515,0.4270068 0.3456452,0.5835657 0.081055,0.3777465 0.056689,0.6982601 -0.084485,1.1113259 -0.098453,0.2880661 -0.096233,0.2928413 0.1629749,0.3505898 0.1059097,0.023596 0.2175105,0.05437 0.2480018,0.068388 0.054908,0.025243 0.070708,0.00355 0.087821,-0.1205973 z M 8.7393777,8.3239562 c -0.1115467,0.055419 -0.1169611,0.054746 -0.082574,-0.010256 0.02024,-0.038261 0.058024,-0.1381969 0.083964,-0.2220808 0.042719,-0.1381392 0.054006,-0.1528579 0.1197468,-0.1561418 0.03992,-0.002 0.099518,-0.030301 0.1324392,-0.062903 0.078247,-0.077489 0.1003252,-0.050422 0.07812,0.09577 l -0.018082,0.1190531 -0.096792,0.00305 c -0.1199592,0.00378 -0.1307547,0.013965 -0.089244,0.084234 0.037898,0.064152 0.033567,0.06922 -0.1275765,0.1492788 z M 7.0576555,10.407577 c -0.011711,-0.03837 -0.051636,-0.09359 -0.088722,-0.12271 l -0.067428,-0.05294 -0.3062075,0.273716 c -0.3021174,0.27006 -0.5431008,0.431242 -0.7356278,0.492025 -0.1331465,0.04204 -0.1543078,0.06905 -0.097864,0.124952 0.1414666,0.140097 0.3628885,0.105103 0.6763374,-0.106887 0.087877,-0.05943 0.1840055,-0.124008 0.213619,-0.143501 0.1891307,-0.124493 0.426705,-0.39646 0.4058919,-0.464652 z M 8.0983282,8.7764597 C 7.9948888,8.6740218 7.6961173,8.747611 7.452322,8.9355748 7.2973502,9.0550567 7.3295885,9.0729825 7.5210785,8.9738063 7.5886125,8.9388293 7.7407661,8.8897932 7.859198,8.8648372 8.0742734,8.8195165 8.1234527,8.8013409 8.0983282,8.7764597 Z M 6.9470843,9.7978676 C 7.0251787,9.4265489 6.021348,9.3733113 5.571063,9.724891 c -0.3842659,0.300033 -0.3759531,1.153174 0.011233,1.152957 0.3381077,-1.9e-4 1.2973302,-0.75924 1.3647872,-1.0799804 z M 9.569599,7.0581599 C 9.7820593,6.4961612 9.7721342,6.4522275 9.3716802,6.1820692 8.9734274,5.9133959 8.8840646,6.6883876 9.2589688,7.1595494 9.438335,7.3849683 9.447137,7.3820953 9.569599,7.0581599 Z M 8.1925123,8.3904119 C 8.1925598,8.3075326 8.1556923,8.288547 7.9667017,8.2741275 7.625061,8.2480612 7.2332715,8.4269857 7.2495626,8.6016343 c 0.00622,0.066676 0.1038858,0.096576 0.1538991,0.047116 0.054685,-0.05408 0.4320231,-0.164344 0.5926913,-0.1731934 0.1924161,-0.010598 0.1963176,-0.01229 0.1963593,-0.085145 z M 6.9721903,9.1755562 C 6.9640634,9.0921705 6.9560397,8.9872885 6.9543553,8.9424852 6.9526775,8.8976818 6.9435868,8.7869854 6.9341648,8.6964931 6.9247429,8.6060007 6.9333259,8.5050532 6.9532281,8.4721653 6.9867748,8.4167412 6.9784379,8.3112532 6.9094942,7.9187938 6.8228005,7.4252927 6.2872066,6.7159891 6.1750536,6.9461517 c -0.072864,0.1495337 -0.06788,0.1675428 0.090016,0.3252243 0.1569233,0.1567102 0.2622241,0.4048626 0.2421377,0.570623 -0.00713,0.058829 0.012128,0.1812837 0.042795,0.2721218 0.067872,0.2010472 0.04714,0.6929942 -0.040173,0.9532434 -0.033809,0.1007725 -0.061847,0.1902504 -0.062308,0.1988398 -4.517e-4,0.00859 0.068869,0.02359 0.1540649,0.033335 0.085196,0.00974 0.1942966,0.032289 0.2424457,0.050098 0.1178582,0.043592 0.1456854,0.00579 0.1281567,-0.1740813 z M 8.1366118,7.8063341 C 8.0537228,7.6436589 7.1906363,7.935922 7.2650142,8.1014792 c 0.033747,0.075117 0.073263,0.070177 0.4648573,-0.05812 C 8.066638,7.9330261 8.170366,7.8725792 8.1366118,7.8063341 Z M 6.1627743,9.2118646 c -0.051066,-0.050572 -0.3522634,0.047018 -0.5065132,0.164113 -0.078893,0.059889 -0.063769,0.059732 0.1356701,-0.00142 0.1234539,-0.037849 0.2536423,-0.066147 0.2893078,-0.062884 0.090575,0.00829 0.1353477,-0.046525 0.081535,-0.099816 z M 8.0680278,7.2258717 C 8.0101022,7.097919 7.7932005,7.1292037 7.4825901,7.3103125 7.2186236,7.4642245 7.1182513,7.5759115 7.1687658,7.6595134 7.2294878,7.7600089 7.2576258,7.7556214 7.490503,7.6093414 7.8181521,7.4035318 7.8951371,7.3602238 7.9553743,7.347827 8.0328833,7.331876 8.0886743,7.271478 8.0680278,7.2258717 Z M 6.2910349,8.8151478 c -0.139366,-0.1745015 -0.9208999,0.07945 -0.9010014,0.2927709 0.00876,0.093875 0.080791,0.1117755 0.1844554,0.045837 0.1442349,-0.091743 0.4033278,-0.178485 0.5632657,-0.1885762 0.1729958,-0.010915 0.2242891,-0.061121 0.1532803,-0.1500317 z m -0.04213,-0.4685587 c 0.094565,-0.2100632 -0.629654,-0.06312 -0.8011144,0.1625446 -0.1372747,0.1806717 0.3314921,0.1131905 0.7742713,-0.1114602 0.00274,-0.00139 0.014821,-0.024379 0.026843,-0.051084 z M 7.5437806,6.7254272 C 7.4694299,6.6222875 7.3827734,6.5009051 7.3512108,6.4556886 7.2946053,6.374596 7.2912076,6.3747746 7.1017152,6.4687998 6.7808105,6.6280321 6.5971086,6.9181601 6.7889815,6.9627128 c 0.025109,0.00583 0.1018168,0.064761 0.1704623,0.1309575 0.151083,0.145692 0.1969139,0.1593231 0.2757659,0.082018 0.033331,-0.032678 0.140192,-0.1004252 0.2374677,-0.1505502 0.097276,-0.050125 0.1834848,-0.095872 0.1915757,-0.1016608 0.00809,-0.00579 -0.046122,-0.094911 -0.1204725,-0.1980501 z M 6.2200582,7.761391 C 6.2041592,7.5909449 5.9269356,7.6484785 5.539187,7.9026956 5.2830183,8.0706458 5.2147316,8.2468753 5.4231887,8.2020555 5.6758826,8.1477244 6.2276343,7.8426088 6.2200582,7.761391 Z M 5.7928413,7.1910589 C 5.48059,6.8389352 5.3956693,6.8072579 5.1860386,6.9647084 4.8856329,7.1903387 4.8752292,7.3154447 5.1354421,7.5731385 L 5.331559,7.7673563 5.4612305,7.6849604 C 5.5325497,7.6396423 5.6662199,7.5673089 5.7582755,7.524219 6.0003175,7.4109227 5.9990072,7.4235509 5.7928413,7.1910589 Z M 6.3660732,6.6615432 c -0.012311,-0.01219 -0.026829,-0.017762 -0.032264,-0.01238 -0.00544,0.00538 -0.00604,0.025932 -0.00136,0.045666 0.00469,0.019734 0.019212,0.025305 0.032264,0.01238 0.013051,-0.012926 0.013658,-0.033475 0.00136,-0.045666 z M 6.8745878,6.0555973 c -0.092564,-0.091668 -0.2047603,-0.089236 -0.1488912,0.00323 0.027432,0.045399 0.06948,0.078503 0.1036922,0.081632 0.08517,0.00779 0.1036745,-0.026951 0.045199,-0.08486 z"
             id="path12"
             sodipodi:nodetypes="ssssssssssssssssssssssssssssssssssssssssssssssssssssssssssscsscsssssscssssssssssssssssssssssssssscscsssssscsssssssscscsccsssssssssssssssssssssssssssssssscssscscscsssss" /><path
             style="fill:#5a5e60;stroke-width:0.119122"
             d="M 8.400706,10.700041 C 7.8585815,11.016539 7.6240797,11.001896 7.1879431,10.62431 7.178091,10.61578 7.0530048,10.724693 6.9099739,10.866339 6.377757,11.393403 6.0589863,11.495173 5.6376835,11.272525 5.1801047,11.030706 4.9805682,10.52656 5.1545366,10.051812 5.2322412,9.8397617 5.2601224,9.4718708 5.2027912,9.4150946 5.1914891,9.4039022 5.1997086,9.3156858 5.2210564,9.2190586 5.2978736,8.87136 5.261091,8.3383475 5.1496817,8.1847718 5.1117298,8.1324557 5.0546765,8.0153702 5.0228966,7.9245819 4.9911167,7.8337937 4.9443918,7.7389896 4.9190634,7.7139064 4.5501449,7.3485598 4.8523721,6.7117273 5.4875474,6.516036 5.7165477,6.445483 5.6965218,6.4682551 5.6609808,6.3188203 5.6100903,6.1048456 5.6471512,5.9808249 5.7739426,5.9407952 5.8318105,5.9225257 5.9703942,5.8443829 6.0819059,5.7671445 6.4684385,5.4994138 6.4757377,5.4996657 6.8816029,5.7947385 7.2938759,6.0944703 7.3141176,6.0953402 7.3658212,5.8155507 7.4218835,5.5121758 8.1870818,4.9630745 8.344864,5.1129961 8.7077213,5.4577761 9.1642578,5.8287072 9.3709318,5.9466654 9.581854,6.0670482 9.6610224,6.1333489 9.9982866,6.4720525 10.438247,6.9138904 10.42326,6.8779592 10.292166,7.1766311 9.9305502,8.0005066 9.8823176,8.2562613 9.8615925,8.3907731 9.8408686,8.5252849 9.878253,8.3918207 9.7375026,8.860388 9.4876421,9.6921855 9.0070007,10.346079 8.4007067,10.700041 Z M 9.0826202,9.7956031 C 9.3825219,9.3321161 9.4720449,9.1570008 9.5369053,8.9069806 9.573889,8.7644182 9.6221261,8.5857608 9.6440988,8.5099643 9.6660718,8.4341677 9.6821476,8.3502297 9.6798233,8.3234352 9.6774979,8.296641 9.7838693,7.9924949 9.9162022,7.647555 10.195341,6.9199505 10.189475,6.955818 10.057186,6.7853964 9.9031196,6.5869197 9.8444575,6.6692073 9.6833589,7.3097776 9.2055926,9.2095016 8.615217,10.183276 7.7471279,10.503427 7.4665287,10.606912 7.4523592,10.676561 7.6998439,10.735849 8.0036559,10.808631 8.7598384,10.29445 9.0826202,9.7956031 Z M 8.7533568,9.3463413 C 8.9205856,8.9790762 8.0312717,8.8922512 7.4707776,9.2211213 6.9731366,9.5131122 6.9918022,10.49696 7.493344,10.410584 7.777271,10.361687 8.6121008,9.6565654 8.7533568,9.3463413 Z M 9.1793684,8.3551508 C 9.4119054,7.6831457 9.4116374,7.7124619 9.1879493,7.4166501 8.8717203,6.9984598 8.7930813,6.6860641 8.8816342,6.1998063 8.938922,5.8852307 8.952737,5.914092 8.606258,5.6245116 8.4129935,5.4629846 8.3346539,5.4571043 8.3484648,5.6051622 8.3545546,5.6704504 8.1430305,6.1550895 8.0233706,6.3500099 7.850946,6.6308812 7.8509473,6.632444 8.0237148,6.7704116 8.4606674,7.1193317 8.6158987,7.9025614 8.373334,8.5344399 8.2630381,8.8217594 8.248054,8.7976675 8.6142475,8.9217882 8.9688898,9.0419938 8.927236,9.0837599 9.1793596,8.3551517 Z M 7.0576555,10.407577 c -0.011711,-0.03837 -0.051636,-0.09359 -0.088722,-0.12271 l -0.067428,-0.05294 -0.3062075,0.273716 c -0.3021174,0.27006 -0.5431008,0.431242 -0.7356278,0.492025 -0.1331465,0.04204 -0.1543078,0.06905 -0.097864,0.124952 0.1414666,0.140097 0.3628885,0.105103 0.6763374,-0.106887 0.087877,-0.05943 0.1840055,-0.124008 0.213619,-0.143501 0.1891307,-0.124493 0.426705,-0.39646 0.4058919,-0.464652 z M 8.1245954,8.7580911 C 8.0198815,8.654391 7.7155035,8.7190418 7.4615935,8.8989147 7.3062287,9.008977 7.2619189,9.1077146 7.3935454,9.0505494 7.6427441,8.9423226 7.7558651,8.9044696 7.9171743,8.8753309 8.1150573,8.8395856 8.1735193,8.8065413 8.1245954,8.7580911 Z M 6.9470843,9.7978676 C 7.0251787,9.4265489 6.021348,9.3733113 5.571063,9.724891 c -0.3842659,0.300033 -0.3759531,1.153174 0.011233,1.152957 0.3381077,-1.9e-4 1.2973302,-0.75924 1.3647872,-1.0799804 z M 9.569599,7.0581599 C 9.7820593,6.4961612 9.7721342,6.4522275 9.3716802,6.1820692 8.9734274,5.9133959 8.8840646,6.6883876 9.2589688,7.1595494 9.438335,7.3849683 9.447137,7.3820953 9.569599,7.0581599 Z M 8.1925123,8.3904119 C 8.1925598,8.3075326 8.1556923,8.288547 7.9667017,8.2741275 7.625061,8.2480612 7.2332715,8.4269857 7.2495626,8.6016343 c 0.00622,0.066676 0.1038858,0.096576 0.1538991,0.047116 0.054685,-0.05408 0.4320231,-0.164344 0.5926913,-0.1731934 0.1924161,-0.010598 0.1963176,-0.01229 0.1963593,-0.085145 z m -1.166806,0.646289 C 7.0148044,8.6112477 7.0162887,8.5390387 7.0383205,8.4234332 7.0826583,8.1907706 6.9077129,7.5548541 6.7575437,7.4028255 6.4621299,7.1037541 6.4059099,6.4788991 6.664075,6.3639727 6.9219639,6.2491691 6.9837202,6.0955721 6.820026,5.9761004 6.6349388,5.8410153 6.6244536,5.8460903 6.5281972,6.1173491 6.4808997,6.2506373 6.3530274,6.5086223 6.2440366,6.6906493 5.9948519,7.1068158 5.9957044,7.0936262 6.2046144,7.3005135 6.4008705,7.4948692 6.4848413,7.6837794 6.4543983,7.862454 c -0.010377,0.06091 0.00929,0.1808159 0.043701,0.2664584 0.079519,0.1978917 0.056752,0.6943241 -0.043912,0.9575051 -0.039472,0.1031972 -0.072427,0.1952938 -0.073234,0.2046589 -8.174e-4,0.00937 0.086706,0.034446 0.1944732,0.055735 0.107767,0.02129 0.2406736,0.049267 0.2953478,0.062172 0.1469263,0.034683 0.1642913,-0.00704 0.154932,-0.3722825 z M 8.1366118,7.8063341 C 8.0537228,7.6436589 7.1906363,7.935922 7.2650142,8.1014792 c 0.033747,0.075117 0.073263,0.070177 0.4648573,-0.05812 C 8.066638,7.9330261 8.170366,7.8725792 8.1366118,7.8063341 Z M 8.2467177,7.5919682 c -0.012311,-0.01219 -0.032466,-0.01218 -0.04479,2.51e-5 -0.012324,0.012205 -0.012335,0.032165 -2.54e-5,0.044356 0.012311,0.01219 0.032466,0.01218 0.04479,-2.52e-5 0.012324,-0.012206 0.012337,-0.032165 2.54e-5,-0.044356 z M 6.20815,9.2124196 C 6.1467865,9.1516501 5.9807566,9.1827316 5.7657866,9.295232 5.511315,9.4284045 5.5117846,9.4811579 5.7667546,9.4043843 5.881015,9.36998 6.0329484,9.3368146 6.1043845,9.3306832 6.2424061,9.318837 6.2764376,9.2800493 6.2081466,9.2124196 Z M 8.0680278,7.2258717 C 8.0101022,7.097919 7.7932005,7.1292037 7.4825901,7.3103125 7.2186236,7.4642245 7.1182513,7.5759115 7.1687658,7.6595134 7.2294878,7.7600089 7.2576258,7.7556214 7.490503,7.6093414 7.8181521,7.4035318 7.8951371,7.3602238 7.9553743,7.347827 8.0328833,7.331876 8.0886743,7.271478 8.0680278,7.2258717 Z M 6.2910349,8.8151478 c -0.139366,-0.1745015 -0.9208999,0.07945 -0.9010014,0.2927709 0.00876,0.093875 0.080791,0.1117755 0.1844554,0.045837 C 5.7187238,9.0620129 5.9778167,8.9752707 6.1377546,8.9651795 6.3107504,8.9542645 6.3620437,8.9040584 6.2910349,8.8151478 Z M 7.7347417,6.846633 C 7.7144759,6.8118438 7.665952,6.7514759 7.6269133,6.7124819 7.525669,6.6113533 7.4582429,6.447418 7.5418556,6.5056778 7.6066882,6.5508522 7.6561037,6.5220393 7.6561513,6.4390365 7.6562014,6.3514994 7.5797681,6.3025694 7.4990838,6.3384874 7.4576064,6.3569527 7.3941142,6.3632118 7.3579903,6.3523988 7.195385,6.3037256 6.6712821,6.6949081 6.6722327,6.864238 6.6732868,7.0513188 7.1705891,7.3268261 7.292338,7.2077758 7.3188694,7.1818325 7.4201663,7.1195948 7.517442,7.0694699 7.7517487,6.9487345 7.7783377,6.9214681 7.7347417,6.846633 Z M 6.2489049,8.3465891 c 0.094565,-0.2100632 -0.629654,-0.06312 -0.8011144,0.1625446 -0.1372747,0.1806717 0.3314921,0.1131905 0.7742713,-0.1114602 0.00274,-0.00139 0.014821,-0.024379 0.026843,-0.051084 z M 6.2200582,7.761391 C 6.2041592,7.5909449 5.9269356,7.6484785 5.539187,7.9026956 5.2830183,8.0706458 5.2147316,8.2468753 5.4231887,8.2020555 5.6758826,8.1477244 6.2276343,7.8426088 6.2200582,7.761391 Z M 8.2150497,5.3215607 c -0.051189,7.744e-4 -0.2465393,0.1308714 -0.2264299,0.1507861 0.02121,0.021006 0.1472251,-0.037511 0.2120401,-0.098464 0.034819,-0.032745 0.040312,-0.052718 0.01439,-0.052322 z m -2.3057568,1.94722 C 5.8504335,7.2172521 5.778352,7.128019 5.7491117,7.0704848 5.6112599,6.7992417 5.3498864,6.7812686 5.1027254,7.0260366 4.861175,7.2652481 4.8656224,7.3537681 5.1330632,7.6298652 l 0.178107,0.183872 0.2511369,-0.1451693 C 5.7004325,7.5887247 5.8582718,7.5053758 5.9130612,7.4833482 6.0422832,7.4313953 6.0414593,7.3844862 5.9092929,7.2687807 Z M 7.8475686,5.5665886 c -0.014884,8.2e-6 -0.035005,0.01836 -0.044715,0.040782 -0.01073,0.024778 -1.173e-4,0.024772 0.02706,-1.5e-5 0.024593,-0.022431 0.032538,-0.040776 0.017655,-0.040767 z M 5.7952302,6.8539913 c -0.00382,-0.040909 -0.016646,-0.054612 -0.044929,-0.047984 -0.042041,0.00985 -0.064137,0.114221 -0.031107,0.1469313 0.030931,0.030631 0.081932,-0.035738 0.076036,-0.098947 z"
             id="path11"
             sodipodi:nodetypes="sssssssssssssssssssszssssssssssssssssscssssscssccsscssssssssssssssssssssssssssssssssssssscssssssssssssscsssccssssssssssssssssscsssssssssssssssssssscssssssssssss" /><path
             style="fill:#304c64;stroke-width:0.119122"
             d="M 8.587832,10.548287 C 8.2359569,10.796558 7.8949291,10.926861 7.7099546,10.883715 7.5669687,10.850364 7.3112469,10.708269 7.283646,10.646832 7.2360234,10.540829 7.1506611,10.583651 6.8848479,10.846891 6.2903909,11.435592 5.8587911,11.503439 5.4269271,11.076074 5.1210922,10.773425 5.0432998,10.436227 5.1889456,10.044522 5.2775306,9.8062781 5.3049381,9.5162527 5.2445213,9.4564208 5.2329569,9.4449681 5.2469112,9.2840345 5.2755283,9.0987896 5.3041463,8.9135446 5.3148535,8.7139042 5.2993222,8.6551442 5.283791,8.5963842 5.2711166,8.4904359 5.271157,8.4197035 5.2712022,8.340854 5.242738,8.2524192 5.1975839,8.1911211 5.1570782,8.1361331 5.10309,8.030182 5.0776103,7.955674 5.0521309,7.8811663 4.97714,7.7381709 4.9109641,7.6379068 4.6366045,7.2222193 4.8966118,6.7330508 5.4922517,6.5442932 L 5.7028794,6.4775456 5.6942577,6.2577338 C 5.6870407,6.073736 5.6967767,6.0322096 5.7540182,6.0028606 5.7916288,5.9835758 5.9073521,5.912126 6.0111815,5.8440813 6.4945676,5.5272937 6.4613477,5.5279748 6.8682702,5.8265088 7.3000057,6.1432478 7.3640801,6.1489915 7.3823673,5.8725933 7.395515,5.6738709 7.4804927,5.5743064 7.8501017,5.3245694 8.2738665,5.0382403 8.2300118,5.0341508 8.611514,5.3955739 8.9817393,5.7463138 9.0826851,5.8256707 9.3700414,5.9918776 9.5481265,6.094882 9.6433191,6.1768893 9.9658784,6.5051839 L 10.349769,6.8959007 10.229524,7.223091 C 10.163389,7.4030455 10.052436,7.6937056 9.982962,7.8690021 9.9134877,8.0442984 9.8173524,8.2288379 9.8169624,8.2974563 9.8165752,8.3660747 9.8132991,8.4428274 9.8051484,8.4508988 9.7969978,8.4589703 9.7687535,8.6414541 9.6992891,8.8551706 9.4564779,9.6022124 9.0490406,10.222873 8.5878314,10.548286 Z M 9.1536898,9.7510055 C 9.3530647,9.4515562 9.5123261,9.1534547 9.5554567,8.9989893 9.6008754,8.8363279 9.6800251,8.5169259 9.7102174,8.3744647 9.7252904,8.3033456 9.8327651,7.9903752 9.9490512,7.6789748 10.225458,6.9387879 10.217605,6.9658225 10.18021,6.883274 9.9915504,6.4668054 9.8189492,6.5893914 9.6573431,7.2546284 9.1773266,9.2305729 8.6245428,10.137546 7.6828302,10.494287 7.4036264,10.600055 7.3801398,10.654149 7.580811,10.729255 7.9766989,10.877425 8.7055136,10.42414 9.1536898,9.7510055 Z M 8.63511,9.5607386 C 8.8680909,9.2857943 8.8713064,9.2403285 8.6668488,9.1119721 7.8494917,8.5988434 6.7263177,9.4895053 7.1675448,10.3009 7.3586519,10.652336 7.9724265,10.342782 8.63511,9.5607386 Z M 9.1793684,8.3551508 C 9.4119054,7.6831457 9.4116374,7.7124619 9.1879493,7.4166501 8.8707768,6.9972122 8.7927634,6.6852084 8.8828806,6.1965689 L 8.9352399,5.9126621 8.6734502,5.6842747 C 8.3637692,5.4141065 8.3831842,5.4193729 8.3501595,5.596579 8.3223075,5.7460271 8.1505378,6.1417867 8.0232174,6.3498572 7.8509611,6.6313633 7.8509624,6.6324552 8.0237337,6.7704107 8.4606864,7.1193309 8.6159176,7.9025605 8.3733529,8.5344391 8.2630571,8.8217586 8.2480729,8.7976667 8.6142664,8.9217874 8.9689087,9.0419929 8.9272549,9.083759 9.1793786,8.3551508 Z M 7.098544,10.475547 c 0.011939,-0.02652 -0.00752,-0.09854 -0.043253,-0.16004 -0.099276,-0.170885 -0.1419891,-0.161762 -0.3892963,0.08315 -0.2504793,0.248054 -0.5811516,0.476422 -0.8255514,0.570139 -0.253176,0.09708 -0.2297238,0.187171 0.066765,0.256471 0.253649,0.05929 1.0538317,-0.444278 1.1913351,-0.749721 z M 8.1693853,8.7580659 C 8.0025903,8.5928858 7.2926712,8.8231086 7.2713144,9.0493053 7.2620344,9.1475879 7.2979486,9.1459431 7.500544,9.0388069 7.6090046,8.981451 7.8082279,8.9141209 7.9432626,8.8891843 8.2293598,8.8363514 8.2413915,8.8293749 8.1693853,8.7580659 Z M 6.8785872,9.9902022 C 7.2759664,9.4985136 6.357443,9.2453008 5.6213489,9.6436147 5.2717677,9.8327794 5.1199202,10.575708 5.3784988,10.831782 c 0.1848473,0.183058 0.5338876,0.0619 1.0287054,-0.35708 0.2259333,-0.191306 0.276092,-0.242861 0.471383,-0.4844998 z M 9.5924234,7.0981326 C 9.6868263,6.8159983 9.7737841,6.4412578 9.7502106,6.4181566 9.723175,6.3916631 9.2634119,6.0736356 9.213652,6.0470085 9.0076955,5.9367982 8.9106936,6.5962754 9.0819933,6.9421043 9.3491738,7.4815026 9.4534783,7.5133862 9.5924234,7.0981326 Z M 8.2263691,8.3948121 c 0.036204,-0.230108 -0.6748066,-0.2030814 -0.9149938,0.03478 -0.098248,0.097297 -0.1214897,0.2156881 -0.051468,0.2621712 0.045975,0.03052 0.057246,0.027776 0.3667941,-0.089293 0.1230123,-0.046523 0.2976342,-0.088344 0.3880487,-0.092937 0.1845236,-0.00937 0.1960248,-0.015609 0.211619,-0.1147212 z M 7.0257063,9.0367009 C 7.0148044,8.6112477 7.0162887,8.5390387 7.0383205,8.4234332 7.0826583,8.1907706 6.9077129,7.5548541 6.7575437,7.4028255 6.4614723,7.1030881 6.4065752,6.4955731 6.6635727,6.3629008 6.786549,6.2994154 6.9447721,6.1588402 6.9586552,6.1007307 6.9697981,6.0540889 6.9530021,6.0403333 6.7207525,5.9058944 L 6.6184162,5.8466569 6.5307209,6.1035821 C 6.4824888,6.244891 6.3536661,6.5092547 6.2444488,6.6910571 5.9947992,7.106622 5.9956519,7.0935741 6.2046144,7.3005135 6.4008705,7.4948692 6.4848413,7.6837794 6.4543983,7.862454 c -0.010377,0.06091 0.00956,0.1815041 0.044316,0.2679878 0.081573,0.203005 0.053844,0.7267495 -0.05185,0.9793201 -0.085942,0.2053708 -0.082485,0.2121518 0.1199443,0.2353066 0.083997,0.00961 0.2039793,0.038288 0.2666279,0.063734 0.1693776,0.068796 0.201953,0.00575 0.1922698,-0.3721016 z M 8.1825941,7.8225168 C 8.1342404,7.6105072 7.2889784,7.8114256 7.2348095,8.0478043 c -0.037953,0.1656158 0.0757,0.1711562 0.5114383,0.024932 0.440771,-0.1479129 0.4574927,-0.157502 0.4363463,-0.2502195 z M 8.2875644,7.5709312 C 8.2689294,7.5294512 8.1635114,7.5413752 8.113821,7.5905842 8.080208,7.6238712 8.190006,7.7252506 8.23589,7.7032937 8.288599,7.6780707 8.310497,7.6219777 8.2875644,7.5709312 Z M 6.2638148,9.2453546 C 6.1845627,9.0937634 5.8042294,9.1675833 5.5764202,9.378773 5.4166482,9.5268891 5.4873822,9.5536003 5.7529016,9.445418 5.8767498,9.394958 6.0366829,9.354882 6.1083086,9.356361 6.2604069,9.359501 6.3063467,9.326708 6.2638148,9.2453546 Z M 8.1006251,7.2025021 C 8.0088204,7.0269007 7.5629061,7.1568128 7.202631,7.4641225 6.9372956,7.69045 7.1830644,7.8500244 7.4929903,7.6526496 7.6082882,7.5792229 7.7762367,7.4822036 7.8662094,7.4370512 8.0882925,7.3255997 8.1386427,7.2752208 8.1006251,7.2025021 Z M 6.3558441,8.8793635 C 6.3559747,8.6512573 5.7792081,8.6912616 5.4626401,8.9413157 5.2364634,9.1199704 5.3454333,9.302278 5.601506,9.1736396 5.8217626,9.0629935 6.0406974,8.9965351 6.1704633,9.0009308 c 0.121796,0.00413 0.1853326,-0.03754 0.1853808,-0.1215673 z m 0.030867,-0.3777419 c -0.026795,-0.026536 -0.1187415,0.00759 -0.1187623,0.044081 -2.24e-5,0.038843 0.073871,0.046098 0.1095578,0.010757 0.01776,-0.017587 0.021901,-0.042264 0.0092,-0.054838 z M 6.2936948,8.346564 C 6.3493565,8.2229195 6.1317723,8.1567785 5.9105625,8.2301002 5.6084742,8.3302294 5.395927,8.458082 5.3762231,8.551519 5.340823,8.719388 5.4360105,8.7380649 5.7234477,8.6196483 5.844588,8.5697416 6.0053083,8.5100309 6.0806036,8.4869579 6.2289129,8.441511 6.260245,8.4208681 6.2936948,8.346564 Z M 7.7347417,6.846633 C 7.7144759,6.8118438 7.665952,6.7514759 7.6269133,6.7124819 7.525669,6.6113533 7.4582429,6.447418 7.5418556,6.5056778 c 0.064833,0.045174 0.1142481,0.016362 0.1142957,-0.066641 5.09e-5,-0.088812 -0.076489,-0.13642 -0.1597394,-0.09936 -0.042947,0.019119 -0.099595,0.025284 -0.1258829,0.013703 C 7.2181977,6.2862625 6.6860331,6.6620449 6.6683618,6.8492076 6.6495716,7.0482161 7.157196,7.3399233 7.292338,7.2077766 7.3188694,7.1818334 7.4201663,7.1195957 7.517442,7.0694707 7.7517487,6.9487354 7.7783377,6.921469 7.7347417,6.8466338 Z M 6.2525076,7.7451648 C 6.1923306,7.5480019 5.9456962,7.5947642 5.5042587,7.8870346 5.2364647,8.0643376 5.1917193,8.1467457 5.3173923,8.2311867 5.4525636,8.3220099 6.2949399,7.8841888 6.2525076,7.7451648 Z M 8.2484662,5.2858625 c -0.048391,-0.047922 -0.083605,-0.030877 -0.301024,0.1457054 -0.074482,0.060493 -0.1848256,0.1459415 -0.2452075,0.1898861 -0.089217,0.06493 -0.1032766,0.086345 -0.075046,0.1143017 0.026233,0.025979 0.074182,0.00289 0.1958286,-0.094296 C 7.9116165,5.5706759 8.0354756,5.4886263 8.0982598,5.4591275 8.2617154,5.3823283 8.3005921,5.3374837 8.2484662,5.2858625 Z M 6.0262115,7.3860116 C 6.0119667,7.3696415 5.9557536,7.3154871 5.9012937,7.2656695 5.8468338,7.2158522 5.777863,7.1270568 5.7480252,7.0683465 5.5885459,6.7545485 5.2339343,6.7816614 4.9757862,7.1273898 4.8559645,7.2878627 4.8783518,7.3642142 5.1182972,7.6134209 L 5.3111446,7.8137118 5.5656734,7.6663428 C 5.7056641,7.58529 5.8587089,7.5071786 5.9057728,7.4927624 6.017915,7.4584117 6.058166,7.422735 6.0262115,7.3860116 Z M 5.8170981,6.8465501 c -0.00431,-0.086628 -0.0058,-0.088096 -0.077814,-0.076983 -0.065728,0.010142 -0.070512,0.020425 -0.045675,0.098182 0.04638,0.1452084 0.1310513,0.1306735 0.123489,-0.021199 z M 6.4667199,5.7410328 c -0.030157,-0.00276 -0.1288188,0.055284 -0.2192496,0.1289849 -0.090431,0.073701 -0.2070031,0.1563468 -0.2590499,0.1836586 -0.1104927,0.057981 -0.1407791,0.12378 -0.060361,0.1311371 0.030791,0.00282 0.1403929,-0.06954 0.2644296,-0.1745705 0.1165132,-0.09866 0.2349509,-0.1847961 0.2631948,-0.1914141 0.070491,-0.016516 0.078311,-0.071641 0.011035,-0.077796 z"
             id="path10"
             sodipodi:nodetypes="sssssssssssssscssssssssscsssssssssssssssssssscsscssscssccssssssssssssssssssssssssssssssssscsssssssssssssssssssssssssssssssssssssssssssssssssscssssssssssssssssssssscssssssssssssssss" /><path
             style="fill:#222629;stroke-width:0.119122"
             d="M 8.602142,10.518077 C 8.0760416,10.92608 7.704035,10.972616 7.3332884,10.676804 L 7.1924504,10.564432 6.8767256,10.850914 C 6.3154229,11.360229 6.0751335,11.440166 5.6881517,11.246316 5.428229,11.116113 5.3026076,10.966586 5.1870365,10.649836 l -0.100664,-0.275893 0.09854,-0.28027 C 5.2555525,9.8927537 5.2796225,9.7581199 5.2699265,9.6181456 5.2624865,9.5107546 5.2548385,9.394513 5.2529285,9.359831 5.2510185,9.325149 5.2681475,9.181573 5.2909905,9.0407731 5.3138345,8.8999731 5.3192425,8.7250506 5.3030085,8.6520563 5.2867742,8.5790621 5.2754642,8.4698005 5.2778739,8.4092527 5.28075,8.3369876 5.2483488,8.2472313 5.1835637,8.1480008 5.1292832,8.0648602 5.0824293,7.9693316 5.0794437,7.935715 5.076458,7.9020985 5.0096439,7.7687756 4.9309677,7.6394421 4.6632114,7.1992853 4.926446,6.711953 5.5223094,6.5446795 5.7251681,6.4877321 5.7411908,6.467724 5.705182,6.3163209 5.660809,6.1297497 5.6905092,6.0220683 5.798681,5.9773338 5.8463941,5.9576015 5.9824282,5.8739805 6.1009791,5.791508 6.2195299,5.7090357 6.3626591,5.6269936 6.419044,5.6091921 6.5305441,5.5739904 6.5211024,5.569097 6.9454174,5.8819948 7.2946823,6.1395489 7.3648037,6.1380403 7.3823662,5.8725943 7.3955139,5.673872 7.4804916,5.5743075 7.8501006,5.3245705 8.2738654,5.0382414 8.2300108,5.0341518 8.6115129,5.395575 c 0.3707285,0.3512168 0.4716268,0.4304838 0.7587499,0.5960834 0.2042516,0.1178033 0.9363612,0.813982 0.9598502,0.9127418 0.0065,0.027381 -0.07194,0.2444334 -0.4051768,1.1210061 C 9.8789666,8.1463281 9.8265653,8.2851565 9.8051484,8.4508988 9.7837318,8.6166412 9.74651,8.6927168 9.6917754,8.8694297 9.5660004,9.275499 9.3283509,9.7384085 9.0881085,10.035966 8.8776084,10.296685 8.8417682,10.332241 8.6021416,10.518077 Z M 9.2176633,9.6682559 C 9.5045599,9.2229952 9.565847,9.0622972 9.710544,8.3758991 9.7399589,8.236364 9.9378782,7.6811593 10.102263,7.277046 10.231153,6.9601923 10.226886,6.8900754 10.069216,6.7339321 9.8959796,6.5623725 9.8020568,6.6534277 9.6976443,7.0941592 9.5487247,7.722757 9.1369953,8.9860325 8.998064,9.2406243 8.7203067,9.749615 8.077658,10.351341 7.6658006,10.488051 c -0.2994842,0.09941 -0.2990447,0.200878 0.0012,0.278328 0.3788701,0.09773 1.1168779,-0.424902 1.5506568,-1.0981231 z M 8.808157,9.321226 C 8.8941454,8.9134653 7.9836345,8.8364365 7.4198617,9.203777 6.8428159,9.5797656 6.9972316,10.640599 7.5980968,10.428251 7.9067416,10.319175 8.762879,9.5359366 8.808157,9.321226 Z M 9.235691,8.3644816 C 9.4577797,7.7160087 9.4600289,7.6643128 9.2759016,7.4402867 8.9750661,7.0742634 8.8488968,6.672626 8.9193366,6.305226 8.9395336,6.1998883 8.9611494,6.0574059 8.9673741,5.9885989 L 8.9786912,5.8634948 8.6849368,5.6254994 C 8.523372,5.4946017 8.3548485,5.3500883 8.3104402,5.3043583 8.208783,5.1996756 8.2197245,5.1960901 7.8765387,5.4465403 7.6127135,5.6390749 7.5887708,5.6624515 7.5887334,5.7275399 7.5886659,5.845321 7.6681027,5.8480016 7.8138386,5.7351355 7.9578427,5.6236113 8.273495,5.4447951 8.2931303,5.4636182 8.3221468,5.4914348 8.2314114,5.7931091 8.1353416,5.9882287 8.0402221,6.1814178 7.8368605,6.5789965 7.7798689,6.6831892 7.7251485,6.7832297 7.6796302,6.6597987 7.7166081,6.5116461 7.7665672,6.3114856 7.6009763,6.1478931 7.4748464,6.2728019 7.46018,6.2873263 7.4078205,6.2972385 7.3584913,6.2948296 7.1994667,6.287064 6.936908,6.4208487 6.7990144,6.579906 6.7762414,6.606174 6.7246044,6.63193 6.6842653,6.637143 6.6049063,6.647397 6.5720727,6.590531 6.6263293,6.5367994 c 0.018487,-0.018308 0.037049,-0.018831 0.041251,-0.00116 0.014765,0.06208 0.103172,-0.011095 0.164087,-0.1358153 C 6.8655258,6.3304979 6.9195765,6.2473949 6.95178,6.2151484 7.0563599,6.1104289 7.0268778,6.0606522 6.7451674,5.8663094 6.4500304,5.6627042 6.4616372,5.6623168 6.1646131,5.8856867 6.0465136,5.9745008 5.9370491,6.0501751 5.9213586,6.0538514 5.8756054,6.0645726 5.8293671,6.1744826 5.8587016,6.2027897 5.9375445,6.2788708 6.1386761,6.1863895 6.3415651,5.9807651 6.5972482,5.7216359 6.5071556,6.1519644 6.2083795,6.616928 5.9492376,7.0202118 5.9231158,7.1078836 6.0298299,7.2161888 c 0.04385,0.044504 0.043845,0.053668 -2.56e-5,0.044356 C 5.8949552,7.2319211 5.8008801,7.0758991 5.8559017,6.9721304 6.0414395,6.6222124 5.4451672,6.6325626 5.07994,6.9856008 4.7937281,7.26226 4.7951672,7.3497432 5.0911667,7.6681502 5.2929056,7.8851601 5.2768055,7.8847436 5.6511289,7.6826315 6.0831492,7.4493671 6.1064008,7.4317089 6.0944865,7.3459301 c -0.00917,-0.066043 4.518e-4,-0.06249 0.1020044,0.037694 0.2029222,0.2001668 0.2568277,0.4583461 0.1278734,0.6124454 -0.069466,0.083012 -0.068829,0.087244 0.028045,0.1862653 0.1323163,0.1352492 0.1383928,0.1468881 0.080543,0.1542736 -0.027292,0.00348 -0.088465,0.053848 -0.1359401,0.1119195 -0.098086,0.1199794 -0.045228,0.2082277 0.096414,0.1609661 0.097247,-0.032448 0.1010286,0.2131445 0.00691,0.4484491 -0.063934,0.159833 -0.067368,0.1615688 -0.1818686,0.091912 C 6.0374545,9.0397378 5.3987669,9.3575489 5.4722705,9.52116 5.4883889,9.5570374 5.5475191,9.5486082 5.7100894,9.4872587 5.8290913,9.4423507 6.0145558,9.4015995 6.1222329,9.3967007 6.3477337,9.386442 6.4462257,9.4089062 6.2496988,9.425773 5.8080877,9.4636756 5.4768359,9.6666849 5.3466188,9.9792299 5.1720137,10.398315 5.1974293,10.683815 5.42725,10.884981 5.7069537,11.12981 7.0532524,10.119303 6.9934379,9.7094294 6.9777153,9.6016888 6.9809958,9.6041744 6.656939,9.4545082 6.604053,9.4300822 6.609201,9.4271242 6.695415,9.4323992 6.750157,9.4357492 6.8073769,9.4508002 6.8225705,9.4658462 6.9877927,9.6294683 7.1014252,9.4050759 7.0888073,8.940102 7.0835198,8.7452732 7.0889906,8.5394142 7.1009633,8.4826376 7.1608447,8.1986778 6.9856949,7.5257657 6.8028428,7.3372817 6.7305063,7.2627173 6.667768,7.1651051 6.6461453,7.0934818 l -0.03606,-0.1194476 0.082378,0.051413 c 0.045307,0.028277 0.1248736,0.091135 0.1768132,0.1396837 C 7.0411564,7.3257906 7.1389789,7.352431 7.268684,7.2739038 7.3322707,7.2354066 7.4774306,7.1517679 7.5912614,7.0880401 7.8526022,6.9417292 7.8747709,6.9188141 7.837033,6.8339955 7.8080667,6.768892 7.8138363,6.7677704 7.9336552,6.8152097 8.5012816,7.0399512 8.6154676,8.7770703 8.0552109,8.6644433 7.7957515,8.6122849 7.265293,8.8631385 7.2355708,9.0520507 c -0.018037,0.1146424 0.073544,0.1232469 0.2556567,0.02402 0.1835317,-0.1 0.239865,-0.1158476 0.5818077,-0.1636747 C 8.2744574,8.884223 8.3432894,8.893786 8.6166868,8.987927 9.0002515,9.1200018 8.964663,9.1558458 9.2356882,8.3644846 Z M 6.4568142,9.4199557 c -0.063372,-0.00755 -0.063371,-0.00912 9.7e-6,-0.016746 0.038462,-0.00463 0.073735,-0.00465 0.078382,-4.41e-5 0.018422,0.018244 -0.011835,0.024724 -0.078392,0.016792 z m 0.6238883,0.9402913 c -0.09553,-0.230666 -0.1205406,-0.22735 -0.438999,0.0582 -0.3271481,0.293347 -0.5376292,0.435656 -0.7841857,0.5302 -0.2732258,0.104771 -0.2598182,0.20712 0.037168,0.283728 0.2320437,0.05986 0.5816104,-0.126325 0.9998472,-0.532524 L 7.1276029,10.473493 Z M 9.5924234,7.0981326 C 9.6868263,6.8159983 9.7737841,6.4412578 9.7502106,6.4181566 9.723175,6.3916631 9.2634119,6.0736356 9.213652,6.0470085 9.0076955,5.9367982 8.9106936,6.5962754 9.0819933,6.9421043 9.3491738,7.4815026 9.4534783,7.5133862 9.5924234,7.0981326 Z M 8.2420201,8.4120033 C 8.3501612,8.1717837 7.5606457,8.1762753 7.3056436,8.4173303 7.0829302,8.6278626 7.210864,8.7791896 7.5057306,8.654004 7.7383037,8.555265 7.940866,8.5044644 8.0731957,8.5116893 c 0.093824,0.00512 0.1317138,-0.01725 0.1688244,-0.099686 z m -0.029114,-0.588062 c -0.00327,-0.035005 0.017532,-0.073753 0.047978,-0.089389 C 8.3424363,7.6926717 8.3676217,7.570817 8.3043419,7.5242919 8.227435,7.4677478 8.0840442,7.5430498 8.0789712,7.6426472 8.0754541,7.7117075 8.0673358,7.71716 7.9723387,7.7142762 7.5508398,7.7014812 7.0081568,8.0877987 7.2796143,8.207403 7.3997198,8.2603211 8.2220938,7.9224327 8.2129061,7.8239413 Z M 8.1163886,7.2265332 C 8.0665691,7.0080982 7.6470344,7.1039481 7.2230898,7.430623 7.0831595,7.5384479 7.0815655,7.5415502 7.1140676,7.6428391 7.1773798,7.8401447 7.2648838,7.8217568 7.739606,7.5113903 7.8138404,7.462857 7.9251727,7.4033521 7.9870109,7.3791573 8.1141572,7.3294103 8.1344045,7.305525 8.1163886,7.2265332 Z M 6.3839977,8.8793477 C 6.3841409,8.629581 5.7172707,8.6835101 5.4226935,8.9570873 5.1869984,9.1759798 5.368946,9.2956237 5.6993419,9.1390041 5.9270711,9.0310523 6.0060846,9.0115989 6.2194097,9.010962 6.3396808,9.0106028 6.3839428,8.9752083 6.3839977,8.8793477 Z M 6.3337669,8.3249223 C 6.3338723,8.1409421 6.0694661,8.1381921 5.6803995,8.3181269 5.3690342,8.4621264 5.2979575,8.5453296 5.389018,8.6592217 5.4742588,8.7658349 6.3336884,8.4617258 6.3337669,8.3249223 Z M 6.2782131,7.7979596 C 6.322925,7.5137742 5.9269939,7.5683954 5.4526682,7.9118489 5.0933243,8.1720455 5.2250153,8.3576956 5.6329534,8.1660041 5.7626242,8.1050712 5.9468316,8.0227297 6.042303,7.9830226 6.2523981,7.8956432 6.2643151,7.8862946 6.2782131,7.7979596 Z M 8.0280517,6.0129664 c 0.083679,-0.1527652 0.096449,-0.2716206 0.028915,-0.2691182 -0.070208,0.0026 -0.2713386,0.2694572 -0.2747927,0.3645885 -0.00758,0.2088176 0.1026443,0.1660187 0.2458777,-0.09547 z"
             id="path9"
             sodipodi:nodetypes="sscssscsscsssssssssssssssssszsssssssssssssssssssssscsssssssssssssssssssssssssssssscsssssssssssssssscsssscssssscssssssssssssssssscssssssssssssssssssssssssssssssssssssssssss" /></g></g></g></g></svg>
