<?xml version="1.0" encoding="UTF-8" standalone="no"?>
<!-- Created with Inkscape (http://www.inkscape.org/) -->

<svg
   width="15mm"
   height="15mm"
   viewBox="0 0 15 15"
   version="1.1"
   id="svg1"
   inkscape:version="1.4.3 (0d15f75, 2025-12-25)"
   sodipodi:docname="wasserbombe.svg"
   xml:space="preserve"
   xmlns:inkscape="http://www.inkscape.org/namespaces/inkscape"
   xmlns:sodipodi="http://sodipodi.sourceforge.net/DTD/sodipodi-0.dtd"
   xmlns="http://www.w3.org/2000/svg"
   xmlns:svg="http://www.w3.org/2000/svg"><sodipodi:namedview
     id="namedview1"
     pagecolor="#ffffff"
     bordercolor="#000000"
     borderopacity="0.25"
     inkscape:showpageshadow="2"
     inkscape:pageopacity="0.0"
     inkscape:pagecheckerboard="0"
     inkscape:deskcolor="#d1d1d1"
     inkscape:document-units="mm"
     inkscape:zoom="8.4737937"
     inkscape:cx="16.816553"
     inkscape:cy="27.909577"
     inkscape:window-width="2560"
     inkscape:window-height="1369"
     inkscape:window-x="2552"
     inkscape:window-y="-8"
     inkscape:window-maximized="1"
     inkscape:current-layer="g1" /><defs
     id="defs1" /><g
     inkscape:label="Ebene 1"
     inkscape:groupmode="layer"
     id="layer1"><g
       id="g32"
       transform="matrix(0.97147952,0,0,0.96976363,-24.777587,-36.891201)"
       style="stroke-width:1.03027"><g
         id="g1"
         transform="matrix(0.245391,0,0,0.245391,13.282746,32.75903)"><g
           id="g2"
           transform="matrix(0.99999855,0,0,0.99999855,1.1746275e-4,1.2196612e-4)"><path
             id="path8"
             style="fill:#ffffff"
             d="m 90.241478,21.526486 c -1.212716,-0.0068 -2.117477,0.36825 -2.694458,1.116172 -0.02538,0.01994 -0.05134,0.04012 -0.07587,0.0608 l -0.851908,0.716609 0.186423,2.482071 0.184255,2.479899 -1.63445,2.045592 -1.47404,1.84581 h -0.0022 c -0.394251,0.201626 -1.167327,0.52168 -2.113513,0.875131 -0.01907,0.0071 -0.04148,0.01456 -0.0607,0.02172 l -1.075182,0.371333 c -0.491304,0.169687 -0.933411,0.399379 -1.411176,0.586316 -0.744054,0.293108 -1.491948,0.579688 -2.202388,0.912048 -0.715318,0.333185 -1.391973,0.704112 -2.072327,1.074912 -0.277356,0.151519 -0.576134,0.28126 -0.847573,0.438652 -0.557316,0.306249 -1.100922,0.628956 -1.632282,0.966335 -0.518872,0.329451 -0.976161,0.724291 -1.469704,1.081428 -0.0013,9.37e-4 -0.003,0.0012 -0.0043,0.0022 -0.242079,0.175618 -0.483579,0.349451 -0.719678,0.529856 -0.379453,0.292006 -0.796536,0.545875 -1.159723,0.853416 -2.065616,1.714784 -3.847872,3.628273 -5.382412,5.65252 -0.03746,0.04925 -0.07559,0.09827 -0.112721,0.147665 -0.492434,0.657258 -0.9516,1.326047 -1.385163,2.006504 -0.07407,0.115804 -0.148773,0.231048 -0.221106,0.347446 -0.391483,0.63241 -0.755005,1.271618 -1.094692,1.919643 -0.09177,0.17429 -0.183004,0.348084 -0.270963,0.523341 -0.294844,0.590155 -0.566063,1.183323 -0.817225,1.782835 -0.108339,0.257278 -0.211997,0.514414 -0.312149,0.773068 -0.204861,0.531905 -0.39371,1.063966 -0.563604,1.600426 -0.105807,0.332012 -0.202625,0.663536 -0.294807,0.996737 -0.132008,0.480312 -0.254254,0.960155 -0.357672,1.441903 -0.08509,0.393355 -0.153228,0.785602 -0.218938,1.179147 -0.07057,0.426295 -0.136649,0.851164 -0.184255,1.276866 -0.05111,0.451727 -0.07922,0.900653 -0.10405,1.350698 -0.02041,0.377503 -0.04378,0.75354 -0.04552,1.129202 -0.0027,0.484954 0.02317,0.965532 0.05203,1.446246 0.02074,0.341025 0.03474,0.682291 0.07153,1.020624 0.05593,0.517693 0.146509,1.027454 0.240616,1.537451 0.05443,0.294273 0.09749,0.590372 0.164745,0.881646 0.123134,0.534036 0.286149,1.056293 0.453051,1.57871 0.08495,0.265859 0.157232,0.534491 0.253621,0.796955 0.186604,0.508061 0.413731,1.002292 0.643809,1.496192 0.124631,0.267745 0.233156,0.540316 0.370677,0.80347 0.262426,0.501727 0.572297,0.984514 0.882256,1.467962 0.147246,0.229904 0.273284,0.4673 0.431374,0.692721 0.358052,0.510013 0.767053,0.99797 1.181399,1.483163 0.157163,0.184262 0.289865,0.379836 0.455218,0.560257 0.599299,0.653103 1.249083,1.282067 1.957438,1.880554 0.09287,0.07856 0.184867,0.15698 0.279634,0.234527 0.0064,0.0052 0.0131,0.01 0.01951,0.0152 0.266081,0.217019 0.529825,0.427535 0.791212,0.631918 2.093747,1.637139 4.04562,2.873429 5.995873,3.780653 1.879046,0.893637 3.721098,1.483601 5.521145,1.769805 0.367337,0.05841 0.707257,0.05353 1.068679,0.09772 0.379648,0.04586 0.758253,0.07857 1.138045,0.104234 9.688602,0.800361 17.143827,-3.478545 21.230501,-10.460313 1.38032,-2.037667 2.42917,-4.304576 3.0478,-6.738291 0.28302,-1.113543 0.49112,-2.253452 0.62646,-3.413662 0.74025,-6.345671 -0.76092,-13.303582 -4.19667,-20.023778 -0.0648,-0.129956 -0.13304,-0.258833 -0.19943,-0.388706 -0.915161,-1.748487 -1.914829,-3.485722 -3.095484,-5.183468 -1.570469,-2.258276 -1.720113,-2.592115 -1.710319,-3.856656 0.0059,-0.761531 -0.122101,-1.636452 -0.286137,-1.943529 -0.0723,-0.135332 -0.128046,-0.260422 -0.175585,-0.382191 -0.304078,-0.848088 0.140699,-1.466691 2.054985,-3.250797 0.162,-0.150983 0.320424,-0.301498 0.47256,-0.449509 0.551095,-0.478236 0.964079,-0.902464 1.235592,-1.294238 0.29359,-0.34167 0.470629,-0.591282 0.470392,-0.684036 -7.36e-4,-0.28771 -0.07433,-0.571122 -0.197261,-0.846901 -0.01772,-0.04034 -0.03643,-0.08141 -0.05853,-0.121606 -0.0052,-0.0095 -0.0097,-0.01876 -0.01517,-0.02823 -0.833959,-1.590046 -3.513139,-2.909832 -6.16929,-3.376746 -0.944173,-0.279693 -1.782573,-0.42156 -2.510202,-0.425622 z"
             sodipodi:nodetypes="sccccccccsccccccsscccccccccccccccccccccccccccccccscscscccccccssscsccscsccs" /><path
             style="fill:#ff8080"
             d="M 77.509883,84.193592 C 73.584762,83.569504 69.462526,81.496609 65.183732,77.9953 50.282653,65.801848 58.882183,41.052773 80.630033,33.541512 l 3.089428,-1.067025 1.635539,-2.046246 1.635539,-2.046246 -0.185291,-2.480736 -0.185291,-2.480736 0.851638,-0.717874 c 2.887168,-2.43369 11.711379,0.293461 11.719889,3.62207 5.6e-4,0.219021 -0.979446,1.312007 -2.17779,2.428858 -2.187764,2.038986 -2.455648,2.556504 -1.880549,3.632987 0.164042,0.307057 0.29344,1.181371 0.287551,1.942921 -0.0098,1.264602 0.138362,1.598991 1.708862,3.857311 15.925882,22.900833 4.440882,49.832384 -19.619675,46.006796 z M 68.6892,55.257612 c 0,-0.752471 -0.613214,-1.100337 -1.514165,-0.858959 -0.962176,0.25778 -1.038763,0.858836 -0.165035,1.295207 0.814602,0.406842 1.6792,0.182224 1.6792,-0.436248 z m 5.660029,-5.332321 c 0.556913,-0.23086 1.318963,-0.725317 1.693446,-1.098794 0.374482,-0.373476 1.438925,-1.158972 2.365429,-1.745545 2.496996,-1.580858 3.79694,-4.222497 2.684082,-5.454368 -0.863964,-0.956359 -4.282269,-0.80452 -5.965738,0.264994 -6.386849,4.057586 -7.021957,10.622375 -0.777219,8.033713 z M 85.433584,38.952328 c 0.919132,-1.355019 0.8769,-1.703267 -0.206554,-1.703267 -1.735224,0 -2.594601,1.298779 -1.819446,2.749733 0.374287,0.700598 1.092609,0.329572 2.026,-1.046466 z"
             id="path7"
             sodipodi:nodetypes="ssscccccsssscssssssssssssssss" /><path
             style="fill:#ff5555"
             d="M 76.995903,84.057653 C 72.969982,83.262789 69.394376,81.429312 65.202321,78.010212 50.28741,65.845399 58.846678,41.165612 80.616825,33.564039 c 1.899434,-0.663233 3.494247,-1.328285 3.544028,-1.477894 0.04978,-0.149609 0.708744,-1.044246 1.464362,-1.988083 l 1.373849,-1.716067 -0.172056,-2.319852 c -0.356168,-4.802254 2.882184,-5.838196 9.011778,-2.882849 3.886358,1.873784 4.198134,2.961063 1.504573,5.246988 -2.568339,2.179653 -2.871394,2.72267 -2.210214,3.960282 0.164042,0.307057 0.29344,1.181371 0.287551,1.942921 -0.0098,1.264602 0.138362,1.598991 1.708862,3.857311 6.627712,9.530406 9.129242,20.101018 6.865072,29.009392 C 101.08901,78.62831 88.696503,86.367781 76.995903,84.057653 Z M 66.646568,68.079168 c -0.09258,-0.150058 -0.29088,-0.272833 -0.440673,-0.272833 -0.149793,0 -0.196606,0.122775 -0.104028,0.272833 0.09258,0.150058 0.29088,0.272833 0.440673,0.272833 0.149793,0 0.196606,-0.122775 0.104028,-0.272833 z m -5.722074,-9.009867 c 0.109123,-1.743414 0.07198,-2.491224 -0.114461,-2.304454 -0.342252,0.342858 -0.703596,4.007626 -0.45829,4.648013 0.299279,0.781289 0.403977,0.352893 0.572751,-2.343559 z m 8.153779,-2.877848 c 1.138423,-1.140437 -0.10037,-2.946432 -1.82837,-2.66552 -1.081214,0.175767 -1.171713,0.0836 -0.729928,-0.743338 0.337173,-0.631128 0.05283,-0.677578 -0.740451,-0.120961 -0.800421,0.561629 -0.593032,2.46731 0.363991,3.344683 0.790311,0.724535 2.301169,0.819846 2.934758,0.185136 z m -0.83101,-4.932734 c 0.559709,-0.60469 0.625376,-0.839599 0.400402,-1.432372 -0.148009,-0.389982 -0.2513,-0.767377 -0.229535,-0.838654 0.188887,-0.61859 -0.53816,-0.04994 -1.022597,0.799806 -1.117928,1.960955 -0.534456,2.968805 0.85173,1.47122 z M 74.68092,50.4371 c 0.524276,-0.215904 1.320902,-0.738651 1.770281,-1.161662 0.449379,-0.42301 1.372359,-1.087956 2.051066,-1.477656 3.014403,-1.730814 4.579506,-5.258727 3.022521,-6.813097 -1.003238,-1.001553 -5.265825,-0.854449 -6.728385,0.2322 -3.570798,2.653024 -5.05869,4.496269 -5.666067,7.019295 -0.569029,2.36373 2.34725,3.520094 5.550584,2.20092 z m 7.075661,-1.599238 c -0.18948,-0.228713 -0.400595,-0.359656 -0.469146,-0.290985 -0.188875,0.189209 0.194879,0.706828 0.52403,0.706828 0.180594,0 0.159933,-0.156547 -0.05488,-0.415843 z M 66.072728,48.276476 c 0.232637,-0.607316 0.21458,-0.659768 -0.227139,-0.659768 -0.481132,0 -0.788744,0.448984 -0.560775,0.818498 0.248454,0.40272 0.599973,0.331904 0.787914,-0.15873 z m 16.506368,-1.202934 c 0,-0.755283 -1.226721,-0.549249 -1.432924,0.240668 -0.122791,0.470385 -0.05593,0.496221 0.648003,0.250394 0.431707,-0.15076 0.784921,-0.371738 0.784921,-0.491062 z M 68.28102,45.279521 c 0.922572,-1.341903 1.125988,-1.498454 1.747463,-1.344858 0.550431,0.136038 0.63254,0.101666 0.377663,-0.158096 -0.195786,-0.199538 -0.258543,-0.668238 -0.157345,-1.175123 0.167455,-0.838757 0.164868,-0.840909 -0.491367,-0.408723 -1.126551,0.741929 -3.520508,3.739447 -3.347404,4.191347 0.286184,0.747103 0.810953,0.437303 1.87099,-1.104547 z m 16.052555,0.585936 c -0.273876,-0.200617 -0.41157,-0.534348 -0.319565,-0.774533 0.241943,-0.631611 -0.10307,-0.806944 -0.524432,-0.266512 -0.319571,0.409877 -0.330417,0.363661 -0.08103,-0.345281 0.158358,-0.450175 0.543179,-1.015606 0.855156,-1.256514 0.560705,-0.432975 0.556626,-0.441937 -0.354424,-0.778711 l -0.921656,-0.340695 0.709314,-0.312621 c 2.091067,-0.92161 3.947084,-4.036068 3.218246,-5.400324 -0.233136,-0.436389 -0.196388,-0.621504 0.177784,-0.895589 1.167819,-0.855442 -1.02103,-1.212741 -2.596941,-0.423915 -0.23045,0.115353 -1.215626,0.355886 -2.189281,0.534519 -1.843419,0.338206 -5.291505,1.695329 -5.981993,2.354436 -1.335116,1.27444 1.945481,1.414829 4.420869,0.189187 0.858803,-0.425221 0.831038,-0.461245 1.29556,1.680911 0.161369,0.744154 0.396541,1.480802 0.522607,1.636997 0.288096,0.356951 0.492786,2.850524 0.241621,2.943472 -0.648858,0.240121 -0.485494,1.43515 0.201545,1.474322 0.398513,0.02272 0.923771,0.240866 1.16724,0.484765 0.274951,0.275438 0.480168,0.330763 0.54164,0.146023 0.05443,-0.163588 -0.117584,-0.456059 -0.38226,-0.649937 z M 74.082542,40.600718 c 0.969383,-0.725375 1.022833,-1.256248 0.139693,-1.387441 -0.57704,-0.08572 -2.815727,1.454018 -3.021005,2.077805 -0.190352,0.578434 1.833856,0.09343 2.881312,-0.690364 z M 93.336957,28.387089 c 0.883349,-0.728989 0.654807,-1.219705 -0.572226,-1.228664 -0.314724,-0.0023 -1.145437,-0.309497 -1.84603,-0.682664 -1.141626,-0.608083 -1.244748,-0.6241 -0.993792,-0.154353 0.154007,0.288273 0.280013,0.900529 0.280013,1.360569 0,0.743753 0.08875,0.836434 0.800979,0.836434 0.440539,0 0.876724,0.122775 0.969302,0.272833 0.248749,0.403198 0.459096,0.340769 1.361754,-0.404155 z"
             id="path6"
             sodipodi:nodetypes="ssssscsssscsssssssssssssssssssssssssssssssssssssssssssssssssssssssscssssssssssssssssssssssssss" /><path
             style="fill:#ff2a2a"
             d="M 76.995903,84.057653 C 72.969982,83.262789 69.394376,81.429312 65.202321,78.010212 50.28741,65.845399 58.846678,41.165612 80.616825,33.564039 c 1.899434,-0.663233 3.494247,-1.328285 3.544028,-1.477894 0.04978,-0.149609 0.708744,-1.044246 1.464362,-1.988083 l 1.373849,-1.716067 -0.172056,-2.319852 c -0.356168,-4.802254 2.882184,-5.838196 9.011778,-2.882849 3.886358,1.873784 4.198134,2.961063 1.504573,5.246988 -2.568339,2.179653 -2.871394,2.72267 -2.210214,3.960282 0.164042,0.307057 0.29344,1.181371 0.287551,1.942921 -0.0098,1.264602 0.138362,1.598991 1.708862,3.857311 6.627712,9.530406 9.129242,20.101018 6.865072,29.009392 -2.90562,11.432122 -15.298127,19.171593 -26.998727,16.861465 z m 14.635733,-4.730585 c 8.603324,-4.3586 13.362614,-19.448576 9.023214,-28.60936 -0.880111,-1.857981 -1.726658,-0.549129 -1.154911,1.785618 3.295951,13.45914 -7.159306,27.024902 -20.835191,27.033782 -1.768442,0.0011 -1.834535,0.798976 -0.06948,0.838713 0.468486,0.01055 1.096909,0.118062 1.396495,0.238924 0.299586,0.120861 2.40287,0.203923 4.673965,0.184583 l 4.129264,-0.03517 z M 81.625868,71.542107 c 10.469325,-2.9878 16.958806,-14.864473 14.116515,-25.835229 -0.174946,-0.675261 -0.532883,-2.271333 -0.795416,-3.546826 -1.27877,-6.212801 -4.873012,-8.794097 -10.0897,-7.246175 -0.728718,0.216228 -2.133187,0.581138 -3.121041,0.81091 -3.481052,0.809682 -6.37096,2.417307 -6.064814,3.373791 0.121624,0.379988 0.09752,0.395041 -0.126341,0.07891 -0.445147,-0.628618 -2.234254,0.06952 -3.805999,1.48515 -0.747793,0.673519 -1.46688,1.224581 -1.597971,1.224581 -0.754565,0 -5.500012,5.52979 -6.555761,7.639318 -0.187748,0.375146 -0.604272,1.111794 -0.92561,1.636997 -1.729631,2.826955 -2.720208,7.592483 -2.291946,11.026237 0.167856,1.345849 0.695591,2.19165 0.695591,1.114823 0,-0.875078 0.496037,-0.33875 1.065541,1.152089 2.235972,5.853293 11.727639,9.302678 19.496952,7.085424 z M 70.662381,42.637509 c 0.06166,-0.187572 0.403047,-0.383526 0.75863,-0.435452 0.564455,-0.08243 0.600725,-0.03914 0.285758,0.341041 -0.426528,0.514843 -1.205761,0.585285 -1.044388,0.09441 z M 92.491299,29.074972 c 1.467044,-0.558756 2.301997,-1.915408 1.186097,-1.9272 -0.337034,-0.0036 -1.348137,-0.30993 -2.246895,-0.680819 -0.898758,-0.370889 -1.642916,-0.674911 -1.653685,-0.675606 -0.492008,-0.03175 0.210547,3.162888 0.727448,3.307825 0.959172,0.268947 1.225892,0.265698 1.987035,-0.0242 z"
             id="path5"
             sodipodi:nodetypes="ssssscsssscsssssscssscssssssssssssssssssssscssss" /><path
             style="fill:#d40000"
             d="M 76.995903,84.057653 C 72.969982,83.262789 69.394376,81.429312 65.202321,78.010212 50.28741,65.845399 58.846678,41.165612 80.616825,33.564039 c 1.899434,-0.663233 3.494247,-1.328285 3.544028,-1.477894 0.04978,-0.149609 0.708744,-1.044246 1.464362,-1.988083 l 1.373849,-1.716067 -0.172056,-2.319852 c -0.356168,-4.802254 2.882184,-5.838196 9.011778,-2.882849 3.886358,1.873784 4.198134,2.961063 1.504573,5.246988 -2.568339,2.179653 -2.871394,2.72267 -2.210214,3.960282 0.164042,0.307057 0.29344,1.181371 0.287551,1.942921 -0.0098,1.264602 0.138362,1.598991 1.708862,3.857311 6.627712,9.530406 9.129242,20.101018 6.865072,29.009392 C 101.08901,78.62831 88.696503,86.367781 76.995903,84.057653 Z M 87.617588,81.224226 C 98.155175,78.422119 104.49839,66.731079 101.95015,54.808194 100.30488,47.110221 93.440731,35.324414 90.238966,34.699995 c -1.533495,-0.299067 -3.980782,-0.201806 -5.381699,0.213882 -0.728718,0.216228 -2.133187,0.581138 -3.121041,0.81091 -2.122951,0.493792 -5.137713,1.799332 -5.861351,2.538253 -0.282193,0.288153 -1.022276,0.670412 -1.644629,0.849465 -0.627335,0.180486 -1.737395,0.871221 -2.491174,1.550133 -0.747793,0.673519 -1.466595,1.224581 -1.597337,1.224581 -0.387138,0 -5.106505,4.951969 -5.868048,6.157264 -3.68782,5.836716 -4.948702,12.389093 -3.251531,16.897108 0.338962,0.900348 0.74376,2.189483 0.899552,2.864744 2.251439,9.758594 14.805157,16.313903 25.69588,13.417891 z m 4.873711,-52.149254 c 1.467044,-0.558756 2.301997,-1.915408 1.186097,-1.9272 -0.337034,-0.0036 -1.348137,-0.30993 -2.246895,-0.680819 -0.898758,-0.370889 -1.642916,-0.674911 -1.653685,-0.675606 -0.492008,-0.03175 0.210547,3.162888 0.727448,3.307825 0.959172,0.268947 1.225892,0.265698 1.987035,-0.0242 z"
             id="path4"
             sodipodi:nodetypes="ssssscsssscssssssssssssssssscssss" /><path
             style="fill:#aa0000"
             d="M 77.339987,83.89452 C 74.843399,83.473392 68.807403,80.937586 68.284642,80.090244 68.188984,79.935191 67.390283,79.318227 66.509753,78.719212 50.868183,68.07843 58.741494,40.884287 79.374597,34.284486 c 3.692551,-1.181117 4.784054,-1.685803 5.264724,-2.434289 0.261327,-0.406931 0.963945,-1.330362 1.561374,-2.052069 l 1.086233,-1.312195 -0.177701,-2.315923 c -0.352938,-4.599714 2.577897,-5.630794 8.325704,-2.929018 3.985803,1.87354 4.157127,2.561692 1.315688,5.284707 -2.308722,2.212501 -2.413551,2.457664 -1.802714,4.215978 0.207443,0.597129 0.310734,1.495797 0.229537,1.997041 -0.129149,0.797263 0.09841,1.268828 1.817737,3.766901 15.721141,22.841779 4.213811,49.415163 -19.655192,45.388901 z m 9.242621,-2.330052 C 99.728592,78.844286 106.41105,63.39559 100.55889,49.253705 97.492057,41.842642 92.911712,35.25073 90.341097,34.54853 87.304979,33.719171 80.091963,35.233732 76.17885,37.522264 c -0.449379,0.262813 -1.429842,0.813153 -2.178807,1.222978 -2.854303,1.561839 -8.428588,6.51409 -9.489991,8.431004 -0.322846,0.583066 -0.711112,1.258327 -0.862813,1.500581 -10.477374,16.731452 3.582424,36.892174 22.935369,32.887641 z M 93.200782,32.74732 c 0,-0.225087 -0.232947,-0.409249 -0.517659,-0.409249 -0.284712,0 -1.173256,-0.305738 -1.974544,-0.679417 -1.647846,-0.768471 -2.682464,-0.880107 -2.682464,-0.28944 0,0.2466 0.589108,0.566477 1.566017,0.850325 0.86131,0.250259 1.811134,0.55516 2.11072,0.677558 0.869784,0.355356 1.49793,0.292548 1.49793,-0.149777 z m 0.780388,-4.277152 c 1.728847,-1.408842 1.728557,-1.473578 -0.0075,-1.679555 -1.749253,-0.20754 -3.817569,-1.210368 -4.173746,-2.023653 -0.655902,-1.497667 -1.170879,-0.238926 -0.55895,1.366222 0.3401,0.892115 0.381932,1.356754 0.171959,1.91 -0.714125,1.881615 2.42336,2.174869 4.56826,0.426986 z m 1.659712,-3.102681 c -0.669116,-0.807663 -2.383575,-1.487525 -3.722917,-1.47631 -1.593066,0.01334 -1.04744,0.412119 1.691343,1.236145 0.898758,0.270412 1.748493,0.589498 1.8883,0.709079 0.420742,0.359875 0.530983,-9.27e-4 0.143274,-0.468914 z"
             id="path3"
             sodipodi:nodetypes="sssssscssssscssssssscsssssssscssssccsssss" /><path
             style="fill:#800000"
             d="M 78.442137,83.908674 C 75.275108,83.509281 69.216329,81.15896 68.543842,80.068928 68.440951,79.902152 67.695746,79.342101 66.887831,78.824369 50.455042,68.293841 58.525391,41.608899 80.400289,34.144866 c 2.33211,-0.795749 3.82614,-1.458051 4.085264,-1.810991 0.224689,-0.306039 0.996399,-1.312537 1.71491,-2.236661 l 1.306383,-1.680226 -0.183059,-2.498249 -0.183059,-2.49825 0.919307,-0.656824 c 1.580987,-1.129579 3.923402,-0.920361 7.140618,0.637782 4.009374,1.941797 4.26,2.778605 1.491686,4.980548 -2.30328,1.83205 -2.582772,2.388504 -2.006302,3.994447 0.309447,0.862067 0.418009,1.666543 0.305773,2.265869 -0.155356,0.829588 0.01638,1.202079 1.601316,3.473203 15.713084,22.515976 5.313814,48.752303 -18.150989,45.79316 z m 9.992504,-2.453677 C 104.96253,76.196767 107.70044,53.682967 93.856654,36.869803 91.392927,33.877628 88.611588,33.290916 83.410263,34.666181 64.592967,39.6416 54.844392,56.304047 62.20486,70.910852 c 4.440174,8.811499 16.47245,13.648369 26.229781,10.544145 z m 4.902316,-48.703941 c 0,-0.328879 -0.21414,-0.578681 -0.544702,-0.635414 -0.299586,-0.05142 -1.300952,-0.390728 -2.225258,-0.754026 -2.116129,-0.831744 -3.688308,-0.627722 -2.710566,0.351749 1.029789,1.031612 5.480526,1.874321 5.480526,1.037691 z m 1.307275,-4.433749 c 2.959127,-2.53832 1.510881,-4.629032 -3.297712,-4.760632 -2.632408,-0.07204 -3.09918,0.427854 -2.35978,2.527244 0.311433,0.884257 0.346463,1.380547 0.139437,1.975472 -0.838872,2.410647 2.809638,2.58118 5.518055,0.257916 z m -1.307275,-1.91397 c -1.562404,-0.257875 -4.134369,-1.977418 -2.957676,-1.977418 0.418508,0 4.473135,1.444683 4.591052,1.635814 0.156307,0.253358 -0.868929,0.467777 -1.633376,0.341604 z"
             id="path2"
             sodipodi:nodetypes="sssssscccssssssssssssssssssssssssss" /><path
             style="fill:#550000"
             d="M 77.823555,83.599986 C 74.51326,83.11686 70.543806,81.436515 68.081998,79.476201 67.442305,78.966819 66.580278,78.338777 66.166384,78.080551 64.955827,77.325294 62.239128,73.68232 61.047898,71.216887 54.034046,56.700649 62.340134,40.896443 80.368027,34.455985 c 2.154254,-0.769607 4.020803,-1.530283 4.147885,-1.690391 3.089469,-3.892353 3.43166,-4.679128 3.020561,-6.944949 -0.574314,-3.165407 1.536204,-4.327146 5.468637,-3.010221 1.651818,0.553174 3.011343,1.374607 1.557426,0.941007 -4.564109,-1.361152 -6.879018,-0.518228 -5.989753,2.181038 0.19191,0.582522 0.252084,1.484354 0.146227,2.19151 -0.217102,1.450297 0.79779,2.308766 2.711491,2.293574 2.653292,-0.02106 6.588281,-4.057136 5.256372,-5.391401 -0.470612,-0.471446 0.0975,-0.403265 0.810923,0.09732 0.982911,0.689675 0.764155,1.562677 -0.688365,2.747102 -2.833277,2.31033 -3.103045,2.83564 -2.364972,4.605224 0.277989,0.666497 0.366554,1.379056 0.254203,2.045229 -0.158263,0.938411 -0.02517,1.232422 1.620775,3.580404 3.278991,4.677564 6.029583,10.930608 7.545963,17.154595 2.34793,9.637084 -1.95881,19.391933 -11.354065,25.71716 -3.319254,2.234642 -9.635213,3.364205 -14.68778,2.6268 z m 6.846554,-1.073281 C 101.28505,80.300631 108.20023,62.556947 99.29746,44.994371 93.251635,33.067723 90.770384,31.787422 80.400289,35.243612 54.134226,43.997681 52.040572,78.134298 77.516595,82.26168 c 3.674911,0.595374 4.468433,0.624772 7.153514,0.265025 z M 93.6612,33.255901 c 0.516926,-1.349472 -5.018562,-3.608974 -6.125317,-2.500261 -0.706827,0.708078 0.09652,1.343038 2.897003,2.289767 2.205071,0.745446 3.003455,0.797502 3.228314,0.210494 z"
             id="path1"
             sodipodi:nodetypes="ssssssssssssssssssssssssssssss" /></g></g></g></g></svg>
